<?xml version="1.0" encoding="UTF-8"?>
<svg width="128px" height="128px" viewBox="0 0 128 128" version="1.1" xmlns="http://www.w3.org/2000/svg" xmlns:xlink="http://www.w3.org/1999/xlink">
    <!-- Generator: Sketch 49.1 (51147) - http://www.bohemiancoding.com/sketch -->
    <title>access</title>
    <desc>Created with Sketch.</desc>
    <defs></defs>
    <g id="access" stroke="none" stroke-width="1" fill="none" fill-rule="evenodd">
        <path d="M121.210956,30.1708885 C118.008435,10.1551285 97.9926745,-3.45558838 77.9769145,0.547563631 C57.9611544,3.75008524 40.3472856,19.7626933 44.3504376,39.7784534 C45.151068,43.7816054 47.5529592,50.987279 49.9548504,55.7910614 L13.1258519,107.832038 C11.5245911,109.433298 10.7239607,113.43645 11.5245911,115.838342 L13.1258519,124.645276 C11.5245911,115.838342 13.9264823,127.847798 14.7271127,127.847798 L26.7365687,127.847798 C29.1384599,127.847798 32.3409815,125.445906 33.1416119,123.844646 L47.5529592,101.426994 L60.3630456,102.227625 L77.1762841,75.8068215 C82.7806969,76.6074519 90.7870009,76.6074519 95.5907833,75.8068215 C115.606543,71.0030391 124.413478,50.1866486 121.210956,30.1708885 Z M102.796457,39.7784534 C97.1920441,47.7847574 91.5876313,42.1803446 83.5813273,36.5759317 C75.5750233,30.9715189 68.3693496,27.7689973 73.9737625,19.7626933 C79.5781753,11.7563893 90.7870009,10.1551285 98.7933049,15.7595413 C106.799609,21.3639541 108.40087,32.5727797 102.796457,39.7784534 Z" id="用户权限" fill="#000000" fill-rule="nonzero"></path>
    </g>
</svg>