<?xml version="1.0" encoding="UTF-8"?>
<svg width="128px" height="128px" viewBox="0 0 128 128" version="1.1" xmlns="http://www.w3.org/2000/svg" xmlns:xlink="http://www.w3.org/1999/xlink">
    <!-- Generator: Sketch 49.1 (51147) - http://www.bohemiancoding.com/sketch -->
    <title>account</title>
    <desc>Created with Sketch.</desc>
    <defs></defs>
    <g id="account" stroke="none" stroke-width="1" fill="none" fill-rule="evenodd">
        <path d="M49.3390021,90.3061224 C51.8696143,89.6734694 54.4002266,88.4081633 56.2981857,87.1428571 C56.9308388,86.5102041 57.5634919,85.877551 58.1961449,85.244898 C58.1961449,84.6122449 58.828798,83.9795918 58.828798,83.3469388 C58.828798,82.7142857 58.828798,82.0816327 58.828798,81.4489796 C58.828798,80.8163265 58.828798,80.8163265 58.1961449,80.1836735 C58.1961449,80.1836735 57.5634919,79.5510204 57.5634919,79.5510204 C56.9308388,78.9183673 56.9308388,78.9183673 56.2981857,78.2857143 C55.6655327,77.6530612 55.0328796,77.0204082 54.4002266,75.755102 C53.7675735,74.4897959 53.7675735,73.8571429 53.1349204,72.5918367 C52.5022674,71.3265306 52.5022674,70.0612245 51.8696143,68.7959184 C51.2369613,68.7959184 50.6043082,68.1632653 50.6043082,67.5306122 C49.9716551,66.8979592 49.3390021,66.2653061 48.706349,65.6326531 C48.706349,65 48.0736959,63.7346939 47.4410429,62.4693878 C47.4410429,61.2040816 46.8083898,59.9387755 46.8083898,58.6734694 C46.8083898,57.4081633 46.8083898,56.7755102 47.4410429,55.5102041 C48.0736959,54.877551 48.706349,54.244898 49.3390021,53.6122449 C49.3390021,50.4489796 49.3390021,47.9183673 49.9716551,44.755102 C49.9716551,42.2244898 50.6043082,39.6938776 51.8696143,36.5306122 C52.5022674,34 53.7675735,30.8367347 55.6655327,28.9387755 C56.9308388,27.0408163 58.1961449,25.1428571 60.0941041,23.244898 C61.9920633,21.3469388 63.8900225,20.0816327 65.1553286,19.4489796 C64.5226755,18.1836735 64.5226755,16.2857143 63.8900225,15.0204082 C63.8900225,13.755102 62.6247164,12.4897959 61.9920633,11.2244898 C60.0941041,9.32653061 57.5634919,7.42857143 54.4002266,5.53061224 C51.2369613,4.26530612 47.4410429,3 43.0124715,3 C41.7471653,3 39.8492062,3 37.951247,3.63265306 C36.0532878,3.63265306 34.1553286,4.26530612 32.8900225,4.89795918 C30.9920633,5.53061224 29.7267572,6.79591837 27.828798,8.06122449 C25.9308388,9.32653061 24.6655327,10.5918367 23.4002266,12.4897959 C21.5022674,15.0204082 20.8696143,16.9183673 20.2369613,19.4489796 C18.9716551,22.6122449 18.3390021,24.5102041 18.3390021,27.0408163 C17.706349,29.5714286 17.706349,32.7346939 17.706349,35.2653061 C17.0736959,35.8979592 17.0736959,36.5306122 16.4410429,37.1632653 C16.4410429,38.4285714 15.8083898,39.0612245 15.8083898,40.3265306 C15.8083898,41.5918367 15.8083898,42.2244898 16.4410429,43.4897959 C17.0736959,44.755102 17.0736959,45.3877551 17.706349,46.0204082 C18.3390021,46.6530612 18.3390021,47.2857143 18.9716551,47.9183673 C19.6043082,48.5510204 20.2369613,48.5510204 20.2369613,48.5510204 C20.8696143,49.8163265 20.8696143,51.0816327 21.5022674,51.7142857 C22.1349204,52.9795918 22.1349204,53.6122449 22.7675735,54.244898 C23.4002266,54.877551 24.0328796,55.5102041 24.6655327,56.1428571 C25.2981857,57.4081633 26.5634919,58.6734694 27.828798,59.3061224 C29.0941041,60.5714286 29.0941041,61.8367347 29.7267572,63.1020408 C29.7267572,64.3673469 29.7267572,65 29.7267572,66.2653061 C29.7267572,66.8979592 29.7267572,68.1632653 29.0941041,68.7959184 C28.4614511,69.4285714 28.4614511,70.6938776 27.1961449,71.3265306 C26.5634919,72.5918367 25.2981857,73.2244898 24.0328796,74.4897959 C22.1349204,75.755102 20.2369613,76.3877551 17.706349,77.0204082 C15.1757368,77.6530612 12.6451245,78.2857143 10.7471653,78.9183673 C8.21655309,79.5510204 6.31859391,80.8163265 4.42063472,82.0816327 C2.52267554,83.3469388 1.89002248,85.244898 1.25736942,87.7755102 C-0.00793670443,93.4693878 -0.00793670443,97.2653061 0.624716357,99.7959184 C1.25736942,102.959184 1.25736942,104.22449 2.52267554,104.857143 C3.1553286,105.489796 4.42063472,105.489796 6.31859391,106.122449 C8.21655309,106.755102 10.7471653,106.755102 13.2777776,107.387755 C15.8083898,108.020408 18.9716551,108.020408 22.7675735,108.653061 C25.9308388,109.285714 29.0941041,109.285714 32.8900225,109.285714 C32.8900225,109.285714 32.8900225,109.285714 32.8900225,108.653061 C32.8900225,108.653061 32.8900225,108.653061 32.8900225,108.020408 C32.8900225,107.387755 32.8900225,106.755102 32.8900225,105.489796 C32.8900225,104.857143 32.8900225,103.591837 32.8900225,102.959184 C33.5226755,99.7959184 34.1553286,97.8979592 36.0532878,96 C37.951247,94.1020408 39.8492062,92.8367347 41.7471653,92.2040816 C44.2777776,91.5714286 46.8083898,90.9387755 49.3390021,90.3061224 Z M31.6247164,92.2040816 C29.0941041,94.7346939 27.1961449,98.5306122 26.5634919,102.959184 C25.2981857,102.959184 24.0328796,102.959184 22.7675735,102.326531 C19.6043082,102.326531 17.0736959,101.693878 13.9104306,101.061224 C11.3798184,100.428571 8.84920615,100.428571 7.58390003,99.7959184 C7.58390003,99.7959184 7.58390003,99.1632653 7.58390003,98.5306122 C7.58390003,96 7.58390003,92.8367347 8.21655309,89.0408163 C8.21655309,87.7755102 8.84920615,87.1428571 8.84920615,87.1428571 C10.1145123,86.5102041 11.3798184,85.244898 12.6451245,85.244898 C15.1757368,84.6122449 17.0736959,83.9795918 19.6043082,83.3469388 C22.7675735,82.7142857 25.2981857,81.4489796 27.828798,80.1836735 C29.7267572,78.9183673 31.6247164,77.6530612 32.2573694,76.3877551 C33.5226755,75.122449 34.7879817,73.2244898 35.4206347,71.3265306 C36.0532878,69.4285714 36.0532878,68.1632653 36.0532878,66.2653061 C36.0532878,65 36.0532878,63.7346939 36.0532878,62.4693878 C36.0532878,59.3061224 34.7879817,56.7755102 32.2573694,54.244898 C30.9920633,53.6122449 29.7267572,52.9795918 28.4614511,51.7142857 C27.828798,51.0816327 27.828798,50.4489796 27.1961449,49.8163265 C27.1961449,49.1836735 26.5634919,47.9183673 26.5634919,47.2857143 L25.9308388,43.4897959 C25.9308388,43.4897959 22.7675735,42.2244898 22.7675735,42.2244898 C22.7675735,42.2244898 22.7675735,41.5918367 22.1349204,40.9591837 C22.1349204,40.3265306 22.1349204,40.3265306 22.1349204,40.3265306 C22.1349204,39.6938776 22.1349204,39.6938776 22.1349204,39.6938776 C22.1349204,39.0612245 22.1349204,39.0612245 22.1349204,39.0612245 L24.0328796,37.1632653 L24.0328796,34.6326531 C24.0328796,32.1020408 24.0328796,29.5714286 24.6655327,27.6734694 C24.6655327,25.7755102 25.2981857,23.877551 25.9308388,21.3469388 C26.5634919,19.4489796 27.1961449,17.5510204 28.4614511,16.2857143 C29.7267572,15.0204082 30.3594102,13.755102 31.6247164,13.122449 C32.8900225,12.4897959 34.1553286,11.2244898 35.4206347,11.2244898 C36.6859408,9.95918367 37.951247,9.95918367 39.2165531,9.95918367 C40.4818592,9.95918367 41.7471653,9.95918367 43.6451245,9.95918367 C46.8083898,9.95918367 49.3390021,10.5918367 51.8696143,11.8571429 C54.4002266,12.4897959 56.2981857,14.3877551 56.9308388,15.6530612 C57.5634919,15.6530612 57.5634919,16.2857143 58.1961449,16.9183673 C56.9308388,17.5510204 56.2981857,18.1836735 55.6655327,18.8163265 C53.7675735,21.3469388 51.8696143,23.244898 50.6043082,25.1428571 C48.0736959,28.3061224 46.8083898,31.4693878 45.5430837,35.2653061 C44.9104306,37.7959184 44.2777776,40.9591837 43.6451245,43.4897959 C43.0124715,46.0204082 43.0124715,48.5510204 43.0124715,51.0816327 C42.3798184,52.3469388 42.3798184,52.9795918 41.7471653,53.6122449 C41.1145123,54.877551 41.1145123,56.7755102 40.4818592,58.0408163 C40.4818592,59.9387755 40.4818592,61.8367347 41.1145123,64.3673469 C41.7471653,66.2653061 42.3798184,68.1632653 43.0124715,69.4285714 C43.6451245,70.6938776 44.2777776,71.3265306 44.9104306,71.9591837 C44.9104306,71.9591837 44.9104306,71.9591837 45.5430837,72.5918367 C45.5430837,73.2244898 45.5430837,73.8571429 46.1757368,74.4897959 C46.8083898,75.755102 46.8083898,77.0204082 47.4410429,78.2857143 C48.0736959,80.1836735 49.3390021,81.4489796 50.6043082,82.7142857 C49.3390021,83.3469388 48.0736959,83.9795918 46.1757368,84.6122449 C44.2777776,85.244898 41.7471653,85.877551 39.2165531,87.1428571 C36.6859408,88.4081633 34.1553286,90.3061224 31.6247164,92.2040816 Z M125.890022,110.55102 C126.522676,111.816327 126.522676,113.714286 127.155329,113.714286 C127.155329,115.612245 126.522676,117.510204 126.522676,118.77551 C125.890022,120.040816 125.890022,121.306122 125.257369,121.938776 C124.624716,121.938776 123.992063,122.571429 122.094104,123.204082 C120.196145,123.836735 118.298186,123.836735 115.767573,124.469388 C113.236961,125.102041 110.706349,125.102041 107.543084,125.734694 C104.379818,125.734694 101.849206,126.367347 98.6859408,126.367347 C95.5226755,126.367347 92.3594102,127 89.828798,127 C87.2981857,127 84.7675735,127 82.8696143,127 C80.9716551,127 78.4410429,127 75.9104306,127 C73.3798184,127 70.8492062,126.367347 67.6859408,126.367347 C64.5226755,126.367347 61.3594102,125.734694 58.828798,125.734694 C56.2981857,125.102041 53.7675735,125.102041 51.2369613,124.469388 C49.3390021,123.836735 47.4410429,123.836735 45.5430837,123.204082 C43.6451245,122.571429 43.0124715,122.571429 42.3798184,121.938776 C41.7471653,121.306122 41.1145123,120.040816 40.4818592,116.877551 C40.4818592,113.714286 40.4818592,109.918367 41.1145123,105.489796 C41.7471653,102.959184 42.3798184,101.061224 44.2777776,99.7959184 C46.1757368,98.5306122 48.0736959,97.2653061 50.6043082,96.6326531 C52.5022674,96 55.0328796,95.3673469 57.5634919,94.7346939 C59.4614511,94.1020408 61.9920633,93.4693878 63.8900225,92.2040816 C65.1553286,91.5714286 66.4206347,90.3061224 67.0532878,89.6734694 C67.6859408,89.0408163 68.3185939,87.7755102 68.951247,87.1428571 C69.5839,86.5102041 69.5839,85.244898 69.5839,84.6122449 C69.5839,83.9795918 69.5839,82.7142857 69.5839,81.4489796 C68.951247,80.1836735 68.951247,78.9183673 67.6859408,77.6530612 C67.0532878,77.0204082 65.7879817,75.755102 64.5226755,75.122449 C64.5226755,75.122449 63.8900225,73.8571429 63.2573694,73.2244898 C62.6247164,72.5918367 62.6247164,71.3265306 61.9920633,70.6938776 C61.3594102,70.0612245 61.3594102,68.7959184 60.7267572,67.5306122 C60.7267572,67.5306122 60.0941041,67.5306122 59.4614511,66.8979592 C58.828798,66.8979592 58.828798,66.2653061 58.1961449,65.6326531 C57.5634919,65 56.9308388,63.7346939 56.9308388,62.4693878 C56.2981857,61.2040816 56.2981857,60.5714286 56.2981857,59.3061224 C56.2981857,58.6734694 56.2981857,57.4081633 56.9308388,56.7755102 C56.9308388,56.1428571 57.5634919,55.5102041 58.1961449,54.877551 C58.1961449,51.7142857 58.1961449,49.1836735 58.1961449,46.6530612 C58.828798,44.122449 59.4614511,41.5918367 60.0941041,39.0612245 C60.7267572,36.5306122 61.9920633,34 63.2573694,32.1020408 C64.5226755,30.2040816 66.4206347,28.3061224 68.3185939,27.6734694 C70.2165531,26.4081633 71.4818592,25.1428571 73.3798184,24.5102041 C74.6451245,23.877551 76.5430837,23.244898 78.4410429,23.244898 C80.3390021,22.6122449 82.2369613,22.6122449 83.5022674,22.6122449 C87.9308388,22.6122449 91.7267572,23.244898 94.8900225,25.1428571 C98.6859408,27.0408163 100.5839,28.9387755 102.481859,30.8367347 C103.747165,33.3673469 105.645125,35.8979592 106.277778,38.4285714 C106.910431,40.9591837 107.543084,43.4897959 108.80839,47.9183673 C109.441043,50.4489796 109.441043,53.6122449 109.441043,56.1428571 C110.073696,56.1428571 110.073696,56.7755102 110.706349,57.4081633 C110.706349,58.0408163 111.339002,58.6734694 111.339002,59.3061224 C111.339002,60.5714286 111.339002,61.2040816 111.339002,62.4693878 C110.706349,64.3673469 110.706349,65.6326531 110.073696,66.2653061 C110.073696,66.8979592 109.441043,67.5306122 108.80839,68.1632653 C108.175737,68.7959184 107.543084,69.4285714 106.910431,69.4285714 C106.277778,70.6938776 106.277778,71.3265306 105.645125,72.5918367 C105.012471,73.2244898 105.012471,74.4897959 104.379818,75.122449 C103.747165,75.755102 103.114512,76.3877551 102.481859,77.0204082 C101.849206,77.6530612 101.216553,77.6530612 100.5839,78.2857143 C99.951247,78.9183673 99.951247,78.9183673 99.3185939,79.5510204 C98.6859408,79.5510204 98.0532878,80.1836735 98.0532878,80.8163265 C98.0532878,81.4489796 97.4206347,82.0816327 97.4206347,82.7142857 C97.4206347,83.3469388 97.4206347,84.6122449 97.4206347,85.877551 C97.4206347,87.1428571 97.4206347,87.7755102 98.0532878,89.0408163 C98.6859408,90.3061224 99.3185939,90.9387755 100.5839,92.2040816 C101.216553,92.8367347 103.114512,94.1020408 105.012471,94.7346939 C106.910431,95.3673469 108.80839,96 110.706349,96.6326531 C113.236961,97.2653061 115.13492,97.8979592 117.03288,98.5306122 C118.930839,99.7959184 120.828798,100.428571 122.094104,101.693878 C123.35941,102.959184 124.624716,104.22449 125.257369,106.122449 C125.257369,107.387755 125.890022,108.653061 125.890022,110.55102 Z M120.196145,119.408163 C120.196145,118.142857 120.196145,116.877551 120.828798,115.612245 C120.828798,113.714286 120.828798,112.44898 120.828798,111.183673 C120.828798,109.918367 120.196145,108.653061 120.196145,108.020408 C119.563492,107.387755 119.563492,107.387755 118.930839,106.755102 C117.665533,106.122449 116.400227,105.489796 115.13492,104.857143 C113.236961,104.22449 111.339002,103.591837 109.441043,102.959184 C106.910431,102.326531 105.012471,101.693878 103.114512,101.061224 C99.951247,100.428571 98.0532878,99.1632653 96.1553286,97.2653061 C94.2573694,96 92.9920633,94.1020408 92.3594102,92.2040816 C91.7267572,90.3061224 91.0941041,88.4081633 91.0941041,86.5102041 C90.4614511,84.6122449 91.0941041,83.3469388 91.0941041,81.4489796 C91.7267572,80.1836735 91.7267572,78.9183673 92.3594102,77.6530612 C92.9920633,76.3877551 93.6247164,75.122449 94.2573694,74.4897959 C94.8900225,73.8571429 96.1553286,73.2244898 96.7879817,72.5918367 C97.4206347,72.5918367 97.4206347,71.9591837 98.6859408,71.3265306 C98.6859408,70.6938776 99.3185939,70.0612245 99.3185939,69.4285714 C99.3185939,68.1632653 99.951247,67.5306122 99.951247,66.2653061 L101.216553,62.4693878 L104.379818,61.8367347 C104.379818,61.8367347 104.379818,61.2040816 104.379818,60.5714286 C104.379818,59.9387755 104.379818,59.9387755 104.379818,59.9387755 C104.379818,59.3061224 104.379818,59.3061224 104.379818,59.3061224 L102.481859,57.4081633 L102.481859,54.244898 C102.481859,51.7142857 102.481859,49.8163265 101.849206,47.2857143 C101.216553,44.755102 101.216553,42.8571429 101.216553,40.9591837 C100.5839,39.0612245 99.3185939,37.1632653 98.0532878,35.2653061 C96.7879817,34 94.8900225,32.7346939 92.3594102,31.4693878 C90.4614511,30.2040816 87.2981857,29.5714286 84.1349204,29.5714286 C82.8696143,29.5714286 81.6043082,29.5714286 80.3390021,29.5714286 C79.0736959,30.2040816 77.8083898,30.2040816 76.5430837,30.8367347 C75.2777776,30.8367347 74.0124715,32.1020408 72.7471653,32.7346939 C71.4818592,33.3673469 70.8492062,34.6326531 69.5839,35.8979592 C68.3185939,37.1632653 67.6859408,39.0612245 67.0532878,40.9591837 C66.4206347,43.4897959 65.7879817,45.3877551 65.7879817,47.2857143 C65.1553286,49.1836735 65.1553286,51.7142857 65.1553286,54.244898 L65.1553286,56.7755102 L63.2573694,58.6734694 C63.2573694,58.6734694 62.6247164,58.6734694 62.6247164,59.3061224 C62.6247164,59.9387755 62.6247164,59.9387755 62.6247164,60.5714286 C62.6247164,61.2040816 63.2573694,61.8367347 63.2573694,61.8367347 L67.0532878,62.4693878 L67.6859408,65.6326531 C67.6859408,66.2653061 68.3185939,67.5306122 68.3185939,68.1632653 C68.3185939,68.7959184 68.3185939,69.4285714 68.951247,70.0612245 C69.5839,70.0612245 69.5839,70.0612245 68.951247,70.0612245 C70.2165531,70.6938776 71.4818592,71.9591837 72.7471653,73.2244898 C75.2777776,75.122449 75.9104306,78.2857143 76.5430837,81.4489796 C76.5430837,83.3469388 76.5430837,83.9795918 76.5430837,85.244898 C76.5430837,86.5102041 75.9104306,88.4081633 75.2777776,90.3061224 C74.0124715,92.2040816 73.3798184,93.4693878 72.1145123,94.7346939 C70.8492062,96 69.5839,97.2653061 67.6859408,98.5306122 C65.1553286,100.428571 62.6247164,101.693878 59.4614511,102.326531 C57.5634919,102.959184 55.0328796,103.591837 53.1349204,104.22449 C51.2369613,104.857143 49.9716551,106.122449 48.706349,106.755102 C48.706349,106.755102 48.0736959,107.387755 48.0736959,108.653061 C47.4410429,112.44898 47.4410429,115.612245 47.4410429,118.142857 C47.4410429,118.77551 47.4410429,118.77551 47.4410429,119.408163 C48.706349,120.040816 50.6043082,120.040816 52.5022674,120.673469 C55.0328796,121.306122 57.5634919,121.938776 60.0941041,121.938776 C64.5226755,121.938776 66.4206347,122.571429 68.951247,122.571429 C71.4818592,122.571429 74.6451245,123.204082 77.1757368,123.204082 C79.706349,123.204082 82.2369613,123.204082 84.1349204,123.204082 C86.0328796,123.204082 88.5634919,123.204082 91.0941041,123.204082 C93.6247164,123.204082 96.1553286,122.571429 99.3185939,122.571429 C101.849206,122.571429 104.379818,122.571429 107.543084,121.938776 C110.706349,121.306122 113.236961,121.306122 115.13492,120.673469 C117.03288,120.040816 118.930839,120.040816 120.196145,119.408163 Z" id="Combined-Shape" fill="#000000" fill-rule="nonzero"></path>
    </g>
</svg>