<?xml version="1.0" encoding="UTF-8"?>
<svg width="128px" height="128px" viewBox="0 0 128 128" version="1.1" xmlns="http://www.w3.org/2000/svg" xmlns:xlink="http://www.w3.org/1999/xlink">
    <!-- Generator: Sketch 49.1 (51147) - http://www.bohemiancoding.com/sketch -->
    <title>accrauls</title>
    <desc>Created with Sketch.</desc>
    <defs></defs>
    <g id="accrauls" stroke="none" stroke-width="1" fill="none" fill-rule="evenodd">
        <path d="M4,120.721519 L4,108.56962 C4,107.050633 4.75949367,106.291139 6.27848101,106.291139 L121.721519,106.291139 C123.240506,106.291139 124,107.050633 124,108.56962 L124,120.721519 C124,122.240506 123.240506,123 121.721519,123 L6.27848101,123 C4.75949367,123 4,122.240506 4,120.721519 Z M14.6329114,42.4936709 L38.1772152,42.4936709 C39.6962025,42.4936709 40.4556962,43.2531646 40.4556962,44.7721519 L40.4556962,98.6962025 C40.4556962,100.21519 39.6962025,100.974684 38.1772152,100.974684 L14.6329114,100.974684 C13.1139241,100.974684 12.3544304,100.21519 12.3544304,98.6962025 L12.3544304,44.7721519 C12.3544304,44.0126582 13.8734177,42.4936709 14.6329114,42.4936709 Z M51.8481013,25.7848101 L75.3924051,25.7848101 C76.9113924,25.7848101 77.6708861,26.5443038 77.6708861,28.0632911 L77.6708861,98.6962025 C77.6708861,100.21519 76.9113924,100.974684 75.3924051,100.974684 L51.8481013,100.974684 C50.3291139,100.974684 49.5696203,100.21519 49.5696203,98.6962025 L49.5696203,28.0632911 C50.3291139,26.5443038 51.0886076,25.7848101 51.8481013,25.7848101 Z M89.8227848,3 L113.367089,3 C114.886076,3 115.64557,3.75949367 115.64557,5.27848101 L115.64557,98.6962025 C115.64557,100.21519 114.886076,100.974684 113.367089,100.974684 L89.8227848,100.974684 C88.3037975,100.974684 87.5443038,100.21519 87.5443038,98.6962025 L87.5443038,5.27848101 C87.5443038,3.75949367 88.3037975,3 89.8227848,3 Z" id="统计管理" fill="#000000" fill-rule="nonzero"></path>
    </g>
</svg>