<?xml version="1.0" encoding="UTF-8"?>
<svg width="128px" height="128px" viewBox="0 0 128 128" version="1.1" xmlns="http://www.w3.org/2000/svg" xmlns:xlink="http://www.w3.org/1999/xlink">
    <!-- Generator: Sketch 49.1 (51147) - http://www.bohemiancoding.com/sketch -->
    <title>activity</title>
    <desc>Created with Sketch.</desc>
    <defs></defs>
    <g id="activity" stroke="none" stroke-width="1" fill="none" fill-rule="evenodd">
        <path d="M66.6197384,77.6953054 C66.9049262,77.7598438 67.2016731,77.7939139 67.5063775,77.7939139 L68.1501457,77.7939139 C70.3592847,77.7939139 72.1501457,76.0030529 72.1501457,73.7939139 L72.1501457,38.5750729 C72.1501457,36.3659339 70.3592847,34.5750729 68.1501457,34.5750729 L67.5063775,34.5750729 C65.2972385,34.5750729 63.5063775,36.3659339 63.5063775,38.5750729 L63.5063775,69.0515371 L40.4946018,69.0515371 C38.2854628,69.0515371 36.4946018,70.8423981 36.4946018,73.0515371 L36.4946018,73.6953054 C36.4946018,75.9044444 38.2854628,77.6953054 40.4946018,77.6953054 L66.6197384,77.6953054 Z M28.1281027,107.072804 C17.9852063,97.6063602 11.6437682,84.1188141 11.6437682,69.1501457 C11.6437682,40.5072175 34.8634493,17.2875364 63.5063775,17.2875364 C92.1493057,17.2875364 115.368987,40.5072175 115.368987,69.1501457 C115.368987,84.0621807 109.075443,97.5042797 98.9996148,106.965184 L112.88412,120.849689 C114.446217,122.411786 114.446217,124.944446 112.88412,126.506543 L112.428907,126.961756 C110.866809,128.523853 108.33415,128.523853 106.772052,126.961756 L92.1814183,112.371122 C83.9678323,117.831358 74.1086325,121.012755 63.5063775,121.012755 C52.961665,121.012755 43.1519639,117.865797 34.9652168,112.459825 L20.4632856,126.961756 C18.9011884,128.523853 16.3685285,128.523853 14.8064313,126.961756 L14.3512184,126.506543 C12.7891213,124.944446 12.7891213,122.411786 14.3512184,120.849689 L28.1281027,107.072804 Z M112.248586,33.5650689 C106.405399,25.5840798 98.6778704,19.1578288 89.6797077,14.8131995 C90.8898352,6.44352584 98.020944,0 106.725219,0 C116.267939,0 124.012755,7.73914095 124.012755,17.2748682 C124.012755,24.8671728 119.06852,31.2502366 112.248586,33.5650689 Z M14.7641685,33.5650689 C7.93559165,31.2502366 3,24.8671728 3,17.2748682 C3,7.73050352 10.7361726,0 20.2875364,0 C28.991811,0 36.1229198,6.45216327 37.3244036,14.8131995 C28.3348846,19.1578288 20.5987121,25.5754424 14.7641685,33.5650689 Z" id="Shape" fill="#000000" fill-rule="nonzero"></path>
    </g>
</svg>