<?xml version="1.0" encoding="UTF-8"?>
<svg width="128px" height="128px" viewBox="0 0 128 128" version="1.1" xmlns="http://www.w3.org/2000/svg" xmlns:xlink="http://www.w3.org/1999/xlink">
    <!-- Generator: Sketch 49.1 (51147) - http://www.bohemiancoding.com/sketch -->
    <title>add-circle-o</title>
    <desc>Created with Sketch.</desc>
    <defs></defs>
    <g id="add-circle-o" stroke="none" stroke-width="1" fill="none" fill-rule="evenodd">
        <path d="M64,0 C29.0133333,0 0,29.0133333 0,64 C0,98.9866667 29.0133333,128 64,128 C98.9866667,128 128,98.9866667 128,64 C128,29.0133333 98.9866667,0 64,0 Z M58,59 L28,59 C25.2385763,59 23,61.2385763 23,64 C23,66.7614237 25.2385763,69 28,69 L58,69 L58,99 C58,101.761424 60.2385763,104 63,104 C65.7614237,104 68,101.761424 68,99 L68,69 L98,69 C100.761424,69 103,66.7614237 103,64 C103,61.2385763 100.761424,59 98,59 L68,59 L68,29 C68,26.2385763 65.7614237,24 63,24 C60.2385763,24 58,26.2385763 58,29 L58,59 Z M64,119.466667 C33.28,119.466667 8.53333333,94.72 8.53333333,64 C8.53333333,33.28 33.28,8.53333333 64,8.53333333 C94.72,8.53333333 119.466667,33.28 119.466667,64 C119.466667,94.72 94.72,119.466667 64,119.466667 Z" id="Combined-Shape" fill="#000000" fill-rule="nonzero"></path>
    </g>
</svg>