<?xml version="1.0" encoding="UTF-8"?>
<svg width="128px" height="128px" viewBox="0 0 128 128" version="1.1" xmlns="http://www.w3.org/2000/svg" xmlns:xlink="http://www.w3.org/1999/xlink">
    <!-- Generator: Sketch 49.1 (51147) - http://www.bohemiancoding.com/sketch -->
    <title>add</title>
    <desc>Created with Sketch.</desc>
    <defs></defs>
    <g id="add" stroke="none" stroke-width="1" fill="none" fill-rule="evenodd">
        <path d="M55.0743802,55.5743802 L55.0743802,13.4256198 C55.0743802,8.49613612 59.0705163,4.5 64,4.5 C68.9294837,4.5 72.9256198,8.49613612 72.9256198,13.4256198 L72.9256198,55.5743802 L115.07438,55.5743802 C120.003864,55.5743802 124,59.5705163 124,64.5 C124,69.4294837 120.003864,73.4256198 115.07438,73.4256198 L72.9256198,73.4256198 L72.9256198,115.57438 C72.9256198,120.503864 68.9294837,124.5 64,124.5 C59.0705163,124.5 55.0743802,120.503864 55.0743802,115.57438 L55.0743802,73.4256198 L12.9256198,73.4256198 C7.99613612,73.4256198 4,69.4294837 4,64.5 C4,59.5705163 7.99613612,55.5743802 12.9256198,55.5743802 L55.0743802,55.5743802 Z" id="Combined-Shape" fill="#000000"></path>
    </g>
</svg>