<?xml version="1.0" encoding="UTF-8"?>
<svg width="128px" height="128px" viewBox="0 0 128 128" version="1.1" xmlns="http://www.w3.org/2000/svg" xmlns:xlink="http://www.w3.org/1999/xlink">
    <!-- Generator: Sketch 49.1 (51147) - http://www.bohemiancoding.com/sketch -->
    <title>alert</title>
    <desc>Created with Sketch.</desc>
    <defs></defs>
    <g id="alert" stroke="none" stroke-width="1" fill="none" fill-rule="evenodd">
        <path d="M81.26875,110.923438 C81.2515625,120.357813 73.68125,128 64.2015625,128 C54.7859375,128 47.1515625,120.389063 47.134375,110.923438 L81.26875,110.923438 Z M75.5796875,11.378125 C75.5796875,5.10625 70.484375,0 64.2015625,0 C57.93125,0 52.8234375,5.09375 52.8234375,11.378125 C52.8234375,12.01875 52.8765625,12.646875 52.978125,13.2578125 C37.2671875,18.734375 24.378125,35.55 24.378125,55.446875 L24.378125,71.1109375 C24.378125,71.1109375 24.378125,93.6703125 18.8359375,93.8671875 C15.53125,93.8671875 13,96.4140625 13,99.55625 C13,102.720312 15.546875,105.245312 18.6875,105.245312 L64.2015625,105.245312 L104.023438,105.245312 L109.7125,105.245312 C112.86875,105.245312 115.4,102.698438 115.4,99.55625 C115.4,96.3921875 112.853125,93.8671875 109.7125,93.8671875 C104.023438,93.8671875 104.023438,71.2703125 104.023438,71.2703125 L104.023438,55.4484375 C104.023438,35.5265625 91.971875,18.703125 75.4265625,13.24375 C75.5265625,12.6359375 75.5796875,12.0125 75.5796875,11.378125 Z" id="Shape" fill="#000000" fill-rule="nonzero"></path>
    </g>
</svg>