<?xml version="1.0" encoding="UTF-8"?>
<svg width="128px" height="128px" viewBox="0 0 128 128" version="1.1" xmlns="http://www.w3.org/2000/svg" xmlns:xlink="http://www.w3.org/1999/xlink">
    <!-- Generator: Sketch 49.1 (51147) - http://www.bohemiancoding.com/sketch -->
    <title>android</title>
    <desc>Created with Sketch.</desc>
    <defs></defs>
    <g id="android" stroke="none" stroke-width="1" fill="none" fill-rule="evenodd">
        <path d="M33.7518799,39.4717915 L29.5225689,39.4717915 L29.5225689,68.0476406 L29.5865685,68.0476406 L29.5865685,98.0208157 C29.5865685,100.314137 31.4532253,102.170127 33.7465466,102.170127 L42.6371663,102.170127 L42.6371663,120.612696 C42.6424996,124.692675 45.9544821,127.999324 50.0451272,127.999324 C54.1357722,127.999324 57.4477547,124.692675 57.4477547,120.61803 L57.4477547,102.17546 L71.2183487,102.17546 L71.2183487,120.61803 C71.2183487,124.698008 74.5356645,127.999324 78.6209763,127.999324 C82.7116213,127.999324 86.0236038,124.692675 86.0236038,120.61803 L86.0236038,102.17546 L94.9142235,102.17546 C97.2128781,102.17546 99.0742016,100.31947 99.0742016,98.026149 L99.0742016,68.0529739 L99.1435345,68.0529739 L99.1435345,39.4717915 L94.9142235,39.4717915 L33.7518799,39.4717915 Z M110.258143,37.1091374 C106.167497,37.1091374 102.855515,40.4157866 102.855515,44.4904317 L102.855515,77.6689232 C102.855515,81.7489016 106.167497,85.0502175 110.258143,85.0502175 C114.348788,85.0502175 117.66077,81.7435683 117.66077,77.6689232 L117.66077,44.4904317 C117.66077,40.4157866 114.348788,37.1091374 110.258143,37.1091374 Z M18.4079609,37.1091374 C14.3173158,37.1091374 11.0053333,40.4157866 11.0053333,44.4904317 L11.0053333,77.6689232 C11.0053333,81.7489016 14.3226491,85.0502175 18.4079609,85.0502175 C22.498606,85.0502175 25.8105885,81.7435683 25.8105885,77.6689232 L25.8105885,44.4904317 C25.8105885,40.4157866 22.498606,37.1091374 18.4079609,37.1091374 Z M81.0902965,9.40261701 L87.0742649,0.981328147 C87.196931,0.805329077 87.0209319,0.469330851 86.6796004,0.229332119 C86.3382688,-0.0106666139 85.9596042,-0.0693329708 85.8369381,0.1066661 L79.682304,8.76795369 C75.5276593,7.13596231 70.4876859,6.12263433 64.3330517,6.10130111 C58.1464177,6.08530119 53.0851111,7.07196265 48.9197998,8.6719542 L42.8291653,0.101332795 C42.7011659,-0.0746662759 42.3278346,-0.0159999191 41.9865031,0.223998813 C41.6451715,0.469330851 41.4638391,0.805329077 41.5865052,0.975994842 L47.5011406,9.2959509 C30.3598978,16.8639109 29.8105674,35.3811465 29.8105674,35.3811465 L98.8502305,35.3811465 C98.8555361,35.3811465 98.1088733,17.0292434 81.0902965,9.40261701 Z M49.1811317,24.5278705 C46.8878105,24.5278705 45.026487,22.6718803 45.026487,20.3838923 C45.026487,18.0959044 46.8878105,16.2399142 49.1811317,16.2399142 C51.4744529,16.2399142 53.3357764,18.0959044 53.3357764,20.3838923 C53.3357764,22.6718803 51.4744529,24.5278705 49.1811317,24.5278705 Z M79.4849717,24.5278705 C77.1916505,24.5278705 75.330327,22.6718803 75.330327,20.3838923 C75.330327,18.0959044 77.1916505,16.2399142 79.4849717,16.2399142 C81.7782929,16.2399142 83.6396164,18.0959044 83.6396164,20.3838923 C83.6396164,22.6718803 81.7782929,24.5278705 79.4849717,24.5278705 Z" id="Shape" fill="#000000" fill-rule="nonzero"></path>
    </g>
</svg>