<?xml version="1.0" encoding="UTF-8"?>
<svg width="128px" height="128px" viewBox="0 0 128 128" version="1.1" xmlns="http://www.w3.org/2000/svg" xmlns:xlink="http://www.w3.org/1999/xlink">
    <!-- Generator: Sketch 49.1 (51147) - http://www.bohemiancoding.com/sketch -->
    <title>apply-reimburse</title>
    <desc>Created with Sketch.</desc>
    <defs></defs>
    <g id="apply-reimburse" stroke="none" stroke-width="1" fill="none" fill-rule="evenodd">
        <path d="M87,54 C67.2,54 51,70.2 51,90 C51,109.8 67.2,126 87,126 C106.8,126 123,109.8 123,90 C123,70.2 106.8,54 87,54 Z M87,120 C70.4,120 57,106.6 57,90 C57,73.4 70.4,60 87,60 C103.6,60 117,73.4 117,90 C117,106.6 103.6,120 87,120 Z M95,70 L88,84 L81,70 L73,70 L83.8,88 L75,88 L75,94 L85,94 L85,98 L75,98 L75,104 L85,104 L85,112 L91,112 L91,104 L101,104 L101,98 L91,98 L91,94 L101,94 L101,88 L92.2,88 L103,70 L95,70 Z M81,35 C81,36.6 79.6,38 78,38 L30,38 C28.4,38 27,36.6 27,35 C27,33.4 28.4,32 30,32 L78,32 C79.6,32 81,33.4 81,35 Z M57,55 C57,56.6 55.6,58 54,58 L30,58 C28.4,58 27,56.6 27,55 C27,53.4 28.4,52 30,52 L54,52 C55.6,52 57,53.4 57,55 Z M30,72 L42,72 C43.6,72 45,73.4 45,75 C45,76.6 43.6,78 42,78 L30,78 C28.4,78 27,76.6 27,75 C27,73.4 28.4,72 30,72 Z M48,112 C49.6,112 51,113.4 51,115 C51,116.6 49.6,118 48,118 C47.6,118 47.4,118 47,117.8 L47,118 L22.6,118 C16.2,118 11,112.6 11,106 L11,18 C11,11.4 16.2,6 22.6,6 L91.4,6 C97.8,6 103,11.4 103,18 L103,46 C102.6,47.2 101.4,48 100.2,48 C99,48 97.8,47.2 97.4,46 L97.2,46 L97.2,18 C97.2,14.6 94.6,12 91.6,12 L22.6,12 C19.6,12 17,14.6 17,18 L17,106 C17,109.4 19.6,112 22.6,112 L47,112 L47,112.2 C47.4,112 47.6,112 48,112 Z" id="Combined-Shape" fill="#000000" fill-rule="nonzero"></path>
    </g>
</svg>