<?xml version="1.0" encoding="UTF-8"?>
<svg width="128px" height="128px" viewBox="0 0 128 128" version="1.1" xmlns="http://www.w3.org/2000/svg" xmlns:xlink="http://www.w3.org/1999/xlink">
    <!-- Generator: Sketch 49.1 (51147) - http://www.bohemiancoding.com/sketch -->
    <title>apply-proxy-exception</title>
    <desc>Created with Sketch.</desc>
    <defs></defs>
    <g id="apply-proxy-exception" stroke="none" stroke-width="1" fill="none" fill-rule="evenodd">
        <path d="M41.6462305,115.945196 C39.493455,115.945196 37.7482856,114.200027 37.7482856,112.047251 C37.7482856,109.894476 39.493455,108.149307 41.6462305,108.149307 C43.799006,108.149307 45.5441754,109.894476 45.5441754,112.047251 C45.5441754,114.200027 43.799006,115.945196 41.6462305,115.945196 Z M41.6462305,74.8002227 C44.8945179,74.8002227 47.4931478,77.3988526 47.4931478,80.64714 C47.4931478,83.8954274 44.8945179,105.550677 41.6462305,105.550677 C38.3979431,105.550677 35.7993132,83.8954274 35.7993132,80.64714 C35.7993132,77.3988526 38.3979431,74.8002227 41.6462305,74.8002227 Z M127.834122,86.0609523 C128.700332,95.8058145 125.452045,101.003074 115.707183,102.952047 C113.974763,103.168599 112.458895,102.085837 112.242343,100.353417 C112.02579,98.6209969 113.108553,97.1051294 114.840973,96.8885769 C120.904443,96.022367 122.203758,93.856842 121.5541,86.9271623 C120.904443,80.214035 116.573393,72.2015928 110.509923,67.2208855 C106.611978,70.2526204 101.631271,72.2015928 96.2174585,72.2015928 C90.8036462,72.2015928 85.8229389,70.2526204 81.924994,67.2208855 C79.7594691,68.9533054 77.8104967,71.1188304 76.0780767,73.7174603 C79.9760216,79.78093 82.358099,86.2775048 82.791204,92.3409746 C83.8739665,104.684467 79.9760216,111.397594 67.4159771,113.130014 C65.6835571,113.346566 64.1676897,112.263804 63.9511372,110.531384 C63.7345847,108.798964 64.8173472,107.283097 66.5497671,107.066544 C75.4284193,105.767229 77.5939442,102.302389 76.7277342,92.7740796 C76.2946292,87.3602673 73.9125518,81.2967975 70.4477119,75.8829852 C70.014607,75.6664327 69.7980545,75.2333277 69.581502,74.8002227 C66.9828721,70.9022779 63.5180322,67.437438 59.8366398,64.6222556 C54.8559325,68.7367529 48.3593578,71.3353829 41.429678,71.3353829 C34.4999983,71.3353829 28.0034235,68.7367529 23.0227162,64.6222556 C13.9275115,71.3353829 7.43093673,83.0292174 6.34817427,92.7740796 C5.26541181,103.385152 6.99783175,106.633439 17.1757989,107.283097 C18.9082188,107.283097 20.2075338,108.798964 19.9909813,110.531384 C19.7744288,112.263804 18.4751138,113.563119 16.7426939,113.346566 C2.45022941,112.263804 -1.23116295,105.767229 0.284704492,92.1244221 C1.58401944,80.8636925 8.73025169,68.0870955 18.9082188,60.2912058 C14.7937215,55.0939459 12.4116441,48.5973712 12.4116441,41.6676914 C12.4116441,25.209702 25.4047936,12 41.6462305,12 C57.8876674,12 70.8808169,25.4262545 70.8808169,41.6676914 C70.8808169,48.5973712 68.4987395,55.0939459 64.3842422,60.0746533 C67.4159771,62.2401782 70.2311595,65.0553606 72.6132369,68.0870955 C74.3456568,66.138123 76.0780767,64.1891506 78.0270492,62.4567307 C74.9953143,58.5587858 73.2628943,53.5780785 73.2628943,48.1642662 C73.2628943,34.9545642 83.657414,24.3434921 96.434011,24.3434921 C109.210608,24.3434921 119.605128,34.9545642 119.605128,48.1642662 C119.605128,53.5780785 117.872708,58.5587858 115.057525,62.4567307 C122.203758,68.5202005 127.184465,77.8319576 127.834122,86.0609523 Z M18.4751138,41.6676914 C18.4751138,54.660841 28.8696335,65.0553606 41.6462305,65.0553606 C54.4228275,65.0553606 64.8173472,54.660841 64.8173472,41.6676914 C64.8173472,28.8910944 54.4228275,18.2800223 41.6462305,18.2800223 C28.8696335,18.2800223 18.4751138,28.6745419 18.4751138,41.6676914 Z M84.9567289,61.1574157 C87.9884638,63.9725981 92.1029612,65.7050181 96.434011,65.7050181 C100.981613,65.7050181 105.096111,63.9725981 108.344398,60.9408632 C108.560951,60.7243107 108.560951,60.7243107 108.777503,60.5077582 C111.592685,57.2594709 113.541658,52.928421 113.541658,48.1642662 C113.541658,38.419404 105.962321,30.4069618 96.434011,30.4069618 C86.9057014,30.4069618 79.3263641,38.419404 79.3263641,48.1642662 C79.3263641,52.928421 81.2753366,57.0429184 84.090519,60.2912058 C84.3070714,60.5077582 84.7401764,60.7243107 84.9567289,61.1574157 Z" id="Combined-Shape" fill="#000000" fill-rule="nonzero"></path>
    </g>
</svg>