<?xml version="1.0" encoding="UTF-8"?>
<svg width="128px" height="128px" viewBox="0 0 128 128" version="1.1" xmlns="http://www.w3.org/2000/svg" xmlns:xlink="http://www.w3.org/1999/xlink">
    <!-- Generator: Sketch 49.1 (51147) - http://www.bohemiancoding.com/sketch -->
    <title>apply-overtime</title>
    <desc>Created with Sketch.</desc>
    <defs></defs>
    <g id="apply-overtime" stroke="none" stroke-width="1" fill="none" fill-rule="evenodd">
        <path d="M65.1428571,15.3714286 C36.8,15.3714286 13.9428571,38.6857143 13.9428571,67.2571429 C13.9428571,82.8 20.8,96.9714286 31.5428571,106.342857 L20.5714286,117.314286 C19.4285714,118.457143 19.4285714,120.514286 20.5714286,121.657143 C21.7142857,122.8 23.7714286,122.8 24.9142857,121.657143 L36.3428571,110.228571 C44.5714286,115.942857 54.4,119.142857 65.1428571,119.142857 C77.0285714,119.142857 88,115.028571 96.6857143,108.171429 L109.942857,121.428571 C111.085714,122.571429 113.142857,122.571429 114.285714,121.428571 C115.428571,120.285714 115.428571,118.228571 114.285714,117.085714 L101.257143,104.057143 C110.628571,94.6857143 116.342857,81.6571429 116.342857,67.2571429 C116.342857,38.4571429 93.4857143,15.3714286 65.1428571,15.3714286 Z M65.1428571,112.971429 C40.2285714,112.971429 20.1142857,92.4 20.1142857,67.2571429 C20.1142857,42.1142857 40.2285714,21.5428571 65.1428571,21.5428571 C90.0571429,21.5428571 110.171429,42.1142857 110.171429,67.2571429 C110.171429,92.4 90.0571429,112.971429 65.1428571,112.971429 Z M70.8571429,58.1142857 L70.8571429,27.7142857 C70.8571429,25.8857143 69.4857143,24.5142857 67.6571429,24.5142857 C65.8285714,24.5142857 64.4571429,25.8857143 64.4571429,27.7142857 L64.4571429,58.1142857 C60.3428571,59.2571429 57.1428571,62.6857143 56.4571429,67.0285714 L35.6571429,67.0285714 C34.0571429,67.0285714 32.4571429,68.4 32.4571429,70.2285714 C32.4571429,72.0571429 33.8285714,73.4285714 35.6571429,73.4285714 L57.1428571,73.4285714 C58.7428571,77.7714286 62.8571429,80.7428571 67.6571429,80.7428571 C73.8285714,80.7428571 79.0857143,75.7142857 79.0857143,69.3142857 C79.0857143,64.0571429 75.6571429,59.4857143 70.8571429,58.1142857 Z M67.6571429,74.3428571 C64.9142857,74.3428571 62.4,72.0571429 62.4,69.0857143 C62.4,66.1142857 64.6857143,63.8285714 67.6571429,63.8285714 C70.4,63.8285714 72.9142857,66.1142857 72.9142857,69.0857143 C72.9142857,72.0571429 70.6285714,74.3428571 67.6571429,74.3428571 Z M106.285714,6 C118.4,6 128,15.8285714 128,27.9428571 C128,35.0285714 124.571429,41.4285714 119.085714,45.5428571 L115.885714,47.8285714 L114.514286,44.1714286 C110.4,32.7428571 102.4,23.1428571 91.8857143,16.9714286 L88.4571429,14.9142857 L91.2,12.1714286 C95.3142857,8.28571429 100.571429,6 106.285714,6 Z M118.4,38 C120.685714,35.2571429 122.057143,31.6 122.057143,27.7142857 C122.057143,19.0285714 114.971429,11.9428571 106.285714,11.9428571 C103.542857,11.9428571 100.8,12.6285714 98.5142857,14 C107.2,20.1714286 114.057143,28.4 118.4,38 Z M36.1142857,16.9714286 C25.6,23.1428571 17.6,32.7428571 13.4857143,44.1714286 L12.1142857,47.8285714 L8.91428571,45.5428571 C3.42857143,41.4285714 8.52651283e-14,35.0285714 8.52651283e-14,27.9428571 C8.52651283e-14,15.8285714 9.82857143,6 21.7142857,6 C27.4285714,6 32.6857143,8.28571429 36.8,12.1714286 L39.5428571,14.9142857 L36.1142857,16.9714286 Z M9.6,38 C13.9428571,28.4 20.8,20.1714286 29.4857143,14.2285714 C27.2,12.8571429 24.4571429,12.1714286 21.7142857,12.1714286 C13.0285714,12.1714286 5.94285714,19.2571429 5.94285714,27.9428571 C5.94285714,31.6 7.31428571,35.2571429 9.6,38 Z" id="Combined-Shape" fill="#000000" fill-rule="nonzero"></path>
    </g>
</svg>