<?xml version="1.0" encoding="UTF-8"?>
<svg width="128px" height="128px" viewBox="0 0 128 128" version="1.1" xmlns="http://www.w3.org/2000/svg" xmlns:xlink="http://www.w3.org/1999/xlink">
    <!-- Generator: Sketch 49.1 (51147) - http://www.bohemiancoding.com/sketch -->
    <title>apple</title>
    <desc>Created with Sketch.</desc>
    <defs></defs>
    <g id="apple" stroke="none" stroke-width="1" fill="none" fill-rule="evenodd">
        <path d="M117.490667,91.2746667 L117.490667,90.4 C107.122667,84.8053333 101.501333,76.5866667 101.501333,64.6933333 C101.501333,55.0773333 105.72,46.6826667 113.453333,41.2586667 L113.805333,41.0826667 C108.712,34.7893333 101.858667,28.4906667 91.3146667,28.4906667 C83.9333333,28.4906667 77.784,35.6586667 67.592,35.6586667 C59.5066667,35.6586667 56.168,28.8373333 47.384,28.8373333 C29.1013333,28.848 11,45.1093333 11,66.2666667 C11,77.4613333 14.6906667,94.7733333 22.952,109.808 C28.9253333,120.826667 36.3066667,128 44.5626667,128 C50.536,128 57.5653333,122.576 66.0026667,122.576 C73.384,122.576 80.2373333,127.472 86.9146667,127.472 C102.904,127.472 117.666667,106.837333 117.666667,93.024 C117.666667,92.3253333 117.490667,91.8026667 117.490667,91.2746667 Z M67.2186667,33.4026667 C79.1653333,29.7333333 90.2373333,20.8106667 90.2373333,5.248 C90.2373333,4.02666667 90.0613333,2.448 89.8853333,0.704 L89.7146667,0 C77.592,3.32266667 66.696,12.768 66.696,27.632 C66.696,29.0293333 66.872,30.7786667 67.224,32.704 L67.224,33.4026667 L67.2186667,33.4026667 Z" id="Shape" fill="#000000" fill-rule="nonzero"></path>
    </g>
</svg>