<?xml version="1.0" encoding="UTF-8"?>
<svg width="128px" height="128px" viewBox="0 0 128 128" version="1.1" xmlns="http://www.w3.org/2000/svg" xmlns:xlink="http://www.w3.org/1999/xlink">
    <!-- Generator: Sketch 49.1 (51147) - http://www.bohemiancoding.com/sketch -->
    <title>apply-exception</title>
    <desc>Created with Sketch.</desc>
    <defs></defs>
    <g id="apply-exception" stroke="none" stroke-width="1" fill="none" fill-rule="evenodd">
        <path d="M116.386667,99.1333333 C115.106667,85.0533333 105.293333,68.4133333 91.64,59.0266667 C96.76,52.84 99.96,44.9466667 99.96,36.4133333 C99.96,16.7866667 83.96,1 64.3333333,1 C44.7066667,1 28.7066667,16.7866667 28.7066667,36.4133333 C28.7066667,45.16 31.9066667,53.0533333 37.24,59.24 C23.5866667,68.6266667 14.2,85.0533333 12.4933333,99.1333333 C10.5733333,115.773333 15.0533333,123.453333 32.76,124.733333 C34.4666667,124.946667 35.96,123.666667 35.96,121.96 C36.1733333,120.253333 34.8933333,118.76 33.1866667,118.76 C19.7466667,117.693333 17.1866667,113.64 18.68,99.9866667 C20.1733333,87.1866667 29.1333333,72.04 41.72,63.72 C47.9066667,68.84 55.8,71.8266667 64.5466667,71.8266667 C73.2933333,71.8266667 81.1866667,68.6266667 87.5866667,63.5066667 C100.173333,71.8266667 109.346667,87.1866667 110.626667,99.7733333 C111.693333,112.146667 108.92,116.626667 96.9733333,118.333333 C95.2666667,118.546667 94.2,120.04 94.4133333,121.746667 C94.6266667,123.453333 96.12,124.52 97.8266667,124.306667 C112.973333,122.173333 117.88,114.493333 116.386667,99.1333333 Z M64.3333333,65.64 C48.12,65.64 34.8933333,52.6266667 34.8933333,36.4133333 C34.8933333,20.2 48.12,7.18666667 64.3333333,7.18666667 C80.5466667,7.18666667 93.7733333,20.2 93.7733333,36.4133333 C93.7733333,52.4133333 80.5466667,65.64 64.3333333,65.64 Z M64.3333333,129 C61.6234562,129 59.4266667,126.803211 59.4266667,124.093333 C59.4266667,121.383456 61.6234562,119.186667 64.3333333,119.186667 C67.0432105,119.186667 69.24,121.383456 69.24,124.093333 C69.24,126.803211 67.0432105,129 64.3333333,129 Z M64.3333333,77.8 C68.3866667,77.8 71.8,81 71.8,85.0533333 C71.8,89.1066667 68.3866667,116.2 64.3333333,116.2 C60.28,116.2 56.8666667,89.1066667 56.8666667,85.0533333 C56.8666667,81 60.28,77.8 64.3333333,77.8 Z" id="Combined-Shape" fill="#000000" fill-rule="nonzero"></path>
    </g>
</svg>