<?xml version="1.0" encoding="UTF-8"?>
<svg width="128px" height="128px" viewBox="0 0 128 128" version="1.1" xmlns="http://www.w3.org/2000/svg" xmlns:xlink="http://www.w3.org/1999/xlink">
    <!-- Generator: Sketch 49.1 (51147) - http://www.bohemiancoding.com/sketch -->
    <title>apply-business-trip</title>
    <desc>Created with Sketch.</desc>
    <defs></defs>
    <g id="apply-business-trip" stroke="none" stroke-width="1" fill="none" fill-rule="evenodd">
        <path d="M125.14809,16.1557603 C125.14809,12.0796171 123.002627,9.50521087 121.929896,8.21800777 C119.784433,6.07266926 117.424424,5 114.420776,5 C109.271666,5 102.835278,8.43254162 96.8279822,14.6540233 L76.6606329,34.8202053 L15.7294927,23.0208435 L7.14764192,31.8167314 C4.14399416,35.0347392 5.00217923,38.6818146 9.07855833,40.1835516 L56.2787374,57.5607935 L35.4677494,80.5159156 L9.93674341,75.7961709 L7.14764192,78.5851109 C4.14399416,81.8031187 4.57308669,86.3083296 8.22037326,88.6682019 L29.2459076,102.827436 L40.6168598,121.277347 C42.9768688,124.924423 47.2677941,125.568024 50.4859882,122.350017 L53.2750897,119.561077 L49.8423494,95.3187513 L71.940615,74.5089678 L88.675224,121.277347 C90.1770479,125.35349 93.8243344,126.211626 97.0425285,123.208152 L105.838925,114.412264 L95.3261583,54.3427858 L115.708054,33.9620699 C122.144442,27.3115205 125.362636,21.5191065 125.14809,16.1557603 Z M91.0352329,50.0521087 L88.8897703,52.1974472 L99.4025374,112.266926 L93.8243344,117.844806 L74.5151703,63.9968091 L43.4059613,93.3879467 L46.8387016,117.630272 L46.1950628,118.273873 C45.7659703,118.702941 45.9805165,118.702941 45.7659703,118.273873 L33.7513792,98.7512929 L11.6531136,83.7339234 C11.0094748,83.3048557 11.0094748,83.0903218 11.4385673,82.6612541 L11.8676598,82.2321864 L37.3986658,87.166465 L66.3624121,54.9863873 L12.0822061,34.8202053 L17.6604091,29.2423252 L78.3770031,41.041687 L100.904361,18.5156326 C106.053472,13.3668202 110.988036,10.5778801 114.420776,10.5778801 C115.708054,10.5778801 116.780785,11.0069478 117.63897,11.8650832 C118.497155,12.7232186 119.140794,14.0104217 119.140794,15.7266926 C119.140794,19.1592342 116.780785,23.8789789 111.417128,29.2423252 L91.0352329,50.0521087 Z" id="Shape" fill="#000000" fill-rule="nonzero"></path>
    </g>
</svg>