<?xml version="1.0" encoding="UTF-8"?>
<svg width="128px" height="128px" viewBox="0 0 128 128" version="1.1" xmlns="http://www.w3.org/2000/svg" xmlns:xlink="http://www.w3.org/1999/xlink">
    <!-- Generator: Sketch 49.1 (51147) - http://www.bohemiancoding.com/sketch -->
    <title>apply-leave</title>
    <desc>Created with Sketch.</desc>
    <defs></defs>
    <g id="apply-leave" stroke="none" stroke-width="1" fill="none" fill-rule="evenodd">
        <path d="M41.8718861,53.9150325 C40.3523132,53.9150325 38.8327402,52.6125414 38.8327402,50.8758866 C38.8327402,49.1392318 40.1352313,47.8367407 41.8718861,47.8367407 L88.1103203,47.8367407 C89.8469751,47.8367407 91.1494662,49.1392318 91.1494662,50.8758866 C91.1494662,52.6125414 89.8469751,53.9150325 88.1103203,53.9150325 L41.8718861,53.9150325 Z M49.9039146,28.0822923 C48.3843416,28.0822923 47.0818505,26.7798012 46.8647687,25.0431464 L46.8647687,7.0253528 C46.8647687,5.288698 48.1672598,3.9862069 49.9039146,3.9862069 C51.6405694,3.9862069 52.9430605,5.288698 52.9430605,7.0253528 L52.9430605,25.0431464 C52.9430605,26.7798012 51.6405694,28.0822923 49.9039146,28.0822923 Z M80.0782918,28.2993742 C78.5587189,28.2993742 77.0391459,26.7798012 77.0391459,25.2602282 L77.0391459,7.24243465 C77.0391459,5.50577985 78.341637,4.20328875 80.0782918,4.20328875 C81.8149466,4.20328875 83.1174377,5.50577985 83.1174377,7.24243465 L83.1174377,25.2602282 C83.1174377,26.9968831 81.8149466,28.2993742 80.0782918,28.2993742 Z M41.8718861,73.8865628 C40.3523132,73.8865628 38.8327402,72.5840717 38.8327402,70.8474169 C38.8327402,69.1107621 40.1352313,67.808271 41.8718861,67.808271 L88.1103203,67.808271 C89.8469751,67.808271 91.1494662,69.1107621 91.1494662,70.8474169 C91.1494662,72.5840717 89.8469751,73.8865628 88.1103203,73.8865628 L41.8718861,73.8865628 Z M41.8718861,93.858093 C40.3523132,93.858093 38.8327402,92.5556019 38.8327402,90.8189471 C38.8327402,89.0822923 40.1352313,87.7798012 41.8718861,87.7798012 L88.1103203,87.7798012 C89.8469751,87.7798012 91.1494662,89.0822923 91.1494662,90.8189471 C91.1494662,92.5556019 89.8469751,93.858093 88.1103203,93.858093 L41.8718861,93.858093 Z M117.199288,25.2602282 L117.199288,114.915033 C117.199288,120.993324 112.206406,125.769125 106.128114,125.769125 L24.0711744,125.986207 C17.9928826,125.769125 13,120.993324 13,114.915033 L13,25.4773101 C13,19.3990183 17.9928826,14.4061357 24.0711744,14.6232176 L32.9715302,14.8402994 C34.7081851,14.8402994 36.0106762,16.1427905 36.0106762,17.8794453 C36.0106762,19.3990183 34.7081851,20.7015094 32.9715302,20.7015094 L24.0711744,20.4844275 C21.2491103,20.4844275 19.0782918,22.4381642 19.0782918,25.2602282 L19.0782918,114.697951 C19.0782918,117.520015 21.2491103,119.690833 24.0711744,119.690833 L106.128114,119.907915 C108.950178,119.907915 111.120996,117.737097 111.120996,114.915033 L111.120996,25.4773101 C111.120996,22.655246 108.950178,20.4844275 106.128114,20.4844275 L97.0106762,20.4844275 C95.2740214,20.4844275 93.9715302,19.1819364 93.9715302,17.4452816 C93.9715302,15.7086268 95.2740214,14.4061357 97.0106762,14.4061357 L106.128114,14.4061357 C112.206406,14.4061357 117.199288,19.1819364 117.199288,25.2602282 Z" id="Combined-Shape" fill="#000000" fill-rule="nonzero"></path>
    </g>
</svg>