<?xml version="1.0" encoding="UTF-8"?>
<svg width="128px" height="128px" viewBox="0 0 128 128" version="1.1" xmlns="http://www.w3.org/2000/svg" xmlns:xlink="http://www.w3.org/1999/xlink">
    <!-- Generator: Sketch 49.1 (51147) - http://www.bohemiancoding.com/sketch -->
    <title>apply-batch-leave</title>
    <desc>Created with Sketch.</desc>
    <defs></defs>
    <g id="apply-batch-leave" stroke="none" stroke-width="1" fill="none" fill-rule="evenodd">
        <path d="M85.8108108,79 C84.0810811,79 83,77.6153846 83,76 C83,74.3846154 84.2972973,73 85.8108108,73 L112.189189,73 C113.702703,73 115,74.3846154 115,76 C115,77.6153846 113.702703,79 112.189189,79 L85.8108108,79 Z M52,32 C50.3846154,32 49,30.8888889 49,29.1111111 L49,14.8888889 C49,13.3333333 50.3846154,12 52,12 C53.6153846,12 55,13.3333333 55,14.8888889 L55,29.1111111 C55,30.6666667 53.6153846,32 52,32 Z M85.8323,68 C84.1038437,68 82.8075015,66.6153846 83.0235585,65 C83.0235585,63.3846154 84.3199008,62 85.8323,62 L112.191259,62 C113.703658,62 115,63.3846154 115,65 C115,66.6153846 113.703658,68 112.191259,68 L85.8323,68 Z M88,36 C86.3846154,36 85,34.6229508 85,33.0163934 L85,24.9836066 C85,23.3770492 86.3846154,22 88,22 C89.6153846,22 91,23.3770492 91,24.9836066 L91,33.0163934 C91,34.6229508 89.6153846,36 88,36 Z M85.8108108,56 C84.2972973,56 83,54.8461538 83,53 C83,51.3846154 84.2972973,50 85.8108108,50 L112.189189,50 C113.702703,50 115,51.3846154 115,53 C115,54.6153846 113.702703,56 112.189189,56 L85.8108108,56 Z M105,36 C103.384615,36 102,34.852459 102,33.0163934 L102,24.9836066 C102,23.3770492 103.384615,22 105,22 C106.615385,22 108,23.3770492 108,24.9836066 L108,33.0163934 C108,34.6229508 106.615385,36 105,36 Z M128,36.8674026 L128,95.4085428 C128,100.539639 123.946667,104.97104 119.04,104.97104 L79.36,104.737808 C78.9333333,110.568599 74.4533333,115 69.12,115 L10.24,115 C4.69333333,115 0,110.102136 0,103.804882 L0,31.9695383 C0,25.9055158 4.69333333,20.7744199 10.4533333,21.0076515 L15.5733333,21.2408832 C17.0666667,21.2408832 18.56,22.640273 18.3466667,24.2728944 C18.1333333,25.9055158 16.8533333,27.3049056 15.36,27.3049056 L10.24,27.071674 C7.68,27.071674 5.54666667,29.1707587 5.54666667,31.9695383 L5.54666667,103.804882 C5.54666667,106.603661 7.68,108.935978 10.24,108.935978 L68.9066667,109.169209 C71.4666667,109.169209 73.6,106.836893 73.6,104.038113 L73.6,32.20277 C73.6,29.4039904 71.4666667,27.071674 68.9066667,27.071674 L63.5733333,27.071674 C62.08,27.071674 60.8,25.6722842 60.8,24.0396628 C60.8,22.4070413 62.08,21.0076515 63.5733333,21.0076515 L68.9066667,21.0076515 C74.6666667,21.0076515 79.36,25.9055158 79.36,32.20277 L79.36,98.6737856 L119.04,98.440554 C120.746667,98.440554 122.24,96.8079326 122.24,94.9420795 L122.24,36.634171 C122.24,34.7683179 120.746667,33.1356965 119.04,33.1356965 L113.706667,33.1356965 C112.213333,33.1356965 110.933333,31.7363067 110.933333,30.1036853 C110.933333,28.4710638 112.213333,27.071674 113.706667,27.071674 L119.04,27.071674 C123.946667,27.071674 128,31.5030751 128,36.8674026 Z M28,32 C26.3846154,32 25,30.6666667 25,29.1111111 L25,14.8888889 C25,13.3333333 26.3846154,12 28,12 C29.6153846,12 31,13.3333333 31,14.8888889 L31,29.1111111 C31,30.6666667 29.6153846,32 28,32 Z M21.7513228,85 C20.2698413,85 19,83.6153846 19,82 C19,80.3846154 20.2698413,79 21.7513228,79 L56.2486772,79 C57.7301587,79 59,80.3846154 59,82 C59,83.6153846 57.7301587,85 56.2486772,85 L21.7513228,85 Z M21.7513228,54 C20.2698413,54 19,52.6153846 19,51 C19,49.3846154 20.2698413,48 21.7513228,48 L56.2486772,48 C57.7301587,48 59,49.3846154 59,51 C59,52.6153846 57.7301587,54 56.2486772,54 L21.7513228,54 Z M21.7513228,69 C20.2698413,69 19,67.6153846 19,66 C19,64.3846154 20.2698413,63 21.7513228,63 L56.2486772,63 C57.7301587,63 59,64.3846154 59,66 C59,67.6153846 57.7301587,69 56.2486772,69 L21.7513228,69 Z" id="Combined-Shape" fill="#000000" fill-rule="nonzero"></path>
    </g>
</svg>