<?xml version="1.0" encoding="UTF-8"?>
<svg width="128px" height="128px" viewBox="0 0 128 128" version="1.1" xmlns="http://www.w3.org/2000/svg" xmlns:xlink="http://www.w3.org/1999/xlink">
    <!-- Generator: Sketch 49.1 (51147) - http://www.bohemiancoding.com/sketch -->
    <title>apply-resign</title>
    <desc>Created with Sketch.</desc>
    <defs></defs>
    <g id="apply-resign" stroke="none" stroke-width="1" fill="none" fill-rule="evenodd">
        <path d="M79.6732157,96.684851 C80.7474918,97.7591272 80.7474918,99.6928242 79.6732157,100.981956 L68.7155992,111.939572 L79.2435052,122.467478 C80.3177813,123.756609 80.3177813,125.690306 79.2435052,126.764582 C77.9543739,127.838859 76.0206768,127.838859 74.9464007,126.764582 L64.4184947,116.236676 L53.4608783,127.194293 C52.1717469,128.268569 50.2380499,128.268569 49.1637738,127.194293 C48.0894977,125.905162 48.0894977,123.971465 49.1637738,122.897188 L60.1213902,111.939572 L49.5934842,101.411666 C48.5192081,100.122535 48.5192081,98.1888376 49.5934842,97.1145615 C50.8826156,96.0402854 52.8163126,96.0402854 53.8905887,97.1145615 L64.4184947,107.642467 L75.3761112,96.684851 C76.6652425,95.6105749 78.5989395,95.6105749 79.6732157,96.684851 Z M113.835196,95.8254301 C115.339183,110.865296 110.612368,118.385229 95.7873575,120.748636 C94.0685157,120.963491 92.5645291,119.889215 92.3496739,118.170373 C92.1348187,116.451532 93.2090948,114.947545 94.9279366,114.73269 C106.315264,113.013848 109.108381,108.501888 108.034105,96.4699958 C106.744974,84.223248 97.9359097,69.1833823 85.6891619,61.0188838 C79.6732157,66.1754091 71.9384276,69.1833823 63.5590738,69.1833823 C55.1797201,69.1833823 47.444932,66.1754091 41.4289857,61.233739 C29.3970931,69.3982375 20.8028841,84.223248 19.2988976,96.684851 C17.794911,109.79102 20.1583185,114.088124 33.2644872,114.947545 C34.983329,115.1624 36.2724603,116.451532 36.0576051,118.170373 C35.8427499,119.889215 34.5536185,121.178347 32.8347767,120.963491 C15.861214,119.67436 11.3492543,112.369282 13.2829513,96.0402854 C15.0017931,82.0746958 24.2405677,66.1754091 37.1318812,56.9366345 C31.9753558,50.9206882 28.9673827,43.1859001 28.9673827,34.5916911 C28.9673827,15.4695762 44.4369588,1.70974346e-13 63.5590738,1.70974346e-13 C82.6811888,1.70974346e-13 98.150765,15.4695762 98.150765,34.3768359 C98.150765,42.7561897 94.9279366,50.4909778 89.9862664,56.506924 C103.092435,65.9605539 112.546065,82.0746958 113.835196,95.8254301 Z M34.983329,34.5916911 C34.983329,50.2761225 47.8746424,63.167436 63.5590738,63.167436 C79.2435052,63.167436 92.1348187,50.2761225 92.1348187,34.5916911 C92.1348187,18.9072598 79.2435052,6.01594629 63.5590738,6.01594629 C47.8746424,6.01594629 34.983329,18.9072598 34.983329,34.5916911 Z" id="Combined-Shape" fill="#000000" fill-rule="nonzero"></path>
    </g>
</svg>