<?xml version="1.0" encoding="UTF-8"?>
<svg width="128px" height="128px" viewBox="0 0 128 128" version="1.1" xmlns="http://www.w3.org/2000/svg" xmlns:xlink="http://www.w3.org/1999/xlink">
    <!-- Generator: Sketch 49.1 (51147) - http://www.bohemiancoding.com/sketch -->
    <title>apply-train</title>
    <desc>Created with Sketch.</desc>
    <defs></defs>
    <g id="apply-train" stroke="none" stroke-width="1" fill="none" fill-rule="evenodd">
        <path d="M95.1252087,0 L35.7195326,0 C22.6844741,0 12,10.6844741 12,23.7195326 L12,104.494157 C12,108.767947 15.6327212,112.400668 19.9065109,112.400668 L21.8297162,112.400668 L21.8297162,116.247078 C21.8297162,122.871452 27.1719533,128 33.7963272,128 C40.4207012,128 45.7629382,122.657763 45.7629382,116.247078 L45.7629382,112.400668 L85.2954925,112.400668 L85.2954925,116.247078 C85.2954925,122.871452 90.6377295,128 97.2621035,128 C103.886477,128 109.228715,122.657763 109.228715,116.247078 L109.228715,112.400668 L111.15192,112.400668 C115.42571,112.400668 119.058431,108.767947 119.058431,104.494157 L119.058431,23.7195326 C118.844741,10.6844741 108.160267,0 95.1252087,0 Z M39.7796327,116.460768 C39.7796327,119.66611 37.2153589,122.444073 33.7963272,122.444073 C30.590985,122.444073 27.8130217,119.8798 27.8130217,116.460768 L27.8130217,112.614357 L39.7796327,112.614357 L39.7796327,116.460768 Z M103.03172,116.460768 C103.03172,119.66611 100.467446,122.444073 97.048414,122.444073 C93.8430718,122.444073 91.0651085,119.8798 91.0651085,116.460768 L91.0651085,112.614357 L103.03172,112.614357 L103.03172,116.460768 Z M112.861436,75.8597663 L112.861436,104.494157 C112.861436,105.562604 112.006678,106.417362 110.93823,106.417362 L109.015025,106.417362 L85.2954925,106.417362 L45.5492487,106.417362 L21.8297162,106.417362 L19.9065109,106.417362 C18.8380634,106.417362 17.9833055,105.562604 17.9833055,104.494157 L17.9833055,75.8597663 L17.9833055,23.7195326 C17.9833055,13.8898164 25.8898164,5.98330551 35.7195326,5.98330551 L95.1252087,5.98330551 C104.954925,5.98330551 112.861436,13.8898164 112.861436,23.7195326 L112.861436,75.8597663 Z M110.297162,73.081803 L20.5475793,73.081803 C19.0517529,73.081803 17.9833055,74.3639399 17.9833055,76.0734558 C17.9833055,77.7829716 19.2654424,79.0651085 20.5475793,79.0651085 L110.297162,79.0651085 C111.792988,79.0651085 112.861436,77.7829716 112.861436,76.0734558 C112.861436,74.3639399 111.792988,73.081803 110.297162,73.081803 Z M40.4207012,99.7929883 C44.5513117,99.7929883 47.8998331,96.4444669 47.8998331,92.3138564 C47.8998331,88.1832459 44.5513117,84.8347245 40.4207012,84.8347245 C36.2900907,84.8347245 32.9415693,88.1832459 32.9415693,92.3138564 C32.9415693,96.4444669 36.2900907,99.7929883 40.4207012,99.7929883 Z M89.5692821,99.7929883 C93.6998926,99.7929883 97.048414,96.4444669 97.048414,92.3138564 C97.048414,88.1832459 93.6998926,84.8347245 89.5692821,84.8347245 C85.4386717,84.8347245 82.0901503,88.1832459 82.0901503,92.3138564 C82.0901503,96.4444669 85.4386717,99.7929883 89.5692821,99.7929883 Z M92.7746244,16.0267112 L37.2153589,16.0267112 C35.5058431,16.0267112 34.2237062,17.3088481 34.2237062,19.0183639 C34.2237062,20.7278798 35.5058431,22.0100167 37.2153589,22.0100167 L92.7746244,22.0100167 C94.4841402,22.0100167 95.7662771,20.7278798 95.7662771,19.0183639 C95.7662771,17.3088481 94.4841402,16.0267112 92.7746244,16.0267112 Z" id="Combined-Shape" fill="#000000" fill-rule="nonzero"></path>
    </g>
</svg>