<?xml version="1.0" encoding="UTF-8"?>
<svg width="128px" height="128px" viewBox="0 0 128 128" version="1.1" xmlns="http://www.w3.org/2000/svg" xmlns:xlink="http://www.w3.org/1999/xlink">
    <!-- Generator: Sketch 49.1 (51147) - http://www.bohemiancoding.com/sketch -->
    <title>apply-fake-leave</title>
    <desc>Created with Sketch.</desc>
    <defs></defs>
    <g id="apply-fake-leave" stroke="none" stroke-width="1" fill="none" fill-rule="evenodd">
        <path d="M46.5956461,25.5847421 C44.7577582,25.5847421 43.3793423,24.2063262 43.3793423,22.5981742 L43.3793423,4.21929513 C43.3793423,2.61114321 44.7577582,1.23272727 46.5956461,1.23272727 C48.433534,1.23272727 49.81195,2.61114321 49.81195,4.21929513 L49.81195,22.5981742 C49.81195,24.2063262 48.433534,25.5847421 46.5956461,25.5847421 Z M81.9749884,79.5726995 C83.8128763,79.5726995 85.1912923,80.9511154 85.1912923,82.5592673 C85.1912923,84.1674193 83.8128763,85.5458352 81.9749884,85.5458352 L37.8656786,85.5458352 C36.0277906,85.5458352 34.6493747,84.1674193 34.6493747,82.5592673 C34.6493747,80.9511154 36.0277906,79.5726995 37.8656786,79.5726995 L81.9749884,79.5726995 Z M73.7044928,25.5847421 C72.0963409,25.5847421 70.717925,24.2063262 70.488189,22.5981742 L70.488189,4.21929513 C70.488189,2.61114321 71.8666049,1.23272727 73.7044928,1.23272727 C75.5423807,1.23272727 76.9207967,2.61114321 76.9207967,4.21929513 L76.9207967,22.5981742 C76.9207967,24.2063262 75.5423807,25.5847421 73.7044928,25.5847421 Z M67.0421491,110.587058 C68.6503011,110.587058 70.028717,111.965474 70.028717,113.803362 C70.028717,115.411514 68.6503011,116.78993 66.8124132,116.78993 L22.0138953,116.560194 C14.4326077,116.560194 8.45947198,110.587058 8.45947198,103.465242 L8,23.0576462 C8,15.7060946 14.2028717,9.96269485 21.5544233,10.1924308 L27.757295,10.1924308 C29.365447,10.1924308 30.9735989,11.8005828 30.9735989,13.4087347 C30.9735989,15.0168866 29.595183,16.3953025 27.757295,16.3953025 L21.5544233,16.1655666 C17.6489115,15.9358306 14.4326077,19.1521344 14.4326077,22.8279102 L14.8920797,103.235506 C14.8920797,107.141018 18.3381195,110.357322 22.2436313,110.357322 L67.0421491,110.587058 Z M98.5159796,16.3953025 L90.934692,16.3953025 C89.3265401,16.1655666 87.9481241,14.7871506 87.9481241,13.1789987 C87.9481241,11.5708468 89.3265401,10.1924308 91.164428,10.1924308 L98.7457156,10.1924308 C106.327003,10.1924308 112.300139,15.9358306 112.300139,23.2873822 L112.300139,74.5185077 C112.300139,76.1266596 110.921723,77.5050756 109.083835,77.5050756 C107.245947,77.5050756 105.867531,76.1266596 105.867531,74.5185077 L105.867531,23.2873822 C105.867531,19.6116064 102.651227,16.3953025 98.5159796,16.3953025 Z M37.8656786,67.3966921 C36.0277906,67.3966921 34.6493747,66.0182761 34.6493747,64.4101242 C34.6493747,62.8019723 36.0277906,61.4235564 37.8656786,61.4235564 L81.9749884,61.4235564 C83.8128763,61.4235564 85.1912923,62.8019723 85.1912923,64.4101242 C85.1912923,66.0182761 83.8128763,67.3966921 81.9749884,67.3966921 L37.8656786,67.3966921 Z M110.232515,108.519434 L121.259843,119.317026 C122.408522,120.465706 122.408522,122.533329 121.259843,123.682009 C120.111163,124.830689 118.043539,124.830689 116.894859,123.682009 L105.867531,112.884418 L94.1509958,124.371217 C93.0023159,125.519897 90.934692,125.519897 89.786012,124.371217 C88.6373321,123.222537 88.6373321,121.154913 89.786012,120.006234 L101.502547,108.519434 L90.47522,97.7218426 C89.3265401,96.5731627 89.3265401,94.5055388 90.47522,93.3568588 C91.6239,92.2081789 93.6915239,92.2081789 94.8402038,93.3568588 L105.867531,104.15445 L117.584067,92.6676508 C118.732747,91.5189709 120.800371,91.5189709 121.94905,92.6676508 C123.09773,93.8163308 123.09773,95.8839547 121.94905,97.0326346 L110.232515,108.519434 Z M82.4344604,42.8149413 C84.0426123,42.8149413 85.4210283,44.1933572 85.4210283,45.8015091 C85.4210283,47.409661 84.0426123,48.788077 82.2047244,48.788077 L38.0954145,48.788077 C36.2575266,48.788077 34.8791107,47.409661 34.8791107,45.8015091 C34.8791107,44.1933572 36.2575266,42.8149413 38.0954145,42.8149413 L82.4344604,42.8149413 Z" id="Combined-Shape" fill="#000000" fill-rule="nonzero"></path>
    </g>
</svg>