<?xml version="1.0" encoding="UTF-8"?>
<svg width="133px" height="132px" viewBox="0 0 133 132" version="1.1" xmlns="http://www.w3.org/2000/svg" xmlns:xlink="http://www.w3.org/1999/xlink">
    <!-- Generator: Sketch 54.1 (76490) - https://sketchapp.com -->
    <title>back</title>
    <desc>Created with Sketch.</desc>
    <g id="back" stroke="none" stroke-width="1" fill="none" fill-rule="evenodd">
        <path d="M42.3551799,60.7410523 L105.4,60.7410523 L105.4,67.9275085 L42.3551799,67.9275085 L60.1777302,85.7500588 L55.0942804,90.8285608 L28.6,64.3342804 L55.0942804,37.84 L60.1752037,42.918502 L42.3551799,60.7410523 Z M67,130 C31.653776,130 3,101.346224 3,66 C3,30.653776 31.653776,2 67,2 C102.346224,2 131,30.653776 131,66 C131,101.346224 102.346224,130 67,130 Z M67,124.88 C99.5185261,124.88 125.88,98.5185261 125.88,66 C125.88,33.4814739 99.5185261,7.12 67,7.12 C34.4814739,7.12 8.12,33.4814739 8.12,66 C8.12,98.5185261 34.4814739,124.88 67,124.88 Z" id="形状结合" fill="#000000"></path>
    </g>
</svg>