<?xml version="1.0" encoding="UTF-8"?>
<svg width="128px" height="128px" viewBox="0 0 128 128" version="1.1" xmlns="http://www.w3.org/2000/svg" xmlns:xlink="http://www.w3.org/1999/xlink">
    <!-- Generator: Sketch 49.1 (51147) - http://www.bohemiancoding.com/sketch -->
    <title>arrow-line-right</title>
    <desc>Created with Sketch.</desc>
    <defs></defs>
    <g id="arrow-line-right" stroke="none" stroke-width="1" fill="none" fill-rule="evenodd">
        <path d="M37.3553391,53.2132034 L114.213203,53.2132034 C119.736051,53.2132034 124.213203,57.6903559 124.213203,63.2132034 C124.213203,68.7360509 119.736051,73.2132034 114.213203,73.2132034 L37.3553391,73.2132034 L63.4974747,99.3553391 C67.4027176,103.260582 67.4027176,109.592232 63.4974747,113.497475 C59.5922318,117.402718 53.260582,117.402718 49.3553391,113.497475 L6.92893219,71.0710678 C4.77604244,68.9181781 3.81000185,66.0278748 4.03081042,63.2132034 C3.81000185,60.3985321 4.77604244,57.5082288 6.92893219,55.3553391 L49.3553391,12.9289322 C53.260582,9.02368927 59.5922318,9.02368927 63.4974747,12.9289322 C67.4027176,16.8341751 67.4027176,23.1658249 63.4974747,27.0710678 L37.3553391,53.2132034 Z" id="Combined-Shape-Copy-3" fill="#000000" transform="translate(64.106602, 63.213203) scale(-1, 1) translate(-64.106602, -63.213203) "></path>
    </g>
</svg>