<?xml version="1.0" encoding="UTF-8"?>
<svg width="128px" height="128px" viewBox="0 0 128 128" version="1.1" xmlns="http://www.w3.org/2000/svg" xmlns:xlink="http://www.w3.org/1999/xlink">
    <!-- Generator: Sketch 49.1 (51147) - http://www.bohemiancoding.com/sketch -->
    <title>attachment</title>
    <desc>Created with Sketch.</desc>
    <defs></defs>
    <g id="attachment" stroke="none" stroke-width="1" fill="none" fill-rule="evenodd">
        <path d="M71.7741028,113.159081 C57.7546313,127.178552 34.3888455,127.178552 19.7017802,113.159081 C5.01471478,99.1396091 5.68230866,75.7738233 19.7017802,61.0867579 L69.1037273,11.6848108 C79.7852294,1.00330869 96.4750764,1.00330869 107.156578,11.6848108 C117.838081,22.3663129 117.838081,39.0561599 107.156578,49.737662 L67.1009457,89.7932948 C60.4250069,96.4692336 49.7435048,96.4692336 43.7351598,89.7932948 C37.059221,83.117356 37.059221,72.4358539 43.7351598,66.427509 L79.1176355,31.0450333 L86.4611682,38.388566 L51.0786925,73.7710417 C48.408317,76.4414172 48.408317,80.4469805 51.0786925,83.117356 C53.7490681,85.7877315 57.7546313,85.7877315 60.4250069,83.117356 L100.48064,43.0617232 C107.156578,36.3857843 107.156578,25.7042823 100.48064,19.6959373 C93.8047009,13.6875924 83.1231988,13.0199985 77.1148539,19.6959373 L27.0453128,68.4302906 C16.3638107,79.1117927 16.3638107,95.8016397 27.0453128,106.483142 C37.7268149,117.164644 54.4166619,117.164644 65.098164,106.483142 L109.826954,61.7543518 L117.170487,69.0978845 L71.7741028,113.159081 Z" id="Shape" fill="#000000" fill-rule="nonzero"></path>
    </g>
</svg>