<?xml version="1.0" encoding="UTF-8"?>
<svg width="128px" height="128px" viewBox="0 0 128 128" version="1.1" xmlns="http://www.w3.org/2000/svg" xmlns:xlink="http://www.w3.org/1999/xlink">
    <!-- Generator: Sketch 49.1 (51147) - http://www.bohemiancoding.com/sketch -->
    <title>attendance</title>
    <desc>Created with Sketch.</desc>
    <defs></defs>
    <g id="attendance" stroke="none" stroke-width="1" fill="none" fill-rule="evenodd">
        <path d="M89.75,23.625 C94.097,23.625 97.625,20.097 97.625,15.75 L97.625,7.875 C97.625,3.528 94.097,0 89.75,0 C85.403,0 81.875,3.528 81.875,7.875 L81.875,15.75 C81.875,20.097 85.403,23.625 89.75,23.625 Z M42.5,23.625 C46.847,23.625 50.375,20.097 50.375,15.75 L50.375,7.875 C50.375,3.528 46.847,0 42.5,0 C38.153,0 34.625,3.528 34.625,7.875 L34.625,15.75 C34.625,20.097 38.153,23.625 42.5,23.625 Z M113.375,15.75 L105.5,15.75 C105.5,24.444 98.444,31.5 89.75,31.5 C81.048125,31.5 74,24.451875 74,15.75 L58.25,15.75 C58.25,24.444 51.201875,31.5 42.5,31.5 C33.798125,31.5 26.75,24.451875 26.75,15.75 L18.875,15.75 C14.528,15.75 11,19.278 11,23.625 L11,118.125 C11,122.472 14.528,126 18.875,126 L113.375,126 C117.722,126 121.25,122.472 121.25,118.125 L121.25,23.625 C121.25,19.278 117.722,15.75 113.375,15.75 Z M38,45 L56,45 C57.6568542,45 59,46.3431458 59,48 L59,66 C59,67.6568542 57.6568542,69 56,69 L38,69 C36.3431458,69 35,67.6568542 35,66 L35,48 C35,46.3431458 36.3431458,45 38,45 Z M38,80 L56,80 C57.6568542,80 59,81.3431458 59,83 L59,101 C59,102.656854 57.6568542,104 56,104 L38,104 C36.3431458,104 35,102.656854 35,101 L35,83 C35,81.3431458 36.3431458,80 38,80 Z M77,45 L95,45 C96.6568542,45 98,46.3431458 98,48 L98,66 C98,67.6568542 96.6568542,69 95,69 L77,69 C75.3431458,69 74,67.6568542 74,66 L74,48 C74,46.3431458 75.3431458,45 77,45 Z M77,80 L95,80 C96.6568542,80 98,81.3431458 98,83 L98,101 C98,102.656854 96.6568542,104 95,104 L77,104 C75.3431458,104 74,102.656854 74,101 L74,83 C74,81.3431458 75.3431458,80 77,80 Z" id="Shape" fill="#000000" fill-rule="nonzero"></path>
    </g>
</svg>