<?xml version="1.0" encoding="UTF-8"?>
<svg width="128px" height="128px" viewBox="0 0 128 128" version="1.1" xmlns="http://www.w3.org/2000/svg" xmlns:xlink="http://www.w3.org/1999/xlink">
    <!-- Generator: Sketch 49.1 (51147) - http://www.bohemiancoding.com/sketch -->
    <title>book</title>
    <desc>Created with Sketch.</desc>
    <defs></defs>
    <g id="book" stroke="none" stroke-width="1" fill="none" fill-rule="evenodd">
        <path d="M20,12.075 L20,115.15 C20,121.35 23.875,126 29.3,126 L106.8,126 C110.675,126 113,122.9 113,117.475 C113,113.6 109.9,110.5 106.8,110.5 L38.6,110.5 C36.275,110.5 33.95,108.175 33.95,105.075 C33.95,101.975 36.275,99.65 38.6,99.65 L103.7,99.65 C109.125,99.65 113,95 113,89.575 L113,12.075 C113,6.65 109.125,2 103.7,2 L71.15,2 L71.15,50.825 C71.15,51.6 71.15,52.375 70.375,52.375 C69.6,53.15 68.05,53.15 67.275,52.375 C66.5,52.375 57.2,43.85 57.2,43.85 C57.2,43.85 47.9,52.375 47.125,53.15 C46.35,53.925 44.8,53.925 44.025,53.15 C43.25,52.375 43.25,51.6 43.25,50.825 L43.25,2 L29.3,2 C23.875,2 20,6.65 20,12.075 Z" id="Shape" fill="#000000" fill-rule="nonzero"></path>
    </g>
</svg>