<?xml version="1.0" encoding="UTF-8"?>
<svg width="128px" height="128px" viewBox="0 0 128 128" version="1.1" xmlns="http://www.w3.org/2000/svg" xmlns:xlink="http://www.w3.org/1999/xlink">
    <!-- Generator: Sketch 49.1 (51147) - http://www.bohemiancoding.com/sketch -->
    <title>calendar-grid</title>
    <desc>Created with Sketch.</desc>
    <defs></defs>
    <g id="calendar-grid" stroke="none" stroke-width="1" fill="none" fill-rule="evenodd">
        <path d="M4,116.333333 C4,120.333333 6.66666667,123 10.6666667,123 L117.333333,123 C121.333333,123 124,120.333333 124,116.333333 L124,43 L4,43 L4,116.333333 Z M97.3333333,56.3333333 L110.666667,56.3333333 L110.666667,69.6666667 L97.3333333,69.6666667 L97.3333333,56.3333333 Z M97.3333333,76.3333333 L110.666667,76.3333333 L110.666667,89.6666667 L97.3333333,89.6666667 L97.3333333,76.3333333 Z M97.3333333,96.3333333 L110.666667,96.3333333 L110.666667,109.666667 L97.3333333,109.666667 L97.3333333,96.3333333 Z M77.3333333,56.3333333 L90.6666667,56.3333333 L90.6666667,69.6666667 L77.3333333,69.6666667 L77.3333333,56.3333333 Z M77.3333333,76.3333333 L90.6666667,76.3333333 L90.6666667,89.6666667 L77.3333333,89.6666667 L77.3333333,76.3333333 Z M77.3333333,96.3333333 L90.6666667,96.3333333 L90.6666667,109.666667 L77.3333333,109.666667 L77.3333333,96.3333333 Z M57.3333333,56.3333333 L70.6666667,56.3333333 L70.6666667,69.6666667 L57.3333333,69.6666667 L57.3333333,56.3333333 Z M57.3333333,76.3333333 L70.6666667,76.3333333 L70.6666667,89.6666667 L57.3333333,89.6666667 L57.3333333,76.3333333 Z M57.3333333,96.3333333 L70.6666667,96.3333333 L70.6666667,109.666667 L57.3333333,109.666667 L57.3333333,96.3333333 Z M37.3333333,56.3333333 L50.6666667,56.3333333 L50.6666667,69.6666667 L37.3333333,69.6666667 L37.3333333,56.3333333 Z M37.3333333,76.3333333 L50.6666667,76.3333333 L50.6666667,89.6666667 L37.3333333,89.6666667 L37.3333333,76.3333333 Z M37.3333333,96.3333333 L50.6666667,96.3333333 L50.6666667,109.666667 L37.3333333,109.666667 L37.3333333,96.3333333 Z M17.3333333,56.3333333 L30.6666667,56.3333333 L30.6666667,69.6666667 L17.3333333,69.6666667 L17.3333333,56.3333333 Z M17.3333333,76.3333333 L30.6666667,76.3333333 L30.6666667,89.6666667 L17.3333333,89.6666667 L17.3333333,76.3333333 Z M17.3333333,96.3333333 L30.6666667,96.3333333 L30.6666667,109.666667 L17.3333333,109.666667 L17.3333333,96.3333333 Z M117.333333,16.3333333 C121.333333,16.3333333 124,19 124,23 L124,36.3333333 L4,36.3333333 L4,23 C4,19 6.66666667,16.3333333 10.6666667,16.3333333 L17.3333333,16.3333333 L17.3333333,9.66666667 C17.3333333,5.66666667 20,3 24,3 L37.3333333,3 C41.3333333,3 44,5.66666667 44,9.66666667 L44,16.3333333 L84,16.3333333 L84,9.66666667 C84,5.66666667 86.6666667,3 90.6666667,3 L104,3 C108,3 110.666667,5.66666667 110.666667,9.66666667 L110.666667,16.3333333 L117.333333,16.3333333 Z" id="Combined-Shape" fill="#000000" fill-rule="nonzero"></path>
    </g>
</svg>