<?xml version="1.0" encoding="UTF-8"?>
<svg width="128px" height="128px" viewBox="0 0 128 128" version="1.1" xmlns="http://www.w3.org/2000/svg" xmlns:xlink="http://www.w3.org/1999/xlink">
    <!-- Generator: Sketch 49.1 (51147) - http://www.bohemiancoding.com/sketch -->
    <title>calendar-o</title>
    <desc>Created with Sketch.</desc>
    <defs></defs>
    <g id="calendar-o" stroke="none" stroke-width="1" fill="none" fill-rule="evenodd">
        <path d="M102.990071,18.1702128 C114.053901,18.1702128 123.415603,27.5319149 124.266667,38.5957447 L124.266667,101.574468 C124.266667,112.638298 114.904965,122 103.841135,122 L24.6921986,122 C13.6283688,122 4.26666667,112.638298 4.26666667,101.574468 L4.26666667,38.5957447 C4.26666667,27.5319149 13.6283688,18.1702128 24.6921986,18.1702128 L24.6921986,26.6808511 C17.8836879,26.6808511 12.777305,32.6382979 12.777305,38.5957447 L12.777305,101.574468 C12.777305,108.382979 18.7347518,113.489362 24.6921986,113.489362 L102.990071,113.489362 C109.798582,113.489362 114.904965,107.531915 114.904965,101.574468 L114.904965,38.5957447 C114.904965,31.787234 108.947518,26.6808511 102.990071,26.6808511 L102.990071,18.1702128 Z M57.0326241,18.1702128 L71.5007092,18.1702128 L71.5007092,26.6808511 L57.0326241,26.6808511 L57.0326241,18.1702128 Z M38.3092199,44.5531915 C33.2028369,44.5531915 29.7985816,41.1489362 29.7985816,36.0425532 L29.7985816,10.5106383 C29.7985816,5.40425532 33.2028369,2 38.3092199,2 C43.4156028,2 46.8198582,5.40425532 46.8198582,10.5106383 L46.8198582,36.0425532 C46.8198582,41.1489362 43.4156028,44.5531915 38.3092199,44.5531915 Z M89.3730496,44.5531915 C84.2666667,44.5531915 80.8624113,41.1489362 80.8624113,36.0425532 L80.8624113,10.5106383 C80.8624113,5.40425532 84.2666667,2 89.3730496,2 C94.4794326,2 97.8836879,5.40425532 97.8836879,10.5106383 L97.8836879,36.0425532 C97.8836879,41.1489362 94.4794326,44.5531915 89.3730496,44.5531915 Z" id="Combined-Shape" fill="#000000" fill-rule="nonzero"></path>
    </g>
</svg>