<?xml version="1.0" encoding="UTF-8"?>
<svg width="128px" height="128px" viewBox="0 0 128 128" version="1.1" xmlns="http://www.w3.org/2000/svg" xmlns:xlink="http://www.w3.org/1999/xlink">
    <!-- Generator: Sketch 49.1 (51147) - http://www.bohemiancoding.com/sketch -->
    <title>card</title>
    <desc>Created with Sketch.</desc>
    <defs></defs>
    <g id="card" stroke="none" stroke-width="1" fill="none" fill-rule="evenodd">
        <path d="M108.454545,2 L22.5454545,2 C17.2954545,2 13,6.29230769 13,11.5384615 L13,116.461538 C13,121.707692 17.2954545,126 22.5454545,126 L108.454545,126 C113.704545,126 118,121.707692 118,116.461538 L118,11.5384615 C118,6.29230769 113.704545,2 108.454545,2 Z M108.454545,116.461538 C108.454545,116.461538 22.5454545,116.461538 22.5454545,116.461538 C22.5454545,116.461538 22.5454545,11.5384615 22.5454545,11.5384615 C22.5454545,11.5384615 108.454545,11.5384615 108.454545,11.5384615 C108.454545,11.5384615 108.454545,116.461538 108.454545,116.461538 Z M83.3951049,30.6153846 L97.7185315,30.6153846 C99.6940115,30.6153846 101.295455,32.2168276 101.295455,34.1923077 L101.295455,34.1923077 C101.295455,36.1677878 99.6940115,37.7692308 97.7185315,37.7692308 L83.3951049,37.7692308 C81.4196248,37.7692308 79.8181818,36.1677878 79.8181818,34.1923077 L79.8181818,34.1923077 C79.8181818,32.2168276 81.4196248,30.6153846 83.3951049,30.6153846 Z M83.3951049,52.0769231 L97.7185315,52.0769231 C99.6940115,52.0769231 101.295455,53.6783661 101.295455,55.6538462 L101.295455,55.6538462 C101.295455,57.6293262 99.6940115,59.2307692 97.7185315,59.2307692 L83.3951049,59.2307692 C81.4196248,59.2307692 79.8181818,57.6293262 79.8181818,55.6538462 L79.8181818,55.6538462 C79.8181818,53.6783661 81.4196248,52.0769231 83.3951049,52.0769231 Z M33.2814685,83.0769231 L97.7185315,83.0769231 C99.6940115,83.0769231 101.295455,84.6783661 101.295455,86.6538462 L101.295455,86.6538462 C101.295455,88.6293262 99.6940115,90.2307692 97.7185315,90.2307692 L33.2814685,90.2307692 C31.3059885,90.2307692 29.7045455,88.6293262 29.7045455,86.6538462 L29.7045455,86.6538462 C29.7045455,84.6783661 31.3059885,83.0769231 33.2814685,83.0769231 Z M33.2814685,99.7692308 L97.7185315,99.7692308 C99.6940115,99.7692308 101.295455,101.370674 101.295455,103.346154 L101.295455,103.346154 C101.295455,105.321634 99.6940115,106.923077 97.7185315,106.923077 L33.2814685,106.923077 C31.3059885,106.923077 29.7045455,105.321634 29.7045455,103.346154 L29.7045455,103.346154 C29.7045455,101.370674 31.3059885,99.7692308 33.2814685,99.7692308 Z M41.1590909,40.6307692 C39.7272727,39.4384615 38.7727273,37.7692308 38.0568182,36.1 C37.3409091,34.4307692 36.8636364,32.5230769 36.8636364,30.6153846 C36.8636364,28.7076923 37.3409091,26.8 38.0568182,25.1307692 C38.7727273,23.4615385 39.7272727,22.0307692 41.1590909,20.6 C42.3522727,19.1692308 44.0227273,18.2153846 45.6931818,17.5 C47.3636364,16.7846154 49.2727273,16.3076923 51.1818182,16.3076923 C53.0909091,16.3076923 55,16.7846154 56.6704545,17.5 C58.3409091,18.2153846 59.7727273,19.1692308 61.2045455,20.6 C62.6363636,21.7923077 63.5909091,23.4615385 64.3068182,25.1307692 C65.0227273,26.8 65.5,28.7076923 65.5,30.6153846 C65.5,32.5230769 65.0227273,34.4307692 64.3068182,36.1 C63.5909091,37.7692308 62.6363636,39.2 61.2045455,40.6307692 C60.0113636,42.0615385 58.3409091,43.0153846 56.6704545,43.7307692 C55,44.4461538 53.0909091,44.9230769 51.1818182,44.9230769 C49.2727273,44.9230769 47.3636364,44.4461538 45.6931818,43.7307692 C44.0227273,43.0153846 42.5909091,42.0615385 41.1590909,40.6307692 Z M51.0278592,38 C54.8966868,38 58.0329912,34.8659932 58.0329912,31 C58.0329912,27.1340068 54.8966868,24 51.0278592,24 C47.1590317,24 44.0227273,27.1340068 44.0227273,31 C44.0227273,34.8659932 47.1590317,38 51.0278592,38 Z M72.6590909,66.1461538 C72.6590909,75.9230769 29.7045455,76.1615385 29.7045455,66.1461538 C29.7045455,56.8461538 34.7159091,48.7384615 41.875,44.9230769 C44.5,46.8307692 47.8409091,48.0230769 51.1818182,48.0230769 C54.5227273,48.0230769 57.8636364,46.8307692 60.4886364,44.9230769 C67.6477273,48.7384615 72.6590909,56.8461538 72.6590909,66.1461538 Z M41.2826705,54 C39.5930398,56.3333333 38.1850142,59.6666667 37.9034091,63.3333333 C41.2826705,64.3333333 43.8171165,66 51.4204545,66 C59.0237926,66 61.5582386,64.3333333 64.9375,63.3333333 C64.0926847,59.6666667 62.9662642,56.3333333 60.9950284,54 C57.8973722,55.3333333 54.5181108,56 51.1388494,56 C47.7595881,56 44.3803267,55.3333333 41.2826705,54 Z" id="Combined-Shape" fill="#000000" fill-rule="nonzero"></path>
    </g>
</svg>