<?xml version="1.0" encoding="UTF-8"?>
<svg width="128px" height="128px" viewBox="0 0 128 128" version="1.1" xmlns="http://www.w3.org/2000/svg" xmlns:xlink="http://www.w3.org/1999/xlink">
    <!-- Generator: Sketch 49.1 (51147) - http://www.bohemiancoding.com/sketch -->
    <title>checkbox-square-o</title>
    <desc>Created with Sketch.</desc>
    <defs></defs>
    <g id="checkbox-square-o" stroke="none" stroke-width="1" fill="none" fill-rule="evenodd">
        <path d="M108.666667,4.26666667 L23.3333333,4.26666667 C13.9466667,4.26666667 6.26666667,11.9466667 6.26666667,21.3333333 L6.26666667,106.666667 C6.26666667,116.053333 13.9466667,123.733333 23.3333333,123.733333 L108.666667,123.733333 C118.053333,123.733333 125.733333,116.053333 125.733333,106.666667 L125.733333,21.3333333 C125.733333,11.9466667 118.053333,4.26666667 108.666667,4.26666667 Z M117.2,106.666667 C117.2,111.786667 113.786667,115.2 108.666667,115.2 L23.3333333,115.2 C18.2133333,115.2 14.8,111.786667 14.8,106.666667 L14.8,21.3333333 C14.8,16.2133333 18.2133333,12.8 23.3333333,12.8 L108.666667,12.8 C113.786667,12.8 117.2,16.2133333 117.2,21.3333333 L117.2,106.666667 Z M55.8778125,96 L107,40.112 L97.9421875,32 L55.2828125,78.64 L30.47875,54.9706667 L22,63.6693333 L55.8778125,96 Z" id="Combined-Shape" fill="#000000" fill-rule="nonzero"></path>
    </g>
</svg>