<?xml version="1.0" encoding="UTF-8"?>
<svg width="128px" height="128px" viewBox="0 0 128 128" version="1.1" xmlns="http://www.w3.org/2000/svg" xmlns:xlink="http://www.w3.org/1999/xlink">
    <!-- Generator: Sketch 49.1 (51147) - http://www.bohemiancoding.com/sketch -->
    <title>clock-circle</title>
    <desc>Created with Sketch.</desc>
    <defs></defs>
    <g id="clock-circle" stroke="none" stroke-width="1" fill="none" fill-rule="evenodd">
        <path d="M64.0495759,16.0845639 C36.4734502,16.0845639 14.1003671,38.9779512 14.1003671,67.0743812 C14.1003671,82.4233568 20.8643225,96.2114196 31.2704076,105.576896 L20.6041703,116.243134 C19.5635618,117.283742 19.3034097,119.364959 20.6041703,120.405568 C21.6447788,121.446176 23.7259959,121.446176 24.7666044,120.405568 L35.9531459,109.219026 C44.0178619,114.682221 53.6434907,118.064198 64.0495759,118.064198 C75.7564217,118.064198 86.422659,113.901764 95.0076792,107.137809 L108.015286,120.145415 C109.316046,121.446176 111.137111,121.186024 112.17772,120.145415 C113.47848,118.844655 113.47848,117.02359 112.17772,115.982981 L99.1701133,102.975375 C108.275438,93.6098983 113.738633,80.862444 113.738633,66.814229 C113.998785,38.9779512 91.6257016,16.0845639 64.0495759,16.0845639 Z M64.0495759,112.340852 C39.8554279,112.340852 20.0838661,92.0489856 20.0838661,67.3345333 C20.0838661,42.3599289 39.8554279,22.328215 64.0495759,22.328215 C88.2437239,22.328215 108.015286,42.620081 108.015286,67.3345333 C108.015286,92.3091377 88.503876,112.340852 64.0495759,112.340852 Z M69.7729227,58.4893609 L69.7729227,28.3117139 C69.7729227,26.7508012 68.4721621,25.1898884 66.6510972,25.1898884 C65.0901844,25.1898884 63.5292716,26.490649 63.5292716,28.3117139 L63.5292716,58.4893609 C59.3668376,59.5299694 56.5051641,63.1720992 55.7247077,67.3345333 L35.1726896,67.3345333 C33.6117768,67.3345333 32.050864,68.6352939 32.050864,70.4563588 C32.050864,72.0172716 33.3516246,73.5781844 35.1726896,73.5781844 L56.245012,73.5781844 C57.8059248,77.7406185 61.9683588,80.862444 66.6510972,80.862444 C72.8947483,80.862444 77.8376387,75.9195536 77.8376387,69.6759025 C77.8376387,63.9525556 74.455661,59.7901216 69.7729227,58.4893609 Z M66.6510972,74.3586408 C63.7894237,74.3586408 61.7082067,72.0172716 61.7082067,69.1555982 C61.7082067,66.2939248 64.0495759,63.9525556 66.6510972,63.9525556 C69.2526185,63.9525556 71.5939876,66.2939248 71.5939876,69.1555982 C71.5939876,72.0172716 69.5127706,74.3586408 66.6510972,74.3586408 Z M106.714525,8.28 C118.421371,8.28 128.047,17.9056288 127.786847,29.8726267 C127.786847,36.8967342 124.665022,43.1403853 119.201827,47.3028194 L116.080002,49.6441885 L114.779241,46.0020587 C110.876959,34.8155172 102.812243,25.1898884 92.6663101,19.2063894 L89.2843324,17.1251724 L92.1460058,14.263499 C96.0482878,10.361217 101.25133,8.28 106.714525,8.28 Z M118.681523,39.7584076 C121.022892,37.1568863 122.063501,33.5147565 122.063501,29.6124746 C122.063501,21.0274543 115.299545,14.0033468 106.714525,14.0033468 C104.113004,14.0033468 101.511482,14.7838032 99.1701133,16.0845639 C107.755134,22.0680628 114.519089,30.392931 118.681523,39.7584076 Z M34.9125374,19.4665415 C24.7666044,25.4500405 16.7018884,35.0756693 12.7996065,46.522363 L11.4988458,50.1644928 L8.37702026,47.8231236 C3.17397768,43.6606896 -0.208,37.4170385 -0.208,30.392931 C-0.208,18.425933 9.15747665,8.80030426 20.8643225,8.80030426 C26.3275172,8.80030426 31.5305597,10.8815213 35.4328417,14.7838032 L38.2945151,17.3853245 L34.9125374,19.4665415 Z M8.89732452,40.2787119 C13.0597586,30.6530831 19.8237139,22.5883671 28.4087342,16.8650203 C26.067365,15.5642596 23.4658437,14.7838032 20.8643225,14.7838032 C12.2793022,14.7838032 5.51534684,21.8079107 5.51534684,30.392931 C5.51534684,34.0350608 6.55595536,37.4170385 8.89732452,40.2787119 Z" id="Combined-Shape" fill="#000000" fill-rule="nonzero"></path>
    </g>
</svg>