<?xml version="1.0" encoding="UTF-8"?>
<svg width="128px" height="128px" viewBox="0 0 128 128" version="1.1" xmlns="http://www.w3.org/2000/svg" xmlns:xlink="http://www.w3.org/1999/xlink">
    <!-- Generator: Sketch 49.1 (51147) - http://www.bohemiancoding.com/sketch -->
    <title>company</title>
    <desc>Created with Sketch.</desc>
    <defs></defs>
    <g id="company" stroke="none" stroke-width="1" fill="none" fill-rule="evenodd">
        <path d="M105.444444,119.111111 L119.222222,119.111111 L119.222222,126 L105.444444,126 L22.7777778,126 L9,126 L9,119.111111 L22.7777778,119.111111 L22.7777778,15.7777778 C22.7777778,8.2 28.9777778,2 36.5555556,2 L91.6666667,2 C99.2444444,2 105.444444,8.2 105.444444,15.7777778 L105.444444,119.111111 Z M98.5555556,119.111111 L98.5555556,15.7777778 C98.5555556,11.6444444 95.8,8.88888889 91.6666667,8.88888889 L36.5555556,8.88888889 C32.4222222,8.88888889 29.6666667,11.6444444 29.6666667,15.7777778 L29.6666667,119.111111 L98.5555556,119.111111 Z M40,43.3333333 L40,22.6666667 L60.6666667,22.6666667 L60.6666667,43.3333333 L40,43.3333333 Z M46.8888889,29.5555556 L46.8888889,36.4444444 L53.7777778,36.4444444 L53.7777778,29.5555556 L46.8888889,29.5555556 Z M67.5555556,43.3333333 L67.5555556,22.6666667 L88.2222222,22.6666667 L88.2222222,43.3333333 L67.5555556,43.3333333 Z M74.4444444,29.5555556 L74.4444444,36.4444444 L81.3333333,36.4444444 L81.3333333,29.5555556 L74.4444444,29.5555556 Z M40,70.8888889 L40,50.2222222 L60.6666667,50.2222222 L60.6666667,70.8888889 L40,70.8888889 Z M46.8888889,57.1111111 L46.8888889,64 L53.7777778,64 L53.7777778,57.1111111 L46.8888889,57.1111111 Z M67.5555556,70.8888889 L67.5555556,50.2222222 L88.2222222,50.2222222 L88.2222222,70.8888889 L67.5555556,70.8888889 Z M74.4444444,57.1111111 L74.4444444,64 L81.3333333,64 L81.3333333,57.1111111 L74.4444444,57.1111111 Z M40,98.4444444 L40,77.7777778 L60.6666667,77.7777778 L60.6666667,98.4444444 L40,98.4444444 Z M46.8888889,84.6666667 L46.8888889,91.5555556 L53.7777778,91.5555556 L53.7777778,84.6666667 L46.8888889,84.6666667 Z M67.5555556,98.4444444 L67.5555556,77.7777778 L88.2222222,77.7777778 L88.2222222,98.4444444 L67.5555556,98.4444444 Z M74.4444444,84.6666667 L74.4444444,91.5555556 L81.3333333,91.5555556 L81.3333333,84.6666667 L74.4444444,84.6666667 Z" id="Combined-Shape" fill="#000000" fill-rule="nonzero"></path>
    </g>
</svg>