<?xml version="1.0" encoding="UTF-8"?>
<svg width="128px" height="128px" viewBox="0 0 128 128" version="1.1" xmlns="http://www.w3.org/2000/svg" xmlns:xlink="http://www.w3.org/1999/xlink">
    <!-- Generator: Sketch 49.1 (51147) - http://www.bohemiancoding.com/sketch -->
    <title>config</title>
    <desc>Created with Sketch.</desc>
    <defs></defs>
    <g id="config" stroke="none" stroke-width="1" fill="none" fill-rule="evenodd">
        <g id="Group" transform="translate(4.000000, 4.000000)" fill="#000000" fill-rule="nonzero">
            <path d="M60.0944882,35.625 C46.7905512,35.625 35.9055118,46.425 35.9055118,59.625 C35.9055118,72.825 46.7905512,83.625 60.0944882,83.625 C73.3984252,83.625 84.2834646,72.825 84.2834646,59.625 C84.2834646,46.425 73.3984252,35.625 60.0944882,35.625 Z M60.0944882,77.625 C49.8141732,77.625 41.9527559,69.825 41.9527559,59.625 C41.9527559,49.425 49.8141732,41.625 60.0944882,41.625 C70.3748031,41.625 78.2362205,49.425 78.2362205,59.625 C78.2362205,69.825 70.3748031,77.625 60.0944882,77.625 Z" id="Shape"></path>
            <path d="M113.688189,48.6 L104.012598,46.2 C102.80315,44.4 102.198425,42 100.988976,39.6 L106.431496,31.2 C108.245669,28.2 109.455118,23.4 106.431496,20.4 L100.988976,15 C99.7795276,13.8 97.3606299,13.2 95.5464567,13.2 C93.7322835,13.2 91.3133858,13.8 90.103937,15 L81.6377953,20.4 C79.2188976,19.2 77.4047244,18 74.9858268,17.4 L72.5669291,7.8 C71.3574803,3.6 68.3338583,0 64.1007874,0 L56.8440945,0 C52.6110236,0 50.192126,4.2 48.9826772,7.8 L46.5637795,17.4 C44.1448819,18 41.7259843,19.2 39.3070866,20.4 L30.8409449,14.4 C29.0267717,13.8 27.2125984,13.2 24.7937008,13.2 C22.9795276,13.2 21.1653543,13.8 19.3511811,15 L14.5133858,20.4 C11.4897638,23.4 12.0944882,27.6 14.5133858,31.2 L19.9559055,40.2 C18.7464567,42 18.1417323,44.4 16.9322835,46.2 L7.25669291,48.6 C3.62834646,49.2 0,52.2 0,56.4 L0,63.6 C0,67.8 4.23307087,70.2 7.86141732,70.8 L17.5370079,73.2 C18.1417323,75 19.3511811,77.4 19.9559055,79.2 L14.5133858,88.2 C12.6992126,91.2 11.4897638,96 14.5133858,99 L19.9559055,104.4 C21.1653543,105.6 23.584252,106.2 25.3984252,106.2 C27.2125984,106.2 29.6314961,105.6 30.8409449,104.4 L39.3070866,99 C41.7259843,100.2 44.1448819,101.4 46.5637795,102 L48.9826772,111.6 C50.192126,115.8 52.6110236,120 56.8440945,120 L64.1007874,120 C68.3338583,120 71.3574803,116.4 71.9622047,112.8 L74.3811024,103.2 C76.8,102.6 79.2188976,101.4 81.0330709,100.2 L89.4992126,105.6 C91.3133858,106.8 93.1275591,107.4 94.9417323,107.4 C96.7559055,107.4 98.5700787,106.8 100.384252,105.6 L105.826772,100.2 C108.850394,97.2 107.640945,93 105.826772,89.4 L100.384252,81 C101.593701,79.2 102.198425,76.8 102.80315,74.4 L112.47874,72 C116.107087,71.4 119.735433,68.4 119.735433,64.8 L119.735433,56.4 C120.944882,52.2 117.316535,49.2 113.688189,48.6 Z M114.897638,64.2 C114.897638,64.8 113.688189,65.4 111.874016,66 L102.198425,68.4 L99.1748031,69 L97.9653543,72 C97.3606299,73.8 96.7559055,75.6 95.5464567,77.4 L93.7322835,80.4 L100.988976,91.8 C102.198425,93.6 102.198425,94.8 101.593701,94.8 L96.7559055,100.8 C96.7559055,100.8 96.1511811,100.8 95.5464567,100.8 C94.9417323,100.8 93.7322835,100.8 93.1275591,100.2 L84.6614173,94.8 L81.6377953,93 L78.6141732,94.8 C76.8,96 74.9858268,96.6 72.5669291,97.2 L69.5433071,98.4 L66.519685,111 C66.519685,112.8 65.3102362,114 64.7055118,114 L56.8440945,114 C56.2393701,114 55.6346457,112.8 55.0299213,111 L52.6110236,101.4 L52.0062992,98.4 L48.3779528,97.2 C45.9590551,96.6 44.1448819,95.4 41.7259843,94.8 L38.7023622,93 L27.2125984,100.2 C26.607874,100.8 25.3984252,100.8 24.7937008,100.8 C24.1889764,100.8 24.1889764,100.8 23.584252,100.8 L18.1417323,95.4 C18.1417323,95.4 18.1417323,93.6 18.7464567,92.4 L24.1889764,83.4 L26.0031496,80.4 L24.7937008,77.4 C24.1889764,75.6 23.584252,73.8 22.9795276,72 L21.7700787,69 L9.07086614,66 C7.25669291,65.4 6.04724409,64.2 6.04724409,64.2 L6.04724409,56.4 C6.04724409,55.8 7.25669291,54.6 8.46614173,54.6 L18.1417323,52.2 L21.7700787,51.6 L22.9795276,48 C23.584252,46.8 24.1889764,45 25.3984252,42.6 L26.607874,39.6 L19.3511811,27.6 C18.7464567,26.4 18.1417323,24.6 18.7464567,24.6 L24.1889764,19.2 C24.1889764,19.2 24.7937008,19.2 25.3984252,19.2 C26.0031496,19.2 27.2125984,19.2 27.8173228,19.8 L36.2834646,25.2 L39.3070866,27 L42.3307087,25.2 C44.1448819,24.6 46.5637795,23.4 48.3779528,22.8 L51.4015748,21.6 L54.4251969,9 C55.6346457,7.2 56.2393701,6 56.8440945,6 L64.1007874,6 C64.7055118,6 65.9149606,7.2 65.9149606,8.4 L68.3338583,18.6 L68.9385827,22.2 L72.5669291,22.8 C74.3811024,23.4 76.8,24 78.6141732,25.2 L81.6377953,27 L93.1275591,19.8 C93.7322835,19.2 94.9417323,19.2 95.5464567,19.2 C96.1511811,19.2 96.1511811,19.2 96.7559055,19.2 L102.198425,24.6 C102.198425,24.6 102.198425,26.4 101.593701,27.6 L96.1511811,36.6 L94.3370079,39.6 L96.1511811,42.6 C97.3606299,44.4 97.9653543,46.8 98.5700787,48.6 L99.7795276,52.2 L113.083465,55.2 C114.292913,55.2 115.502362,56.4 115.502362,57 L115.502362,64.2 L114.897638,64.2 Z" id="Shape"></path>
        </g>
    </g>
</svg>