<?xml version="1.0" encoding="UTF-8"?>
<svg width="128px" height="128px" viewBox="0 0 128 128" version="1.1" xmlns="http://www.w3.org/2000/svg" xmlns:xlink="http://www.w3.org/1999/xlink">
    <!-- Generator: Sketch 49.1 (51147) - http://www.bohemiancoding.com/sketch -->
    <title>control</title>
    <desc>Created with Sketch.</desc>
    <defs></defs>
    <g id="control" stroke="none" stroke-width="1" fill="none" fill-rule="evenodd">
        <path d="M20,40 L29,40 L29,124 L20,124 L20,40 Z M61,4 L70,4 L70,49 L61,49 L61,4 Z M61,79 L70,79 L70,124 L61,124 L61,79 Z M103,4 L112,4 L112,92 L103,92 L103,4 Z" id="Combined-Shape" fill="#000000"></path>
        <path d="M24,41 C13.5065898,41 5,32.4934102 5,22 C5,11.5065898 13.5065898,3 24,3 C34.4934102,3 43,11.5065898 43,22 C43,32.4934102 34.4934102,41 24,41 Z M24,32 C29.5228475,32 34,27.5228475 34,22 C34,16.4771525 29.5228475,12 24,12 C18.4771525,12 14,16.4771525 14,22 C14,27.5228475 18.4771525,32 24,32 Z" id="Combined-Shape" fill="#000000"></path>
        <path d="M107,125 C96.5065898,125 88,116.49341 88,106 C88,95.5065898 96.5065898,87 107,87 C117.49341,87 126,95.5065898 126,106 C126,116.49341 117.49341,125 107,125 Z M107,116 C112.522847,116 117,111.522847 117,106 C117,100.477153 112.522847,96 107,96 C101.477153,96 97,100.477153 97,106 C97,111.522847 101.477153,116 107,116 Z" id="Combined-Shape-Copy-2" fill="#000000"></path>
        <path d="M65,83 C54.5065898,83 46,74.4934102 46,64 C46,53.5065898 54.5065898,45 65,45 C75.4934102,45 84,53.5065898 84,64 C84,74.4934102 75.4934102,83 65,83 Z M65,74 C70.5228475,74 75,69.5228475 75,64 C75,58.4771525 70.5228475,54 65,54 C59.4771525,54 55,58.4771525 55,64 C55,69.5228475 59.4771525,74 65,74 Z" id="Combined-Shape-Copy" fill="#000000"></path>
    </g>
</svg>