<?xml version="1.0" encoding="UTF-8"?>
<svg width="128px" height="128px" viewBox="0 0 128 128" version="1.1" xmlns="http://www.w3.org/2000/svg" xmlns:xlink="http://www.w3.org/1999/xlink">
    <!-- Generator: Sketch 49.1 (51147) - http://www.bohemiancoding.com/sketch -->
    <title>cross-thin</title>
    <desc>Created with Sketch.</desc>
    <defs></defs>
    <g id="cross-thin" stroke="none" stroke-width="1" fill="none" fill-rule="evenodd">
        <path d="M64,54.7058394 L109.185395,9.52044407 C111.528541,7.17729832 115.327531,7.17729832 117.670677,9.52044407 L118.479556,10.3293233 C120.822702,12.6724691 120.822702,16.4714589 118.479556,18.8146047 L73.2941606,64 L118.479556,109.185395 C120.822702,111.528541 120.822702,115.327531 118.479556,117.670677 L117.670677,118.479556 C115.327531,120.822702 111.528541,120.822702 109.185395,118.479556 L64,73.2941606 L18.8146047,118.479556 C16.4714589,120.822702 12.6724691,120.822702 10.3293233,118.479556 L9.52044407,117.670677 C7.17729832,115.327531 7.17729832,111.528541 9.52044407,109.185395 L54.7058394,64 L9.52044407,18.8146047 C7.17729832,16.4714589 7.17729832,12.6724691 9.52044407,10.3293233 L10.3293233,9.52044407 C12.6724691,7.17729832 16.4714589,7.17729832 18.8146047,9.52044407 L64,54.7058394 Z" id="Combined-Shape" fill="#000000"></path>
    </g>
</svg>