<?xml version="1.0" encoding="UTF-8"?>
<svg width="128px" height="128px" viewBox="0 0 128 128" version="1.1" xmlns="http://www.w3.org/2000/svg" xmlns:xlink="http://www.w3.org/1999/xlink">
    <!-- Generator: Sketch 49.1 (51147) - http://www.bohemiancoding.com/sketch -->
    <title>dashboard</title>
    <desc>Created with Sketch.</desc>
    <defs></defs>
    <g id="dashboard" stroke="none" stroke-width="1" fill="none" fill-rule="evenodd">
        <path d="M67.2394904,5.89299363 L67.2394904,49.4598726 C67.2394904,50.988535 68.0038217,51.7528662 69.5324841,51.7528662 L121.507006,51.7528662 C123.035669,51.7528662 123.8,50.988535 123.8,49.4598726 L123.8,5.89299363 C123.8,4.36433121 123.035669,3.6 121.507006,3.6 L69.5324841,3.6 C68.7681529,3.6 67.2394904,4.36433121 67.2394904,5.89299363 Z M112.335032,37.9949045 L78.7044586,37.9949045 L78.7044586,31.8802548 L112.335032,31.8802548 L112.335032,37.9949045 Z M112.335032,25.0012739 L78.7044586,25.0012739 L78.7044586,18.8866242 L112.335032,18.8866242 L112.335032,25.0012739 Z M3.8,5.89299363 L3.8,49.4598726 C3.8,50.988535 4.56433121,51.7528662 6.09299363,51.7528662 L58.0675159,51.7528662 C59.5961783,51.7528662 60.3605096,50.988535 60.3605096,49.4598726 L60.3605096,5.89299363 C60.3605096,4.36433121 59.5961783,3.6 58.0675159,3.6 L6.85732484,3.6 C5.32866242,3.6 3.8,4.36433121 3.8,5.89299363 Z M29.7872611,42.5808917 C21.3796178,42.5808917 14.5006369,35.7019108 14.5006369,27.2942675 C14.5006369,18.8866242 21.3796178,12.0076433 29.7872611,12.0076433 C38.1949045,12.0076433 45.0738854,18.8866242 45.0738854,27.2942675 L29.7872611,27.2942675 L36.666242,41.0522293 C34.3732484,41.8165605 32.0802548,42.5808917 29.7872611,42.5808917 Z M38.9592357,43.3452229 L32.0802548,28.8229299 L48.1312102,28.8229299 C48.1312102,35.7019108 44.3095541,41.0522293 38.9592357,43.3452229 Z M3.8,60.9248408 L3.8,120.542675 C3.8,122.071338 4.56433121,122.835669 6.09299363,122.835669 L66.4751592,122.835669 L71.8254777,122.835669 L121.507006,122.835669 C123.035669,122.835669 123.8,122.071338 123.8,120.542675 L123.8,60.9248408 C123.8,59.3961783 123.035669,58.6318471 121.507006,58.6318471 L6.85732484,58.6318471 C5.32866242,57.8675159 3.8,59.3961783 3.8,60.9248408 Z M45.8382166,119.014013 L33.6089172,119.014013 L33.6089172,63.9821656 L46.6025478,63.9821656 L45.8382166,119.014013 Z M70.2968153,119.014013 L57.3031847,119.014013 L57.3031847,86.1477707 L70.2968153,86.1477707 L70.2968153,119.014013 Z M94.755414,119.014013 L81.7617834,119.014013 L81.7617834,74.6828025 L94.755414,74.6828025 L94.755414,119.014013 Z" id="Shape" fill="#000000" fill-rule="nonzero"></path>
    </g>
</svg>