<?xml version="1.0" encoding="UTF-8"?>
<svg width="128px" height="128px" viewBox="0 0 128 128" version="1.1" xmlns="http://www.w3.org/2000/svg" xmlns:xlink="http://www.w3.org/1999/xlink">
    <!-- Generator: Sketch 49.1 (51147) - http://www.bohemiancoding.com/sketch -->
    <title>data</title>
    <desc>Created with Sketch.</desc>
    <defs></defs>
    <g id="data" stroke="none" stroke-width="1" fill="none" fill-rule="evenodd">
        <path d="M7.61538462,79.8461538 L21.4615385,79.8461538 L21.4615385,121.384615 L7.61538462,121.384615 L7.61538462,79.8461538 Z M39.9230769,59.0769231 L53.7692308,59.0769231 L53.7692308,121.384615 L39.9230769,121.384615 L39.9230769,59.0769231 Z M72.2307692,70.6153846 L86.0769231,70.6153846 L86.0769231,121.384615 L72.2307692,121.384615 L72.2307692,70.6153846 Z M104.538462,47.5384615 L118.384615,47.5384615 L118.384615,121.384615 L104.538462,121.384615 L104.538462,47.5384615 Z M86.0769231,6 L123,6 L123,42.9230769 L108,28.1538462 L72.9230769,63.2307692 L46.8461538,37.1538462 L10.8461538,72.9230769 C9,74.7692308 6.23076923,74.7692308 4.38461538,72.9230769 C2.53846154,71.0769231 2.53846154,68.3076923 4.38461538,66.4615385 L46.8461538,24 L72.9230769,50.0769231 L101.538462,21.4615385 L86.0769231,6 Z" id="Combined-Shape" fill="#000000" fill-rule="nonzero"></path>
    </g>
</svg>