<?xml version="1.0" encoding="UTF-8"?>
<svg width="128px" height="128px" viewBox="0 0 128 128" version="1.1" xmlns="http://www.w3.org/2000/svg" xmlns:xlink="http://www.w3.org/1999/xlink">
    <!-- Generator: Sketch 49.1 (51147) - http://www.bohemiancoding.com/sketch -->
    <title>delete</title>
    <desc>Created with Sketch.</desc>
    <defs></defs>
    <g id="delete" stroke="none" stroke-width="1" fill="none" fill-rule="evenodd">
        <path d="M97.552381,104.552381 L97.552381,42.8380952 L106.12381,42.8380952 L106.12381,104.552381 C106.12381,115.695238 97.552381,124.266667 86.4095238,124.266667 L40.1238095,124.266667 C28.9809524,124.266667 20.4095238,115.695238 20.4095238,104.552381 L20.4095238,42.8380952 L28.9809524,42.8380952 L28.9809524,104.552381 C28.9809524,110.552381 34.1238095,115.695238 40.1238095,115.695238 L86.4095238,115.695238 C92.4095238,115.695238 97.552381,110.552381 97.552381,104.552381 Z M88.9809524,21.4095238 L123.266667,21.4095238 L123.266667,29.9809524 L88.9809524,29.9809524 L37.552381,29.9809524 L3.26666667,29.9809524 L3.26666667,21.4095238 L37.552381,21.4095238 L37.552381,4.26666667 L88.9809524,4.26666667 L88.9809524,21.4095238 Z M46.1238095,21.4095238 L80.4095238,21.4095238 L80.4095238,12.8380952 L46.1238095,12.8380952 L46.1238095,21.4095238 Z M46.1238095,47.1238095 L54.6952381,47.1238095 L54.6952381,98.552381 L46.1238095,98.552381 L46.1238095,47.1238095 Z M71.8380952,47.1238095 L80.4095238,47.1238095 L80.4095238,98.552381 L71.8380952,98.552381 L71.8380952,47.1238095 Z" id="Combined-Shape" fill="#000000" fill-rule="nonzero"></path>
    </g>
</svg>