<?xml version="1.0" encoding="UTF-8"?>
<svg width="128px" height="128px" viewBox="0 0 128 128" version="1.1" xmlns="http://www.w3.org/2000/svg" xmlns:xlink="http://www.w3.org/1999/xlink">
    <!-- Generator: Sketch 49.1 (51147) - http://www.bohemiancoding.com/sketch -->
    <title>device-management</title>
    <desc>Created with Sketch.</desc>
    <defs></defs>
    <g id="device-management" stroke="none" stroke-width="1" fill="none" fill-rule="evenodd">
        <path d="M107.925926,122.074165 C94.5925926,128.740831 78.2962963,119.851942 76.8148148,105.037128 C76.8148148,102.074165 76.8148148,99.1112016 77.5555556,96.1482387 C78.2962963,94.6667572 77.5555556,93.9260164 76.8148148,93.1852757 C62.7407407,79.1112016 47.9259259,65.0371276 33.8518519,50.2223127 C33.1111111,49.481572 32.3703704,48.7408313 30.8888889,49.481572 C18.2962963,53.1852757 5.7037037,45.0371276 3.48148148,32.444535 C2.74074074,28.0000905 2.74074074,23.5556461 4.96296296,19.1112016 C5.7037037,19.1112016 6.44444444,19.8519424 6.44444444,19.8519424 C10.8888889,24.2963868 14.5925926,28.0000905 19.037037,32.444535 C22.7407407,36.1482387 27.1851852,36.1482387 30.1481481,33.1852757 C33.1111111,30.2223127 33.1111111,25.7778683 29.4074074,22.0741646 C24.962963,17.6297201 20.5185185,13.1852757 15.3333333,8.00009051 C22,5.03712755 28.6666667,5.03712755 35.3333333,8.74083126 C44.2222222,13.1852757 49.4074074,24.2963868 46.4444444,33.9260164 C45.7037037,35.4074979 46.4444444,36.1482387 47.1851852,36.8889794 C61.2592593,50.9630535 75.3333333,65.0371276 90.1481481,79.1112016 C91.6296296,80.5926831 92.3703704,80.5926831 93.8518519,79.8519424 C102.740741,77.6297201 110.148148,79.8519424 116.074074,86.518609 C122,92.444535 123.481481,99.8519424 120.518519,108.000091 C119.777778,109.481572 119.777778,110.222313 117.555556,108.740831 C113.111111,104.296387 109.407407,99.8519424 104.962963,96.1482387 C102.740741,93.9260164 99.7777778,93.1852757 96.8148148,93.9260164 C93.8518519,94.6667572 92.3703704,96.8889794 92.3703704,99.8519424 C92.3703704,102.814905 93.1111111,105.037128 95.3333333,106.518609 C98.2962963,112.444535 102.740741,116.888979 107.925926,122.074165 Z M2,113.185276 C2,110.222313 2.74074074,108.000091 4.96296296,105.777868 C16.8148148,93.9260164 28.6666667,82.0741646 40.5185185,70.9630535 C41.2592593,70.2223127 42,70.2223127 42.7407407,70.9630535 C47.1851852,75.4074979 51.6296296,79.8519424 56.0740741,84.2963868 C56.8148148,85.0371276 56.8148148,85.7778683 56.0740741,86.518609 C44.2222222,98.3704609 32.3703704,110.222313 20.5185185,121.333424 C14.5925926,127.25935 6.44444444,125.037128 2.74074074,118.370461 C2,116.888979 2,116.148239 2,113.185276 Z M76.8148148,57.6297201 C76.0740741,57.6297201 76.0740741,56.8889794 75.3333333,56.8889794 C73.8518519,55.4074979 71.6296296,53.1852757 70.1481481,51.7037942 C68.6666667,50.9630535 69.4074074,50.2223127 70.1481481,48.7408313 C74.5925926,44.2963868 79.037037,39.8519424 83.4814815,36.1482387 C87.1851852,33.1852757 90.1481481,29.481572 91.6296296,25.0371276 C93.8518519,17.6297201 99.037037,13.1852757 106.444444,10.9630535 C108.666667,10.2223127 110.888889,8.00009051 113.111111,8.00009051 C115.333333,8.00009051 116.814815,10.9630535 118.296296,12.444535 C120.518519,13.1852757 120.518519,14.6667572 119.037037,17.6297201 C116.814815,21.3334238 115.333333,25.0371276 113.111111,28.7408313 C112.37037,30.2223127 111.62963,30.9630535 110.148148,31.7037942 C100.518519,36.1482387 91.6296296,42.0741646 84.962963,50.2223127 C82.7407407,52.444535 80.5185185,54.6667572 78.2962963,56.8889794 C77.5555556,56.8889794 77.5555556,56.8889794 76.8148148,57.6297201 Z" id="设备管理" fill="#000000" fill-rule="nonzero"></path>
    </g>
</svg>