<?xml version="1.0" encoding="UTF-8"?>
<svg width="128px" height="128px" viewBox="0 0 128 128" version="1.1" xmlns="http://www.w3.org/2000/svg" xmlns:xlink="http://www.w3.org/1999/xlink">
    <!-- Generator: Sketch 49.1 (51147) - http://www.bohemiancoding.com/sketch -->
    <title>device</title>
    <desc>Created with Sketch.</desc>
    <defs></defs>
    <g id="device" stroke="none" stroke-width="1" fill="none" fill-rule="evenodd">
        <path d="M121.6,13 L6.4,13 C3.2,13 0,15.56 0,19.4 L0,109 C0,112.84 2.56,115.4 6.4,115.4 L121.6,115.4 C124.8,115.4 128,112.84 128,109 L128,19.4 C128,15.56 125.44,13 121.6,13 Z M6.4,109 C6.4,109 6.4,19.4 6.4,19.4 C6.4,19.4 121.6,19.4 121.6,19.4 C121.6,19.4 121.6,109 121.6,109 C121.6,109 6.4,109 6.4,109 Z M99.2,25.8 C108.16,25.8 115.2,37.32 115.2,51.4 C115.2,65.48 108.16,77 99.2,77 C90.24,77 83.2,65.48 83.2,51.4 C83.2,37.32 90.24,25.8 99.2,25.8 Z M99.2,70.6 C103.68,70.6 108.8,62.28 108.8,51.4 C108.8,40.52 103.68,32.2 99.2,32.2 C94.72,32.2 89.6,40.52 89.6,51.4 C89.6,62.28 94.72,70.6 99.2,70.6 Z M70.4,25.8 C74.24,25.8 76.8,29 76.8,32.2 L76.8,70.6 C76.8,74.44 73.6,77 70.4,77 L19.2,77 C15.36,77 12.8,73.8 12.8,70.6 L12.8,32.2 C12.8,28.36 16,25.8 19.2,25.8 L70.4,25.8 Z M70.4,70.6 C70.4,70.6 70.4,32.2 70.4,32.2 C70.4,32.2 19.2,32.2 19.2,32.2 C19.2,32.2 19.2,70.6 19.2,70.6 C19.2,70.6 70.4,70.6 70.4,70.6 Z M19.2,83.4 L32,83.4 L32,89.8 L19.2,89.8 L19.2,83.4 Z M38.4,83.4 L51.2,83.4 L51.2,89.8 L38.4,89.8 L38.4,83.4 Z M57.6,83.4 L70.4,83.4 L70.4,89.8 L57.6,89.8 L57.6,83.4 Z M19.2,96.2 L32,96.2 L32,102.6 L19.2,102.6 L19.2,96.2 Z M38.4,96.2 L51.2,96.2 L51.2,102.6 L38.4,102.6 L38.4,96.2 Z M57.6,96.2 L70.4,96.2 L70.4,102.6 L57.6,102.6 L57.6,96.2 Z" id="Combined-Shape" fill="#000000" fill-rule="nonzero"></path>
    </g>
</svg>