<?xml version="1.0" encoding="UTF-8"?>
<svg width="128px" height="128px" viewBox="0 0 128 128" version="1.1" xmlns="http://www.w3.org/2000/svg" xmlns:xlink="http://www.w3.org/1999/xlink">
    <!-- Generator: Sketch 49.1 (51147) - http://www.bohemiancoding.com/sketch -->
    <title>download-error</title>
    <desc>Created with Sketch.</desc>
    <defs></defs>
    <g id="download-error" stroke="none" stroke-width="1" fill="none" fill-rule="evenodd">
        <path d="M12.0666667,108.4 L114.466667,108.4 C119.179497,108.4 123,112.220503 123,116.933333 C123,121.646163 119.179497,125.466667 114.466667,125.466667 L12.0666667,125.466667 C7.3538368,125.466667 3.53333333,121.646163 3.53333333,116.933333 C3.53333333,112.220503 7.3538368,108.4 12.0666667,108.4 Z M42.6666667,70.8533333 L21.3333333,91.3333333 L0,70.8533333 L5.12,65.7333333 L17.0666667,76.8266667 L17.0666667,6 L25.6,6 L25.6,76.8266667 L37.5466667,65.7333333 L42.6666667,70.8533333 Z M85.3333333,91.3333333 C61.44,91.3333333 42.6666667,72.56 42.6666667,48.6666667 C42.6666667,24.7733333 61.44,6 85.3333333,6 C109.226667,6 128,24.7733333 128,48.6666667 C128,72.56 109.226667,91.3333333 85.3333333,91.3333333 Z M66.332,25 L61,30.332 L79.668,49 L61,67.668 L66.332,73 L85,54.332 L103.668,73 L109,67.668 L90.332,49 L109,30.332 L103.668,25 L85,43.668 L66.332,25 Z" id="Combined-Shape" fill="#000000" fill-rule="nonzero"></path>
    </g>
</svg>