<?xml version="1.0" encoding="UTF-8"?>
<svg width="128px" height="128px" viewBox="0 0 128 128" version="1.1" xmlns="http://www.w3.org/2000/svg" xmlns:xlink="http://www.w3.org/1999/xlink">
    <!-- Generator: Sketch 49.1 (51147) - http://www.bohemiancoding.com/sketch -->
    <title>down-square-o</title>
    <desc>Created with Sketch.</desc>
    <defs></defs>
    <g id="down-square-o" stroke="none" stroke-width="1" fill="none" fill-rule="evenodd">
        <path d="M106.857143,4 L21.1428571,4 C11.7142857,4 4,11.7142857 4,21.1428571 L4,106.857143 C4,116.285714 11.7142857,124 21.1428571,124 L106.857143,124 C116.285714,124 124,116.285714 124,106.857143 L124,21.1428571 C124,11.7142857 116.285714,4 106.857143,4 Z M115.428571,106.857143 C115.428571,112 112,115.428571 106.857143,115.428571 L21.1428571,115.428571 C16,115.428571 12.5714286,112 12.5714286,106.857143 L12.5714286,21.1428571 C12.5714286,16 16,12.5714286 21.1428571,12.5714286 L106.857143,12.5714286 C112,12.5714286 115.428571,16 115.428571,21.1428571 L115.428571,106.857143 Z M64,81.1428571 L98.2857143,46.8571429 L29.7142857,46.8571429 L64,81.1428571 Z" id="Combined-Shape" fill="#000000" fill-rule="nonzero"></path>
    </g>
</svg>