<?xml version="1.0" encoding="UTF-8"?>
<svg width="128px" height="128px" viewBox="0 0 128 128" version="1.1" xmlns="http://www.w3.org/2000/svg" xmlns:xlink="http://www.w3.org/1999/xlink">
    <!-- Generator: Sketch 49.1 (51147) - http://www.bohemiancoding.com/sketch -->
    <title>drag</title>
    <desc>Created with Sketch.</desc>
    <defs></defs>
    <g id="drag" stroke="none" stroke-width="1" fill="none" fill-rule="evenodd">
        <path d="M45.5294118,15.0588235 C41.3710325,15.0588235 38,11.6877911 38,7.52941176 C38,3.37103247 41.3710325,0 45.5294118,0 C49.6877911,0 53.0588235,3.37103247 53.0588235,7.52941176 C53.0588235,11.6877911 49.6877911,15.0588235 45.5294118,15.0588235 Z M45.5294118,52.7058824 C41.3710325,52.7058824 38,49.3348499 38,45.1764706 C38,41.0180913 41.3710325,37.6470588 45.5294118,37.6470588 C49.6877911,37.6470588 53.0588235,41.0180913 53.0588235,45.1764706 C53.0588235,49.3348499 49.6877911,52.7058824 45.5294118,52.7058824 Z M45.5294118,90.3529412 C41.3710325,90.3529412 38,86.9819083 38,82.8235294 C38,78.6651505 41.3710325,75.2941176 45.5294118,75.2941176 C49.6877911,75.2941176 53.0588235,78.6651505 53.0588235,82.8235294 C53.0588235,86.9819083 49.6877911,90.3529412 45.5294118,90.3529412 Z M45.5294118,128 C41.3710325,128 38,124.628967 38,120.470588 C38,116.312209 41.3710325,112.941176 45.5294118,112.941176 C49.6877911,112.941176 53.0588235,116.312209 53.0588235,120.470588 C53.0588235,124.628967 49.6877911,128 45.5294118,128 Z M83.1764706,15.0588235 C79.0180913,15.0588235 75.6470588,11.6877911 75.6470588,7.52941176 C75.6470588,3.37103247 79.0180913,0 83.1764706,0 C87.3348499,0 90.7058824,3.37103247 90.7058824,7.52941176 C90.7058824,11.6877911 87.3348499,15.0588235 83.1764706,15.0588235 Z M83.1764706,52.7058824 C79.0180913,52.7058824 75.6470588,49.3348499 75.6470588,45.1764706 C75.6470588,41.0180913 79.0180913,37.6470588 83.1764706,37.6470588 C87.3348499,37.6470588 90.7058824,41.0180913 90.7058824,45.1764706 C90.7058824,49.3348499 87.3348499,52.7058824 83.1764706,52.7058824 Z M83.1764706,90.3529412 C79.0180913,90.3529412 75.6470588,86.9819083 75.6470588,82.8235294 C75.6470588,78.6651505 79.0180913,75.2941176 83.1764706,75.2941176 C87.3348499,75.2941176 90.7058824,78.6651505 90.7058824,82.8235294 C90.7058824,86.9819083 87.3348499,90.3529412 83.1764706,90.3529412 Z M83.1764706,128 C79.0180913,128 75.6470588,124.628967 75.6470588,120.470588 C75.6470588,116.312209 79.0180913,112.941176 83.1764706,112.941176 C87.3348499,112.941176 90.7058824,116.312209 90.7058824,120.470588 C90.7058824,124.628967 87.3348499,128 83.1764706,128 Z" id="Combined-Shape" fill="#000000" fill-rule="nonzero"></path>
    </g>
</svg>