<?xml version="1.0" encoding="UTF-8"?>
<svg width="128px" height="128px" viewBox="0 0 128 128" version="1.1" xmlns="http://www.w3.org/2000/svg" xmlns:xlink="http://www.w3.org/1999/xlink">
    <!-- Generator: Sketch 49.1 (51147) - http://www.bohemiancoding.com/sketch -->
    <title>earth</title>
    <desc>Created with Sketch.</desc>
    <defs></defs>
    <g id="earth" stroke="none" stroke-width="1" fill="none" fill-rule="evenodd">
        <path d="M128,64 C128,28.8 99.2,0 64,0 C28.8,0 0,28.8 0,64 C0,96.8 24.8,123.2 56,127.2 C57.6,128 60,128 62.4,128 C63.2,128 64,128 64.8,128 C100,127.2 128,99.2 128,64 Z M119.2,64.8 C119.2,61.6 118.4,58.4 117.6,55.2 C117.6,54.4 117.6,52.8 117.6,52 C118.4,56 119.2,60 119.2,64 C119.2,64 119.2,64.8 119.2,64.8 Z M8.8,64 C8.8,60 9.6,56 9.6,52.8 C12,55.2 17.6,55.2 19.2,51.2 C22.4,52.8 25.6,52.8 25.6,56 C25.6,65.6 25.6,76 34.4,76 C34.4,76 39.2,77.6 41.6,83.2 C42.4,84.8 45.6,83.2 48.8,83.2 C50.4,83.2 48.8,85.6 48.8,92 C48.8,97.6 61.6,107.2 61.6,107.2 C61.6,111.2 61.6,114.4 62.4,116.8 C59.2,116.8 56.8,116.8 55.2,117.6 C28.8,113.6 8.8,91.2 8.8,64 Z M77.6,116.8 C77.6,115.2 76,114.4 73.6,115.2 C75.2,107.2 76,103.2 80,100 C85.6,95.2 80.8,89.6 76.8,90.4 C73.6,91.2 75.2,86.4 72.8,86.4 C69.6,86.4 66.4,80 61.6,78.4 C59.2,77.6 56.8,74.4 53.6,74.4 C50.4,74.4 46.4,76.8 46.4,75.2 C46.4,68.8 45.6,64 45.6,61.6 C45.6,60 44.8,60.8 48.8,60.8 C51.2,60.8 49.6,56 52,56 C54.4,56 59.2,58.4 60.8,56.8 C62.4,56 69.6,77.6 69.6,60 C69.6,57.6 68.8,54.4 69.6,52.8 C73.6,45.6 77.6,39.2 77.6,38.4 C77.6,37.6 73.6,37.6 70.4,38.4 C69.6,38.4 70.4,40.8 68.8,40.8 C62.4,43.2 57.6,40 59.2,37.6 C60.8,34.4 68,36 68,30.4 C68,27.2 68.8,23.2 68.8,20.8 C76.8,22.4 76,10.4 64,9.6 C88,9.6 108,24.8 115.2,46.4 C115.2,46.4 114.4,45.6 113.6,45.6 C110.4,36.8 101.6,43.2 104,51.2 C88,63.2 92,72 97.6,76.8 C100,79.2 103.2,83.2 104.8,85.6 C103.2,91.2 111.2,88.8 116,80 C111.2,97.6 96,112 77.6,116.8 Z" id="Shape" fill="#000000" fill-rule="nonzero"></path>
    </g>
</svg>