<?xml version="1.0" encoding="UTF-8"?>
<svg width="128px" height="128px" viewBox="0 0 128 128" version="1.1" xmlns="http://www.w3.org/2000/svg" xmlns:xlink="http://www.w3.org/1999/xlink">
    <!-- Generator: Sketch 49.1 (51147) - http://www.bohemiancoding.com/sketch -->
    <title>edit</title>
    <desc>Created with Sketch.</desc>
    <defs></defs>
    <g id="edit" stroke="none" stroke-width="1" fill="none" fill-rule="evenodd">
        <path d="M6.44912281,120.814035 L122.547368,120.814035 L122.547368,127.775439 L6.44912281,127.775439 L6.44912281,120.814035 Z M118.954386,33.9087719 L107.726316,45.3614035 L78.0842105,15.7192982 L89.3122807,4.26666667 C93.1298246,0.673684211 98.9684211,0.673684211 102.561404,4.26666667 L118.954386,20.6596491 C122.547368,24.477193 122.547368,30.3157895 118.954386,33.9087719 Z M94.2526316,9.20701754 L87.5157895,15.7192982 L107.501754,35.9298246 L114.238596,29.1929825 C115.136842,28.2947368 115.136842,26.4982456 114.238596,25.6 L97.845614,9.20701754 C96.9473684,8.30877193 95.1508772,8.30877193 94.2526316,9.20701754 Z M105.929825,46.9333333 L50.2385965,102.849123 L20.5964912,73.2070175 L76.2877193,17.5157895 L105.929825,46.9333333 Z M76.2877193,26.9473684 L30.0280702,73.2070175 L50.0140351,93.1929825 L96.2736842,46.9333333 L76.2877193,26.9473684 Z M18.8,75.2280702 L48.8912281,105.319298 L7.12280702,116.996491 L18.8,75.2280702 Z M22.3929825,87.8035088 L17.0035088,107.115789 L36.3157895,101.726316 L22.3929825,87.8035088 Z" id="Combined-Shape" fill="#000000" fill-rule="nonzero"></path>
    </g>
</svg>