<?xml version="1.0" encoding="UTF-8"?>
<svg width="128px" height="128px" viewBox="0 0 128 128" version="1.1" xmlns="http://www.w3.org/2000/svg" xmlns:xlink="http://www.w3.org/1999/xlink">
    <!-- Generator: Sketch 49.1 (51147) - http://www.bohemiancoding.com/sketch -->
    <title>edit-square</title>
    <desc>Created with Sketch.</desc>
    <defs></defs>
    <g id="edit-square" stroke="none" stroke-width="1" fill="none" fill-rule="evenodd">
        <path d="M107.831585,101.643103 L108.63029,101.643103 L108.63029,57.7143552 L116.617335,57.7143552 L116.617335,102.441807 C116.617335,112.824966 107.831585,121.610715 97.4484267,121.610715 L23.168908,121.610715 C12.7857495,121.610715 4,112.824966 4,102.441807 L4,28.1622887 C4,17.7791302 12.7857495,8.99338065 23.168908,8.99338065 L67.8963601,8.99338065 L67.8963601,16.9804257 L23.168908,16.9804257 C16.779272,16.9804257 11.987045,22.5713572 11.987045,28.1622887 L11.987045,101.643103 C11.987045,108.032739 17.5779765,112.824966 23.168908,112.824966 L96.6497222,112.824966 C103.039358,112.824966 107.831585,107.234034 107.831585,101.643103 Z M101.409442,4.9124 L124,27.5029581 L112.704721,38.7982372 L90.1141628,16.2076791 L101.409442,4.9124 Z M35.9481801,88.8638308 L35.9481801,64.9026957 L84.6691546,21.7726527 L107.032881,44.1363787 L59.9093151,88.8638308 L35.9481801,88.8638308 Z" id="Combined-Shape" fill="#000000" fill-rule="nonzero"></path>
    </g>
</svg>