<?xml version="1.0" encoding="UTF-8"?>
<svg width="128px" height="128px" viewBox="0 0 128 128" version="1.1" xmlns="http://www.w3.org/2000/svg" xmlns:xlink="http://www.w3.org/1999/xlink">
    <!-- Generator: Sketch 49.1 (51147) - http://www.bohemiancoding.com/sketch -->
    <title>empty-box-o</title>
    <desc>Created with Sketch.</desc>
    <defs></defs>
    <g id="empty-box-o" stroke="none" stroke-width="1" fill="none" fill-rule="evenodd">
        <path d="M122.2,56.3 L111.2,32.5 C111.2,32 111.2,31.5 110.7,31.1 C110.7,30.6 110.2,29.7 109.3,29.2 C108.3,28.2 106.9,27.8 106.9,27.8 L61.1,13.3 C60.1,12.8 59.2,13.3 58.2,13.8 L21.1,33.4 C18.7,34.4 16.8,35.8 16.3,36.7 C16.3,37.2 15.8,37.7 15.8,38.1 C15.8,38.6 15.3,38.6 15.3,39.1 L6.3,62 C5.8,63.4 5.8,65.3 6.3,66.8 C7.3,68.2 8.7,69.2 10.1,69.7 L16.3,71.1 L16.3,89.7 C16.3,91.6 17.3,93 18.7,93.5 L75,111.6 C75.5,111.6 75.5,111.6 76,111.6 C77,111.6 77.9,111.1 78.4,110.6 L109.8,82 C110.8,81.5 110.8,80.1 110.8,79.1 L110.8,59.6 L117,62 C118.4,62.5 119.9,62 121.3,61 C122.7,59.6 122.7,57.7 122.2,56.3 Z M111.2,53.4 L111.2,45.8 L115.5,54.9 L111.2,53.4 Z M105.5,36.2 L105.5,78.2 L78.3,103 L76.9,54.4 L105.5,36.2 Z M56.8,45.3 L26.3,36.7 L59.7,19.5 L101.2,32.4 L73.5,49.6 C71.2,49.1 65,47.2 56.8,45.3 Z M64,80.6 L11.1,63.9 L20.2,41.5 C32.6,44.8 43.1,47.7 50.7,49.6 C53.1,50.1 55,50.6 56.9,51 L71.2,55.3 L64,80.6 Z M21.6,73 L62.6,85.9 C63.1,85.9 63.6,86.4 64,86.4 C66.4,86.4 68.8,85 69.2,82.1 L71.6,74 L72.6,104.5 L21.6,88.3 L21.6,73 Z" id="Shape" fill="#000000" fill-rule="nonzero"></path>
    </g>
</svg>