<?xml version="1.0" encoding="UTF-8"?>
<svg width="128px" height="128px" viewBox="0 0 128 128" version="1.1" xmlns="http://www.w3.org/2000/svg" xmlns:xlink="http://www.w3.org/1999/xlink">
    <!-- Generator: Sketch 49.1 (51147) - http://www.bohemiancoding.com/sketch -->
    <title>error-tip</title>
    <desc>Created with Sketch.</desc>
    <defs></defs>
    <g id="error-tip" stroke="none" stroke-width="1" fill="none" fill-rule="evenodd">
        <path d="M20,4 L110,4 C118.284271,4 125,10.7157288 125,19 L125,109 C125,117.284271 118.284271,124 110,124 L20,124 C11.7157288,124 5,117.284271 5,109 L5,19 C5,10.7157288 11.7157288,4 20,4 Z M66.1466667,31.84 C61.88,31.84 58.4666667,35.2533333 58.4666667,39.3066667 C58.4666667,43.36 62.0933333,76.4266667 66.1466667,77.0666667 C70.6266667,76.4266667 73.8266667,43.36 73.8266667,39.3066667 C73.8266667,35.2533333 70.4133333,31.84 66.1466667,31.84 Z M66.1466667,95.84 C69.3278268,95.84 71.9066667,93.2611602 71.9066667,90.08 C71.9066667,86.8988398 69.3278268,84.32 66.1466667,84.32 C62.9655065,84.32 60.3866667,86.8988398 60.3866667,90.08 C60.3866667,93.2611602 62.9655065,95.84 66.1466667,95.84 Z" id="Combined-Shape" fill="#000000" fill-rule="nonzero"></path>
    </g>
</svg>