<?xml version="1.0" encoding="UTF-8"?>
<svg width="128px" height="128px" viewBox="0 0 128 128" version="1.1" xmlns="http://www.w3.org/2000/svg" xmlns:xlink="http://www.w3.org/1999/xlink">
    <!-- Generator: Sketch 49.1 (51147) - http://www.bohemiancoding.com/sketch -->
    <title>exclamatory-circle</title>
    <desc>Created with Sketch.</desc>
    <defs></defs>
    <g id="exclamatory-circle" stroke="none" stroke-width="1" fill="none" fill-rule="evenodd">
        <path d="M65,0 C100.2,0 129,28.8 129,64 C129,99.2 100.2,128 65,128 C29.8,128 1,99.2 1,64 C1,28.8 29.8,0 65,0 Z M65.5,118 C94.925,118 119,93.925 119,64.5 C119,35.075 94.925,11 65.5,11 C36.075,11 12,35.075 12,64.5 C12,93.925 36.075,118 65.5,118 Z M64,21.3333333 C56.1777778,21.3333333 49.7777778,27.7333333 49.7777778,35.5555556 C49.7777778,43.3777778 56.1777778,78.9333333 64,78.2222222 C71.8222222,78.9333333 78.2222222,43.3777778 78.2222222,35.5555556 C78.2222222,27.7333333 71.8222222,21.3333333 64,21.3333333 Z M64,106.666667 C69.8910373,106.666667 74.6666667,101.891037 74.6666667,96 C74.6666667,90.1089627 69.8910373,85.3333333 64,85.3333333 C58.1089627,85.3333333 53.3333333,90.1089627 53.3333333,96 C53.3333333,101.891037 58.1089627,106.666667 64,106.666667 Z" id="Combined-Shape-Copy" fill="#000000"></path>
    </g>
</svg>