<?xml version="1.0" encoding="UTF-8"?>
<svg width="128px" height="128px" viewBox="0 0 128 128" version="1.1" xmlns="http://www.w3.org/2000/svg" xmlns:xlink="http://www.w3.org/1999/xlink">
    <!-- Generator: Sketch 49.1 (51147) - http://www.bohemiancoding.com/sketch -->
    <title>exclamatory</title>
    <desc>Created with Sketch.</desc>
    <defs></defs>
    <g id="exclamatory" stroke="none" stroke-width="1" fill="none" fill-rule="evenodd">
        <path d="M54.8571429,116.142857 C54.8571429,121.032 59.8968571,125 63.7142857,125 C67.5405714,125 72.5714286,121.032 72.5714286,116.142857 C72.5714286,111.253714 67.5405714,107.285714 63.7142857,107.285714 C59.888,107.285714 54.8571429,111.253714 54.8571429,116.142857 Z M63.7142857,1 C51.2965714,1 46,13.7277143 46,18.7142857 C46,23.692 55.0962857,77.2777143 56.7968571,85.32 C57.9748571,90.9 59.8968571,94.1771429 63.7142857,94.1771429 C67.5405714,94.1771429 68.8957143,92.4942857 70.6317143,85.32 C72.6068571,77.1802857 81.4285714,24.5245714 81.4285714,18.7142857 C81.4285714,12.904 76.256,1 63.7142857,1 Z" id="Shape" fill="#000000" fill-rule="nonzero"></path>
    </g>
</svg>