<?xml version="1.0" encoding="UTF-8"?>
<svg width="128px" height="128px" viewBox="0 0 128 128" version="1.1" xmlns="http://www.w3.org/2000/svg" xmlns:xlink="http://www.w3.org/1999/xlink">
    <!-- Generator: Sketch 49.1 (51147) - http://www.bohemiancoding.com/sketch -->
    <title>export</title>
    <desc>Created with Sketch.</desc>
    <defs></defs>
    <g id="export" stroke="none" stroke-width="1" fill="none" fill-rule="evenodd">
        <path d="M71.554724,21.2145067 L71.554724,95.0606606 C71.554724,98.0145067 69.5854933,99.9837375 66.6316471,99.9837375 C63.6778009,99.9837375 61.7085702,98.0145067 61.7085702,95.0606606 L61.7085702,23.1837375 L43.0008779,41.8914298 C41.0316471,43.8606606 38.0778009,43.8606606 36.1085702,41.8914298 C34.1393394,39.9221991 34.1393394,36.9683529 36.1085702,34.9991221 L60.7239548,10.3837375 C64.6624163,6.44527597 70.5701086,6.44527597 74.5085702,10.3837375 L99.1239548,34.9991221 C101.093186,36.9683529 101.093186,39.9221991 99.1239548,41.8914298 C97.154724,43.8606606 94.2008779,43.8606606 92.2316471,41.8914298 L71.554724,21.2145067 Z M116.847032,85.2145067 C116.847032,82.2606606 118.816262,80.2914298 121.770109,80.2914298 C124.723955,80.2914298 126.693186,82.2606606 126.693186,85.2145067 L126.693186,109.829891 C126.693186,118.69143 119.800878,124.599122 111.923955,124.599122 L21.3393394,124.599122 C13.4624163,125.583738 6.57010864,118.69143 6.57010864,110.814507 L6.57010864,85.2145067 C6.57010864,82.2606606 8.53933941,80.2914298 11.4931856,80.2914298 C14.4470317,80.2914298 16.4162625,82.2606606 16.4162625,85.2145067 L16.4162625,109.829891 C16.4162625,113.768353 18.3854933,115.737584 21.3393394,115.737584 L111.923955,115.737584 C114.877801,115.737584 116.847032,113.768353 116.847032,110.814507 L116.847032,85.2145067 Z" id="Fill-1-Copy" fill="#000000" fill-rule="nonzero" transform="translate(66.631647, 66.061538) rotate(-270.000000) translate(-66.631647, -66.061538) "></path>
    </g>
</svg>