<?xml version="1.0" encoding="UTF-8"?>
<svg width="128px" height="128px" viewBox="0 0 128 128" version="1.1" xmlns="http://www.w3.org/2000/svg" xmlns:xlink="http://www.w3.org/1999/xlink">
    <!-- Generator: Sketch 54.1 (76490) - https://sketchapp.com -->
    <title>Hide password</title>
    <desc>Created with Sketch.</desc>
    <g id="Hide-password" stroke="none" stroke-width="1" fill="none" fill-rule="evenodd">
        <path d="M112.93997,51.4876114 L126.905157,65.4527982 C128.364948,66.9125896 128.364948,69.2793789 126.905157,70.7391702 C125.445365,72.1989615 123.078576,72.1989615 121.618785,70.7391702 L107.299704,56.4200898 C102.62319,60.1305169 97.6784162,63.1545524 92.4701501,65.4879575 L101.313954,84.4535566 C102.186431,86.3245897 101.376942,88.5486442 99.5059085,89.4211213 C97.6348753,90.2935984 95.4108208,89.4841087 94.5383437,87.6130756 L85.4667226,68.1589213 C79.835323,69.9470676 73.9236447,70.9927136 67.7369823,71.291153 C67.7376791,71.3208558 67.7380295,71.3506443 67.7380295,71.3805147 L67.7380295,93.8086915 C67.7380295,95.8731482 66.0644567,97.546721 64,97.546721 C61.9355433,97.546721 60.2619705,95.8731482 60.2619705,93.8086915 L60.2619705,71.3805147 C60.2619705,71.3506443 60.2623209,71.3208558 60.2630177,71.291153 C53.6190614,70.9706541 47.2922431,69.788405 41.2891204,67.7502347 L32.0269255,87.6130756 C31.1544485,89.4841087 28.930394,90.2935984 27.0593608,89.4211213 C25.1883277,88.5486442 24.378838,86.3245897 25.2513151,84.4535566 L34.3484486,64.9446908 C29.5724903,62.6915358 25.0218516,59.8488871 20.7002959,56.4200898 L6.38121546,70.7391702 C4.92142414,72.1989615 2.55463479,72.1989615 1.09484348,70.7391702 C-0.364947828,69.2793789 -0.364947828,66.9125896 1.09484348,65.4527982 L15.0600303,51.4876114 C11.514416,48.0850919 8.13998256,44.2488647 4.93913438,39.9810671 C3.70046038,38.3295018 4.03517494,35.9864999 5.68674028,34.7478259 C7.33830561,33.5091519 9.68130753,33.8438664 10.9199815,35.4954318 C25.186794,54.5178484 42.7866828,63.9044557 64,63.9044557 C85.2133172,63.9044557 102.813206,54.5178484 117.080018,35.4954318 C118.318692,33.8438664 120.661694,33.5091519 122.31326,34.7478259 C123.964825,35.9864999 124.29954,38.3295018 123.060866,39.9810671 C119.860017,44.2488647 116.485584,48.0850919 112.93997,51.4876114 Z" id="形状结合" fill="#000000" fill-rule="nonzero"></path>
    </g>
</svg>