<?xml version="1.0" encoding="UTF-8"?>
<svg width="128px" height="128px" viewBox="0 0 128 128" version="1.1" xmlns="http://www.w3.org/2000/svg" xmlns:xlink="http://www.w3.org/1999/xlink">
    <!-- Generator: Sketch 54.1 (76490) - https://sketchapp.com -->
    <title>Show password</title>
    <desc>Created with Sketch.</desc>
    <g id="Show-password" stroke="none" stroke-width="1" fill="none" fill-rule="evenodd">
        <path d="M64.002042,98.3347876 C37.9871824,98.3347876 13.8333609,84.1317107 0.962743793,61.2687786 L-5.68434189e-14,58.7787282 L0.963018808,57.0652224 C13.8332207,34.2030617 37.9871998,20 64.002042,20 C90.0217031,20 114.174938,34.2043045 127.037271,57.0688169 L128,59.556553 L127.037488,61.2654363 C114.176021,84.1320229 90.0238435,98.3347876 64.002042,98.3347876 Z M64.0054665,89.7715274 C86.0947848,89.7715274 106.710701,78.1352586 118.346776,59.1673349 C106.714703,40.2006463 86.0957944,28.5632602 64.0054665,28.5632602 C41.9206583,28.5632602 21.3008919,40.2020606 9.66427548,59.1673323 C21.3049883,78.1337518 41.9220032,89.7715274 64.0054665,89.7715274 Z M69.4577555,38.5052782 C66.1742996,40.6224421 64.0002552,44.312014 64.0002552,48.5093612 C64.0002552,55.0786783 69.325739,60.4041621 75.8950561,60.4041621 C79.5624514,60.4041621 82.8421991,58.744445 85.0241519,56.1351579 C85.1598815,57.1077816 85.2300509,58.101402 85.2300509,59.1114099 C85.2300509,70.8969065 75.6758686,80.4510888 63.890372,80.4510888 C52.1048754,80.4510888 42.5506932,70.8970554 42.5506932,59.1114099 C42.5506932,47.3259134 52.1048754,37.7717311 63.890372,37.7717311 C65.8164137,37.7717311 67.6828622,38.0269008 69.4577555,38.5052782 L69.4577555,38.5052782 Z" id="形状" fill="#000000" fill-rule="nonzero"></path>
    </g>
</svg>