<?xml version="1.0" encoding="UTF-8"?>
<svg width="128px" height="128px" viewBox="0 0 128 128" version="1.1" xmlns="http://www.w3.org/2000/svg" xmlns:xlink="http://www.w3.org/1999/xlink">
    <!-- Generator: Sketch 49.1 (51147) - http://www.bohemiancoding.com/sketch -->
    <title>function</title>
    <desc>Created with Sketch.</desc>
    <defs></defs>
    <g id="function" stroke="none" stroke-width="1" fill="none" fill-rule="evenodd">
        <path d="M76.8769231,71.7358974 C76.8769231,73.4051282 76.1615385,74.8358974 74.9692308,75.074359 C74.0153846,76.2666667 72.3461538,78.174359 70.2,80.3205128 C66.8615385,83.6589744 64.9538462,85.0897436 62.3307692,85.0897436 C60.9,85.0897436 59.7076923,84.6128205 58.5153846,83.8974359 L58.2769231,83.6589744 L54.7,81.0358974 C54.4615385,83.4205128 54.2230769,85.3282051 53.7461538,86.7589744 C53.0307692,89.6205128 50.6461538,91.5282051 47.5461538,91.5282051 L37.0538462,91.5282051 C35.6230769,91.5282051 34.1923077,91.0512821 33,90.0974359 C31.8076923,89.1435897 31.0923077,87.7128205 30.8538462,86.2820513 L30.1384615,81.274359 L26.5615385,83.8974359 C25.6076923,84.8512821 23.9384615,85.3282051 22.5076923,85.3282051 C21.0769231,85.3282051 19.6461538,84.8512821 18.4538462,83.8974359 L18.2153846,83.6589744 C11.0615385,76.9820513 8.67692308,74.3589744 8.67692308,71.2589744 C8.67692308,69.8282051 9.15384615,68.6358974 9.86923077,67.4435897 C10.3461538,66.9666667 11.0615385,65.774359 12.2538462,64.3435897 C12.4923077,64.1051282 12.7307692,63.8666667 12.9692308,63.6282051 L7.48461538,62.674359 C5.81538462,62.4358974 4.38461538,61.7205128 3.43076923,60.5282051 C2.47692308,59.3358974 2,57.9051282 2,56.474359 L2,46.2205128 C2,44.7897436 2.47692308,43.5974359 3.43076923,42.4051282 C4.38461538,41.2128205 5.81538462,40.2589744 7.48461538,40.0205128 L12.7307692,39.3051282 C11.7769231,38.3512821 10.8230769,37.1589744 9.86923077,35.9666667 L9.63076923,35.7282051 L9.39230769,35.4897436 C8.67692308,34.5358974 8.2,33.3435897 8.2,31.9128205 C8.2,30.4820513 8.67692308,29.0512821 9.63076923,27.8589744 C10.5846154,26.4282051 12.2538462,24.7589744 14.6384615,22.374359 C17.9769231,19.0358974 19.8846154,17.6051282 22.5076923,17.6051282 C23.9384615,17.6051282 25.1307692,18.0820513 26.3230769,18.7974359 L26.5615385,19.0358974 L30.1384615,21.6589744 C30.3769231,19.274359 30.6153846,17.3666667 31.0923077,15.9358974 C31.8076923,13.074359 34.1923077,11.1666667 37.2923077,11.1666667 L47.7846154,11.1666667 C49.2153846,11.1666667 50.6461538,11.6435897 52.3153846,13.5512821 C53.5076923,14.5051282 54.2230769,15.9358974 54.4615385,17.3666667 L55.1769231,22.374359 L58.7538462,19.7512821 C59.9461538,18.7974359 61.3769231,18.3205128 62.8076923,18.3205128 C64.2384615,18.3205128 65.6692308,18.7974359 66.8615385,19.7512821 L67.1,19.9897436 C74.2538462,26.6666667 76.6384615,29.2897436 76.6384615,32.3897436 C76.6384615,33.5820513 76.1615385,35.0128205 75.2076923,36.2051282 C74.7307692,36.9205128 74.0153846,37.874359 72.8230769,39.3051282 C72.8230769,39.5435897 72.5846154,39.7820513 72.3461538,40.0205128 L78.0692308,40.974359 C79.7384615,41.2128205 80.9307692,41.9282051 81.8846154,43.1205128 C82.8384615,44.3128205 83.3153846,45.7435897 83.3153846,47.174359 L83.3153846,57.4282051 C83.3153846,58.8589744 82.8384615,60.0512821 81.8846154,61.2435897 C80.9307692,62.4358974 79.5,63.3897436 77.8307692,63.6282051 L72.5846154,64.3435897 C73.5384615,65.2974359 74.4923077,66.4897436 75.4461538,67.6820513 L75.6846154,67.9205128 C76.4,69.1128205 76.8769231,70.3051282 76.8769231,71.7358974 Z M65.4304253,76.6169071 C66.736327,75.5721857 67.7810484,74.5274643 68.3034091,74.0051036 C66.736327,71.9156607 65.4304253,70.3485786 64.3857039,68.7814965 L62.5574414,66.169693 L64.1245235,63.2967092 C64.9080646,61.7296271 65.4304253,60.4237253 65.6916056,59.3790039 L66.736327,56.2448397 L69.8704912,55.722479 L76.4,54.6777576 L76.4,49.1929703 L66.9975074,47.8870685 L65.952786,44.7529043 C65.6916056,43.4470026 64.9080646,42.1411008 64.1245235,40.3128384 L62.8186218,37.7010349 L64.3857039,35.0892314 C64.9080646,34.04451 65.952786,32.7386082 67.2586877,31.1715261 C67.5198681,30.9103458 67.7810484,30.3879851 68.0422288,30.1268047 C66.9975074,29.0820833 65.6916056,27.5150012 63.8633432,25.9479191 L56.289113,31.6938868 L53.4161292,30.1268047 C52.1102274,29.3432637 50.8043257,28.820903 49.7596043,28.5597226 L46.6254401,27.5150012 L46.1030794,24.1196567 L45.058358,17.5901479 L39.3123903,17.5901479 C39.0512099,19.15723 38.7900296,21.2466728 38.5288492,23.8584763 L38.2676689,27.2538209 L35.1335047,28.2985423 C33.5664226,28.820903 32.2605208,29.3432637 31.2157994,29.8656244 L28.3428156,31.4327065 L20.7685854,25.4255584 C20.2462247,25.9479191 19.9850444,26.2090995 19.4626837,26.7314602 C18.4179623,27.7761816 17.3732409,28.820903 16.5896998,29.604444 C18.1567819,31.4327065 19.4626837,33.2609689 20.5074051,34.828051 L22.3356675,37.4398545 L20.7685854,40.3128384 C19.9850444,41.8799205 19.4626837,43.1858222 19.2015033,44.2305436 L18.1567819,47.3647078 L15.0226177,47.8870685 L8.49310897,48.9317899 L8.49310897,54.4165773 L17.8956016,55.9836594 L18.940323,59.1178236 C19.4626837,60.4237253 19.9850444,61.7296271 20.7685854,63.2967092 L22.3356675,66.169693 L20.5074051,68.7814965 C19.723864,69.8262179 18.6791426,71.1321197 17.3732409,72.6992018 C17.1120605,72.9603821 16.8508802,73.4827429 16.5896998,73.7439232 C17.6344212,74.7886446 18.940323,76.3557267 20.7685854,77.9228088 L28.3428156,71.6544804 L31.2157994,73.2215625 C32.5217012,74.0051036 33.8276029,74.5274643 34.8723243,74.7886446 L38.0064885,75.833366 L38.5288492,79.2287106 L39.5735706,85.7582193 L45.3195383,85.7582193 C45.5807187,84.1911372 45.841899,82.1016944 46.1030794,79.4898909 L46.3642597,76.0945464 L49.7596043,75.049825 C51.065506,74.5274643 52.3714078,74.0051036 53.6773095,73.4827429 L56.5502934,71.9156607 L64.1245235,77.9228088 C64.6468842,77.4004481 64.9080646,77.1392678 65.4304253,76.6169071 Z M123.421775,21.0570567 C124.710888,21.0570567 126,22.3461692 126,23.6352817 L126,28.7917317 C126,30.5105484 124.710888,31.7996609 122.992071,31.7996609 L119.554438,31.7996609 C119.124733,32.6590692 118.695029,33.5184776 118.265325,34.3778859 C117.835621,35.2372942 117.405917,36.0967026 116.546508,36.5264067 L118.265325,39.5343359 C119.124733,40.8234484 118.695029,42.5422651 117.405917,43.4016734 L113.108875,46.4096026 C111.819763,47.2690109 110.100946,46.8393067 109.241538,45.5501942 L107.522721,42.5422651 C105.3742,42.9719692 103.655383,42.9719692 101.506863,42.5422651 L99.7880458,45.5501942 C98.9286375,46.8393067 97.2098208,47.2690109 95.9207083,46.4096026 L91.1939625,43.8313776 C89.90485,42.9719692 89.4751458,41.2531526 90.3345542,39.9640401 L92.0533708,36.9561109 C90.7642583,35.2372942 89.90485,33.5184776 89.0454417,31.7996609 L85.6078083,31.7996609 C84.3186958,31.7996609 83.0295833,30.5105484 83.4592875,28.7917317 L83.4592875,23.6352817 C83.4592875,22.3461692 84.7484,21.0570567 86.0375125,21.0570567 L89.4751458,21.0570567 C89.90485,20.1976484 90.3345542,19.3382401 90.7642583,18.4788317 C91.1939625,17.6194234 92.0533708,16.7600151 92.483075,15.9006067 L90.7642583,12.8926776 C89.90485,11.6035651 90.3345542,9.8847484 91.6236667,9.02534007 L95.9207083,6.44711507 C97.2098208,5.58770674 98.9286375,6.01741091 99.7880458,7.30652341 L101.506863,10.3144526 C103.655383,10.3144526 105.3742,10.3144526 107.522721,10.3144526 L109.241538,7.30652341 C110.100946,6.01741091 111.819763,5.58770674 113.108875,6.44711507 L117.835621,9.02534007 C119.124733,9.8847484 119.554438,11.6035651 118.695029,12.8926776 L116.976213,15.9006067 C118.265325,17.6194234 119.124733,19.3382401 119.984142,21.0570567 L123.421775,21.0570567 Z M113.538579,31.7996609 C116.116804,26.6432109 114.397988,20.6273526 109.671242,18.0491276 C104.944496,15.4709026 98.9286375,17.1897192 95.9207083,21.9164651 C93.3424833,26.6432109 95.0613,32.6590692 99.7880458,35.6669984 C104.514792,38.2452234 110.53065,36.5264067 113.538579,31.7996609 Z M122.835815,90.3541151 C124.417907,90.3541151 126,91.9362077 126,93.5183003 L126,99.8466708 C126,101.956128 124.417907,103.53822 122.308451,103.53822 L118.089537,103.53822 C117.562173,104.592949 117.034809,105.647677 116.507444,106.702405 C115.98008,107.757134 115.452716,108.811862 114.397988,109.339226 L116.507444,113.030776 C117.562173,114.612868 117.034809,116.722325 115.452716,117.777054 L110.179074,121.468603 C108.596981,122.523332 106.487524,121.995967 105.432796,120.413875 L103.323339,116.722325 C100.686518,117.24969 98.5770614,117.24969 95.9402404,116.722325 L93.8307835,120.413875 C92.7760551,121.995967 90.6665983,122.523332 89.0845057,121.468603 L83.2834994,118.304418 C81.7014068,117.24969 81.1740426,115.140233 82.228771,113.55814 L84.3382279,109.866591 C82.7561352,107.757134 81.7014068,105.647677 80.6466784,103.53822 L76.4277648,103.53822 C74.8456722,103.53822 73.2635796,101.956128 73.7909438,99.8466708 L73.7909438,93.5183003 C73.7909438,91.9362077 75.3730364,90.3541151 76.955129,90.3541151 L81.1740426,90.3541151 C81.7014068,89.2993867 82.228771,88.2446583 82.7561352,87.1899299 C83.2834994,86.1352014 84.3382279,85.080473 84.8655921,84.0257446 L82.7561352,80.3341952 C81.7014068,78.7521026 82.228771,76.6426458 83.8108636,75.5879174 L89.0845057,72.4237321 C90.6665983,71.3690037 92.7760551,71.8963679 93.8307835,73.4784605 L95.9402404,77.17001 C98.5770614,77.17001 100.686518,77.17001 103.323339,77.17001 L105.432796,73.4784605 C106.487524,71.8963679 108.596981,71.3690037 110.179074,72.4237321 L115.98008,75.5879174 C117.562173,76.6426458 118.089537,78.7521026 117.034809,80.3341952 L114.925352,84.0257446 C116.507444,86.1352014 117.562173,88.2446583 118.616901,90.3541151 L122.835815,90.3541151 Z M110.706438,103.53822 C113.870623,97.2098497 111.761166,89.8267509 105.96016,86.6625657 C100.159154,83.4983804 92.7760551,85.6078372 89.0845057,91.4088435 C85.9203205,97.2098497 88.0297773,104.592949 93.8307835,108.284498 C99.6317898,111.448683 107.014889,109.339226 110.706438,103.53822 Z M42.4589744,34.9333333 C46.9897436,34.9333333 51.0435897,36.6025641 54.1435897,39.9410256 C57.4820513,43.0410256 59.1512821,47.0948718 59.1512821,51.625641 C59.1512821,56.1564103 57.4820513,59.9717949 54.1435897,63.3102564 C51.0435897,66.6487179 46.9897436,68.3179487 42.4589744,68.3179487 C37.9282051,68.3179487 34.1128205,66.6487179 30.774359,63.3102564 C27.4358974,60.2102564 25.7666667,56.1564103 25.7666667,51.625641 C25.7666667,47.0948718 27.4358974,43.2794872 30.774359,39.9410256 C33.874359,36.6025641 37.9282051,34.9333333 42.4589744,34.9333333 Z M48.2752003,57.441867 C49.9369792,55.7800881 50.7678686,53.8413462 50.7678686,51.625641 C50.7678686,49.4099359 49.9369792,47.4711939 48.2752003,45.8094151 C46.6134215,44.1476362 44.6746795,43.3167468 42.4589744,43.3167468 C40.2432692,43.3167468 38.3045272,44.1476362 36.6427484,45.8094151 C34.9809696,47.4711939 34.1500801,49.4099359 34.1500801,51.625641 C34.1500801,53.8413462 34.9809696,55.7800881 36.6427484,57.441867 C38.3045272,59.1036458 40.2432692,59.9345353 42.4589744,59.9345353 C44.6746795,59.9345353 46.6134215,59.1036458 48.2752003,57.441867 Z" id="Combined-Shape" fill="#000000" fill-rule="nonzero"></path>
    </g>
</svg>