<?xml version="1.0" encoding="UTF-8"?>
<svg width="128px" height="128px" viewBox="0 0 128 128" version="1.1" xmlns="http://www.w3.org/2000/svg" xmlns:xlink="http://www.w3.org/1999/xlink">
    <!-- Generator: Sketch 49.1 (51147) - http://www.bohemiancoding.com/sketch -->
    <title>head</title>
    <desc>Created with Sketch.</desc>
    <defs></defs>
    <g id="head" stroke="none" stroke-width="1" fill="none" fill-rule="evenodd">
        <path d="M64,110.08 C48,110.08 33.92,101.76 25.6,89.6 C25.6,76.8 51.2,69.76 64,69.76 C76.8,69.76 102.4,76.8 102.4,89.6 C94.08,101.76 80,110.08 64,110.08 Z M64,19.2 C74.88,19.2 83.2,27.52 83.2,38.4 C83.2,49.28 74.88,57.6 64,57.6 C53.12,57.6 44.8,49.28 44.8,38.4 C44.8,27.52 53.12,19.2 64,19.2 Z M64,0 C28.8,0 0,28.8 0,64 C0,99.2 28.8,128 64,128 C99.2,128 128,99.2 128,64 C128,28.8 99.2,0 64,0 Z" id="Shape" fill="#000000" fill-rule="nonzero"></path>
    </g>
</svg>