<?xml version="1.0" encoding="UTF-8"?>
<svg width="128px" height="128px" viewBox="0 0 128 128" version="1.1" xmlns="http://www.w3.org/2000/svg" xmlns:xlink="http://www.w3.org/1999/xlink">
    <!-- Generator: Sketch 49.1 (51147) - http://www.bohemiancoding.com/sketch -->
    <title>help</title>
    <desc>Created with Sketch.</desc>
    <defs></defs>
    <g id="help" stroke="none" stroke-width="1" fill="none" fill-rule="evenodd">
        <path d="M64,0 C99.2,0 128,28.8 128,64 C128,99.2 99.2,128 64,128 C28.8,128 0,99.2 0,64 C0,28.8 28.8,0 64,0 Z M64.5,118 C93.925,118 118,93.925 118,64.5 C118,35.075 93.925,11 64.5,11 C35.075,11 11,35.075 11,64.5 C11,93.925 35.075,118 64.5,118 Z M70.2034221,77 L59.0532319,77 C59.024081,75.4043438 59.0095057,74.4324587 59.0095057,74.0843155 C59.0095057,70.486836 59.6070916,67.5276635 60.8022814,65.206709 C61.9974711,62.8857545 64.3878148,60.2747199 67.973384,57.3735267 C71.5589533,54.4723336 73.7015174,52.5720807 74.4011407,51.6727108 C75.4797266,50.2511262 76.0190114,48.6845054 76.0190114,46.9728015 C76.0190114,44.5938231 75.0643315,42.5557655 73.154943,40.8585675 C71.2455545,39.1613696 68.67302,38.3127833 65.4372624,38.3127833 C62.3181086,38.3127833 59.709136,39.1976339 57.6102662,40.9673617 C55.5113963,42.7370895 54.068445,45.4351587 53.2813688,49.06165 L42,47.6690843 C42.3206607,42.4759486 44.5433888,38.0662013 48.668251,34.4397099 C52.7931131,30.8132185 58.2078245,29 64.9125475,29 C71.9670822,29 77.5785596,30.8349771 81.7471483,34.5049864 C85.9157369,38.1749957 88,42.4469385 88,47.3209429 C88,50.0190525 87.2347985,52.5720641 85.7043726,54.9800544 C84.1739467,57.3880447 80.9017995,60.6663437 75.8878327,64.8150499 C73.2933964,66.9619328 71.6828295,68.6881168 71.0560837,69.9936537 C70.4293378,71.2991906 70.1451201,73.634616 70.2034221,77 Z M65,94 C61.6862915,94 59,91.3137085 59,88 C59,84.6862915 61.6862915,82 65,82 C68.3137085,82 71,84.6862915 71,88 C71,91.3137085 68.3137085,94 65,94 Z" id="Combined-Shape" fill="#000000"></path>
    </g>
</svg>