<?xml version="1.0" encoding="UTF-8"?>
<svg width="128px" height="128px" viewBox="0 0 128 128" version="1.1" xmlns="http://www.w3.org/2000/svg" xmlns:xlink="http://www.w3.org/1999/xlink">
    <!-- Generator: Sketch 49.1 (51147) - http://www.bohemiancoding.com/sketch -->
    <title>history copy</title>
    <desc>Created with Sketch.</desc>
    <defs></defs>
    <g id="history-copy" stroke="none" stroke-width="1" fill="none" fill-rule="evenodd">
        <path d="M21.3231912,111.556608 L50.5991734,111.556608 C52.7992428,111.556608 54.5827515,113.340117 54.5827515,115.540186 C54.5827515,117.740256 52.7992428,119.523764 50.5991734,119.523764 L15.9835781,119.523764 C13.7835087,119.523764 12,117.740256 12,115.540186 C12,115.27569 12.0257776,115.017214 12.0749576,114.767134 C12.0620885,114.626407 12.0555103,114.483921 12.0555103,114.339965 L12.0555103,35.416264 L47.2726977,0 L104.732319,0 C109.829544,0 114,4.19403126 114,9.32006948 L114,52.0871625 L104.732319,52.0871625 C104.732319,52.0871625 104.732319,9.32006948 104.732319,9.32006948 C104.732319,9.32006948 65.5561225,9.32006948 52.1179852,9.32006948 L21.3231912,39.27033 L21.3231912,111.556608 Z M120.823129,120.918367 L114.918367,126.823129 L86.2380952,98.1428571 C81.1768707,101.517007 75.2721088,104.047619 68.5238095,104.047619 C52.4965986,104.047619 39,90.5510204 39,74.5238095 C39,58.4965986 52.4965986,45 68.5238095,45 C84.5510204,45 98.047619,58.4965986 98.047619,74.5238095 C98.047619,81.2721088 95.5170068,87.1768707 92.1428571,92.2380952 L120.823129,120.918367 Z M69.0884354,95.1768707 C80.3379592,95.1768707 89.1768707,86.3379592 89.1768707,75.0884354 C89.1768707,63.8389116 80.3379592,55 69.0884354,55 C57.8389116,55 49,63.8389116 49,75.0884354 C49,86.3379592 57.8389116,95.1768707 69.0884354,95.1768707 Z" id="Combined-Shape" fill="#000000" fill-rule="nonzero"></path>
    </g>
</svg>