<?xml version="1.0" encoding="UTF-8"?>
<svg width="128px" height="128px" viewBox="0 0 128 128" version="1.1" xmlns="http://www.w3.org/2000/svg" xmlns:xlink="http://www.w3.org/1999/xlink">
    <!-- Generator: Sketch 49.1 (51147) - http://www.bohemiancoding.com/sketch -->
    <title>home</title>
    <desc>Created with Sketch.</desc>
    <defs></defs>
    <g id="home" stroke="none" stroke-width="1" fill="none" fill-rule="evenodd">
        <path d="M126.483809,65.6415334 C124.882655,67.2426871 124.882655,67.2426871 120.079194,67.2426871 L110.472272,67.2426871 L110.472272,110.473837 C110.472272,116.878452 106.469387,120.881336 99.2641958,120.881336 L76.0474671,120.881336 L76.0474671,83.2542242 C76.0474671,78.450763 72.8451596,76.8496093 69.6428522,76.8496093 L57.6341994,76.8496093 C54.431892,76.8496093 51.2295846,79.2513399 51.2295846,83.2542242 L51.2295846,120.080759 L28.8134327,120.080759 C21.6082411,120.080759 17.6053568,116.878452 17.6053568,108.872683 L17.6053568,67.2426871 L7.99843457,67.2426871 C3.19497345,67.2426871 2.3943966,66.4421103 1.59381975,65.6415334 C-0.807910812,63.2398028 -0.807910812,60.0374954 5.59670401,55.2340343 L59.2353531,11.2023074 C60.03593,10.4017306 61.6370837,8 64.0388143,8 L64.8393911,8 C67.2411217,8 68.8422754,9.60115371 69.6428522,10.4017306 L122.480925,54.4334575 C128.084962,57.6357649 129.686116,62.439226 126.483809,65.6415334 Z" id="Shape" fill="#000000" fill-rule="nonzero"></path>
    </g>
</svg>