<?xml version="1.0" encoding="UTF-8"?>
<svg width="128px" height="128px" viewBox="0 0 128 128" version="1.1" xmlns="http://www.w3.org/2000/svg" xmlns:xlink="http://www.w3.org/1999/xlink">
    <!-- Generator: Sketch 49.1 (51147) - http://www.bohemiancoding.com/sketch -->
    <title>hot-update</title>
    <desc>Created with Sketch.</desc>
    <defs></defs>
    <g id="hot-update" stroke="none" stroke-width="1" fill="none" fill-rule="evenodd">
        <path d="M108.571429,0 L38,0 L12,26 L12,120 C12,124.416 15.328,128 19.4285714,128 L108.571429,128 C112.672,128 116,124.416 116,120 L116,8 C116,3.584 112.672,0 108.571429,0 Z M20.9142857,120 L20.9142857,32 L47.0628571,32 L47.0628571,8 L108.07619,8 L108.07619,120 L20.9142857,120 Z M35,46 L93,46 C95.209139,46 97,47.790861 97,50 L97,50 C97,52.209139 95.209139,54 93,54 L35,54 C32.790861,54 31,52.209139 31,50 L31,50 C31,47.790861 32.790861,46 35,46 Z M35,94 L93,94 C95.209139,94 97,95.790861 97,98 L97,98 C97,100.209139 95.209139,102 93,102 L35,102 C32.790861,102 31,100.209139 31,98 L31,98 C31,95.790861 32.790861,94 35,94 Z M35,70 L93,70 C95.209139,70 97,71.790861 97,74 C97,76.209139 95.209139,78 93,78 L35,78 C32.790861,78 31,76.209139 31,74 C31,71.790861 32.790861,70 35,70 Z M22,26 L41,8 L41,26 L22,26 Z" id="Shape" fill="#000000" fill-rule="nonzero"></path>
    </g>
</svg>