<?xml version="1.0" encoding="UTF-8"?>
<svg width="128px" height="128px" viewBox="0 0 128 128" version="1.1" xmlns="http://www.w3.org/2000/svg" xmlns:xlink="http://www.w3.org/1999/xlink">
    <!-- Generator: Sketch 49.1 (51147) - http://www.bohemiancoding.com/sketch -->
    <title>init</title>
    <desc>Created with Sketch.</desc>
    <defs></defs>
    <g id="init" stroke="none" stroke-width="1" fill="none" fill-rule="evenodd">
        <path d="M128,63.7333333 L128,4 L105.813333,26.1866667 C94.72,12.5333333 78.5066667,4 59.7333333,4 C26.4533333,4 0,30.4533333 0,63.7333333 C0,97.0133333 26.4533333,123.466667 59.7333333,123.466667 C83.6266667,123.466667 104.106667,109.813333 113.493333,89.3333333 L93.8666667,89.3333333 C86.1866667,99.5733333 73.3866667,106.4 59.7333333,106.4 C35.84,106.4 17.0666667,87.6266667 17.0666667,63.7333333 C17.0666667,39.84 35.84,21.0666667 59.7333333,21.0666667 C73.3866667,21.0666667 86.1866667,27.8933333 93.8666667,38.1333333 L68.2666667,63.7333333 L128,63.7333333 Z" id="Shape" fill="#000000" fill-rule="nonzero"></path>
    </g>
</svg>