<?xml version="1.0" encoding="UTF-8"?>
<svg width="128px" height="128px" viewBox="0 0 128 128" version="1.1" xmlns="http://www.w3.org/2000/svg" xmlns:xlink="http://www.w3.org/1999/xlink">
    <!-- Generator: Sketch 49.1 (51147) - http://www.bohemiancoding.com/sketch -->
    <title>lateral-form</title>
    <desc>Created with Sketch.</desc>
    <defs></defs>
    <g id="lateral-form" stroke="none" stroke-width="1" fill="none" fill-rule="evenodd">
        <path d="M72.7129118,12.8836817 C72.7104794,19.9401563 78.4289104,25.662531 85.4853849,25.6649634 C92.5418595,25.6673959 98.2642342,19.9489649 98.2666667,12.8924903 L98.2666667,12.8836817 C98.2666667,5.82720717 92.5462638,0.106804301 85.4897892,0.106804301 C78.4333147,0.106804301 72.7129118,5.82720717 72.7129118,12.8836817 Z M30.1057032,12.8836817 C30.1057032,19.9450211 35.8300498,25.6693677 42.8913892,25.6693677 C49.9527287,25.6693677 55.6770753,19.9450211 55.6770753,12.8836817 C55.6770753,5.82234231 49.9527287,0.0979956989 42.8913892,0.0979956989 C35.8300498,0.0979956989 30.1057032,5.82234231 30.1057032,12.8836817 Z M72.7129118,64 C72.7129118,71.0564745 78.4333147,76.7768774 85.4897892,76.7768774 C92.5462638,76.7768774 98.2666667,71.0564745 98.2666667,64 C98.084801,57.0741662 92.4180104,51.5542266 85.4897892,51.5542266 C78.5615681,51.5542266 72.8947775,57.0741662 72.7129118,64 Z M30.1057032,64 C30.1057032,71.0556903 35.8312946,76.7900903 42.8869849,76.7900903 C49.9447449,76.7900886 55.6666431,71.0695025 55.6682633,64.0117428 C55.6698835,56.953983 49.9506125,51.2307704 42.8928533,51.2275282 C35.8350941,51.2242861 30.1105673,56.9422417 30.1057032,64 Z M72.7129118,115.116318 C72.708047,122.172793 78.4245061,127.897139 85.4809806,127.902004 C92.5374552,127.906869 98.2618018,122.19041 98.2666667,115.133935 L98.2666667,115.116318 C98.2643313,111.728848 96.9164236,108.481047 94.5194682,106.087395 C92.1225127,103.693743 88.8728557,102.350317 85.4853849,102.352654 C78.4296946,102.352654 72.7129118,108.060628 72.7129118,115.116318 Z M30.1057032,115.116318 C30.1057032,122.177658 35.8300498,127.902004 42.8913892,127.902004 C49.9527287,127.902004 55.6770753,122.177658 55.6770753,115.116318 C55.6770753,108.054979 49.9527287,102.330632 42.8913892,102.330632 C35.8300498,102.330632 30.1057032,108.054979 30.1057032,115.116318 Z" id="Shape" fill="#000000" fill-rule="nonzero"></path>
    </g>
</svg>