<?xml version="1.0" encoding="UTF-8"?>
<svg width="128px" height="128px" viewBox="0 0 128 128" version="1.1" xmlns="http://www.w3.org/2000/svg" xmlns:xlink="http://www.w3.org/1999/xlink">
    <!-- Generator: Sketch 49.1 (51147) - http://www.bohemiancoding.com/sketch -->
    <title>leave-right</title>
    <desc>Created with Sketch.</desc>
    <defs></defs>
    <g id="leave-right" stroke="none" stroke-width="1" fill="none" fill-rule="evenodd">
        <path d="M109.505263,53.4701754 C109.505263,53.4701754 99.7157895,53.4701754 97.9754386,53.4701754 L97.7578947,39.1122807 L91.2315789,34.5438596 C92.5368421,34.9789474 94.0596491,35.1964912 95.5824561,35.1964912 C104.501754,35.1964912 111.680702,28.0175439 111.680702,19.0982456 C111.680702,10.1789474 104.719298,3 95.8,3 C86.8807018,3 79.7017544,10.1789474 79.7017544,19.0982456 C79.7017544,22.7964912 81.0070175,26.0596491 82.9649123,28.6701754 L76.6561404,24.3192982 L46.2,24.3192982 C46.2,24.3192982 36.1929825,39.7649123 35.322807,41.0701754 C33.1473684,44.1157895 33.5824561,47.8140351 35.322807,50.4245614 L22.922807,40.4175439 L9,57.3859649 L35.9754386,79.1403509 L49.6807018,62.1719298 L39.6736842,54.122807 C43.3719298,55.645614 47.722807,54.7754386 50.3333333,50.8596491 C50.7684211,50.2070175 55.554386,42.5929825 55.554386,42.3754386 L61.8631579,42.3754386 L47.5052632,66.3052632 L47.5052632,82.4035088 L32.7122807,82.4035088 C26.1859649,82.4035088 21.8350877,87.4070175 22.0526316,93.2807018 C22.2701754,99.154386 26.4035088,103.940351 32.7122807,103.940351 L68.6070175,103.940351 L68.6070175,85.6666667 L73.1754386,88.277193 C73.1754386,87.8421053 73.1754386,113.947368 73.1754386,113.947368 C73.1754386,120.25614 77.9614035,124.607018 83.6175439,124.824561 C89.4912281,125.042105 94.277193,120.691228 94.277193,113.947368 L94.277193,77.8350877 L84.0526316,71.7438596 C84.2701754,71.7438596 109.722807,71.7438596 109.722807,71.7438596 C114.94386,71.7438596 118.207018,67.6105263 118.207018,62.6070175 C118.424561,57.6035088 114.94386,53.4701754 109.505263,53.4701754 Z M95.8,11.7017544 C99.9333333,11.7017544 103.196491,14.9649123 103.196491,19.0982456 C103.196491,23.2315789 99.9333333,26.4947368 95.8,26.4947368 C91.6666667,26.4947368 88.4035088,23.2315789 88.4035088,19.0982456 C88.4035088,14.9649123 91.6666667,11.7017544 95.8,11.7017544 Z M34.6701754,66.9578947 L21.1824561,56.0807018 L24.0105263,52.6 L37.4982456,63.477193 L34.6701754,66.9578947 Z M51.4210526,33.8912281 C51.4210526,33.8912281 43.8070175,45.4210526 43.3719298,46.0736842 C43.3719298,46.0736842 41.6315789,46.0736842 41.6315789,46.0736842 C42.7192982,44.5508772 50.3333333,32.8035088 50.5508772,32.5859649 L73.1754386,32.5859649 L74.9157895,34.1087719 L51.4210526,34.1087719 L51.4210526,33.8912281 Z M68.3894737,70.6561404 L85.7929825,82.4035088 C85.7929825,82.1859649 85.7929825,113.947368 85.7929825,113.947368 C85.7929825,115.470175 85.1403509,116.122807 84.0526316,116.122807 C82.7473684,116.122807 82.0947368,115.252632 82.0947368,113.947368 L82.0947368,83.4912281 L60.122807,70.8736842 L60.122807,95.6736842 C60.7754386,95.6736842 32.9298246,95.6736842 32.9298246,95.6736842 C31.6245614,95.6736842 30.9719298,94.8035088 30.9719298,93.4982456 C30.9719298,92.1929825 31.6245614,91.5403509 32.9298246,91.5403509 L56.4245614,91.5403509 L56.4245614,68.9157895 L76.8736842,34.9789474 L86.8807018,41.9403509 L68.3894737,70.6561404 Z M109.070175,63.0421053 C104.501754,63.0421053 87.9684211,63.0421053 87.5333333,63.0421053 L87.5333333,42.5929825 L89.2736842,43.6807018 L89.2736842,61.7368421 L109.070175,61.7368421 C109.070175,61.7368421 109.070175,62.8245614 109.070175,63.0421053 Z" id="Shape" fill="#000000" fill-rule="nonzero"></path>
    </g>
</svg>