<?xml version="1.0" encoding="UTF-8"?>
<svg width="128px" height="128px" viewBox="0 0 128 128" version="1.1" xmlns="http://www.w3.org/2000/svg" xmlns:xlink="http://www.w3.org/1999/xlink">
    <!-- Generator: Sketch 49.1 (51147) - http://www.bohemiancoding.com/sketch -->
    <title>leave-left</title>
    <desc>Created with Sketch.</desc>
    <defs></defs>
    <g id="leave-left" stroke="none" stroke-width="1" fill="none" fill-rule="evenodd">
        <path d="M96.7928571,84.0428571 L81.7357143,84.0428571 L81.7357143,67.6571429 L67.1214286,43.3 L73.5428571,43.3 C73.5428571,43.5214286 78.6357143,51.2714286 78.8571429,51.9357143 C81.2928571,55.7 85.7214286,56.8071429 89.7071429,55.2571429 L79.5214286,63.45 L93.4714286,80.7214286 L120.928571,58.3571429 L106.978571,41.0857143 L94.3571429,51.2714286 C96.1285714,48.6142857 96.35,45.0714286 94.3571429,41.75 C93.25,40.2 83.2857143,24.7 83.2857143,24.7 L52.2857143,24.7 L45.8642857,29.1285714 C47.8571429,26.4714286 49.1857143,22.9285714 49.1857143,19.3857143 C49.1857143,10.3071429 41.8785714,3 32.8,3 C23.7214286,3 16.1928571,10.3071429 16.1928571,19.3857143 C16.1928571,28.4642857 23.5,35.7714286 32.5785714,35.7714286 C34.1285714,35.7714286 35.6785714,35.55 37.0071429,35.1071429 L30.3642857,39.7571429 L30.1428571,54.3714286 C28.3714286,54.3714286 18.4071429,54.3714286 18.4071429,54.3714286 C12.8714286,54.3714286 9.55,58.5785714 9.55,63.6714286 C9.55,68.5428571 13.0928571,72.9714286 18.1857143,72.9714286 C18.1857143,72.9714286 43.8714286,72.9714286 44.3142857,72.9714286 L33.9071429,79.1714286 L33.9071429,115.928571 C33.9071429,122.571429 38.7785714,127 44.7571429,127 C50.5142857,126.778571 55.3857143,122.35 55.3857143,115.928571 C55.3857143,115.928571 55.3857143,89.3571429 55.3857143,89.8 L60.0357143,87.1428571 L60.0357143,105.964286 L96.5714286,105.964286 C102.992857,105.964286 107.2,101.092857 107.421429,95.1142857 C107.864286,89.1357143 103.435714,84.0428571 96.7928571,84.0428571 Z M108.528571,57.0285714 L94.8,68.1 L91.9214286,64.5571429 L105.65,53.4857143 L108.528571,57.0285714 Z M25.05,19.3857143 C25.05,15.1785714 28.3714286,11.8571429 32.5785714,11.8571429 C36.7857143,11.8571429 40.1071429,15.1785714 40.1071429,19.3857143 C40.1071429,23.5928571 36.7857143,26.9142857 32.5785714,26.9142857 C28.3714286,26.9142857 25.05,23.5928571 25.05,19.3857143 Z M55.6071429,32.8928571 L78.6357143,32.8928571 C78.8571429,33.1142857 86.6071429,45.0714286 87.7142857,46.6214286 C87.7142857,46.6214286 86.1642857,46.6214286 85.9428571,46.6214286 C85.5,45.9571429 77.75,34.2214286 77.75,34.2214286 L53.6142857,34.2214286 L55.6071429,32.8928571 Z M40.9928571,64.1142857 C40.3285714,64.1142857 23.5,64.1142857 19.0714286,64.1142857 C19.0714286,63.8928571 19.0714286,62.7857143 19.0714286,62.7857143 L39.2214286,62.7857143 L39.2214286,44.4071429 L40.9928571,43.3 L40.9928571,64.1142857 Z M96.7928571,97.1071429 C96.7928571,97.1071429 68.45,97.1071429 69.1142857,97.1071429 L69.1142857,72.0857143 L46.75,84.9285714 L46.75,115.928571 C46.75,117.257143 45.8642857,118.142857 44.7571429,118.142857 C43.65,118.142857 42.9857143,117.7 42.9857143,115.928571 C42.9857143,115.928571 42.9857143,83.3785714 42.9857143,83.8214286 L60.7,71.8642857 L41.8785714,42.8571429 L52.0642857,35.7714286 L72.8785714,70.3142857 L72.8785714,93.1214286 L96.7928571,93.1214286 C98.1214286,93.1214286 98.7857143,93.7857143 98.7857143,95.1142857 C98.7857143,96.4428571 98.1214286,97.1071429 96.7928571,97.1071429 Z" id="Shape" fill="#000000" fill-rule="nonzero"></path>
    </g>
</svg>