<?xml version="1.0" encoding="UTF-8"?>
<svg width="128px" height="128px" viewBox="0 0 128 128" version="1.1" xmlns="http://www.w3.org/2000/svg" xmlns:xlink="http://www.w3.org/1999/xlink">
    <!-- Generator: Sketch 49.1 (51147) - http://www.bohemiancoding.com/sketch -->
    <title>lock</title>
    <desc>Created with Sketch.</desc>
    <defs></defs>
    <g id="lock" stroke="none" stroke-width="1" fill="none" fill-rule="evenodd">
        <path d="M40.632,58.1831111 L88.0417778,58.1831111 L88.0417778,40.7253333 C88.0417778,34.304 85.7235556,28.8142222 81.0942222,24.2702222 C76.4648889,19.7262222 70.8755556,17.4577778 64.3333333,17.4577778 C57.7911111,17.4577778 52.2017778,19.7333333 47.5724444,24.2773333 C42.9431111,28.8213333 40.632,34.304 40.632,40.7324444 L40.632,58.1831111 Z M117.666667,66.9084444 L117.666667,119.267556 C117.666667,121.692444 116.799111,123.754667 115.071111,125.447111 C113.343111,127.146667 111.245333,128 108.777778,128 L19.8888889,128 C17.4213333,128 15.3235556,127.153778 13.5955556,125.454222 C11.8675556,123.754667 11,121.692444 11,119.267556 L11,66.9084444 C11,64.4835556 11.8675556,62.4213333 13.5955556,60.7288889 C15.3235556,59.0293333 17.4213333,58.1831111 19.8888889,58.1831111 L22.8542222,58.1831111 L22.8542222,40.7253333 C22.8542222,29.5751111 26.9288889,19.9964444 35.0782222,11.9964444 C43.2204444,4.00355556 52.9768889,0 64.3333333,0 C75.6897778,0 85.4462222,4.00355556 93.5955556,12.0035556 C101.744889,20.0035556 105.819556,29.5822222 105.819556,40.7324444 L105.819556,58.1831111 L108.784889,58.1831111 C111.252444,58.1831111 113.350222,59.0293333 115.078222,60.7288889 C116.799111,62.4213333 117.666667,64.4835556 117.666667,66.9084444 Z M58.6,93 L58.6,107.4 C58.6,110.6 61,113.8 65,113.8 C68.2,113.8 70.6,110.6 70.6,107.4 L70.6,93 C74.6,90.6 77,86.6 77,81.8 C77,74.6 71.4,69 65,69 C58.6,69 53,74.6 53,81.8 C53,86.6 55.4,90.6 58.6,93 Z" id="Combined-Shape" fill="#000000" fill-rule="nonzero"></path>
    </g>
</svg>