<?xml version="1.0" encoding="UTF-8"?>
<svg width="128px" height="128px" viewBox="0 0 128 128" version="1.1" xmlns="http://www.w3.org/2000/svg" xmlns:xlink="http://www.w3.org/1999/xlink">
    <!-- Generator: Sketch 49.1 (51147) - http://www.bohemiancoding.com/sketch -->
    <title>menu</title>
    <desc>Created with Sketch.</desc>
    <defs></defs>
    <g id="menu" stroke="none" stroke-width="1" fill="none" fill-rule="evenodd">
        <path d="M40,94 L120,94 C124.418278,94 128,97.581722 128,102 C128,106.418278 124.418278,110 120,110 L40,110 C35.581722,110 32,106.418278 32,102 C32,97.581722 35.581722,94 40,94 Z M10,36 C4.4771525,36 0,31.5228475 0,26 C0,20.4771525 4.4771525,16 10,16 C15.5228475,16 20,20.4771525 20,26 C20,31.5228475 15.5228475,36 10,36 Z M10,74 C4.4771525,74 0,69.5228475 0,64 C0,58.4771525 4.4771525,54 10,54 C15.5228475,54 20,58.4771525 20,64 C20,69.5228475 15.5228475,74 10,74 Z M10,112 C4.4771525,112 0,107.522847 0,102 C0,96.4771525 4.4771525,92 10,92 C15.5228475,92 20,96.4771525 20,102 C20,107.522847 15.5228475,112 10,112 Z M40,18 L120,18 C124.418278,18 128,21.581722 128,26 C128,30.418278 124.418278,34 120,34 L40,34 C35.581722,34 32,30.418278 32,26 C32,21.581722 35.581722,18 40,18 Z M40,56 L120,56 C124.418278,56 128,59.581722 128,64 C128,68.418278 124.418278,72 120,72 L40,72 C35.581722,72 32,68.418278 32,64 C32,59.581722 35.581722,56 40,56 Z" id="Combined-Shape" fill="#000000" fill-rule="nonzero"></path>
    </g>
</svg>