<?xml version="1.0" encoding="UTF-8"?>
<svg width="128px" height="128px" viewBox="0 0 128 128" version="1.1" xmlns="http://www.w3.org/2000/svg" xmlns:xlink="http://www.w3.org/1999/xlink">
    <!-- Generator: Sketch 49.1 (51147) - http://www.bohemiancoding.com/sketch -->
    <title>message</title>
    <desc>Created with Sketch.</desc>
    <defs></defs>
    <g id="message" stroke="none" stroke-width="1" fill="none" fill-rule="evenodd">
        <path d="M63,3 C29.5714286,3 3,26.1428571 3,55.2857143 C3,71.5714286 11.5714286,87 25.2857143,96.4285714 L25.2857143,123 L51.8571429,106.714286 C55.2857143,107.571429 59.5714286,107.571429 63,107.571429 C96.4285714,107.571429 123,84.4285714 123,55.2857143 C123,26.1428571 96.4285714,3 63,3 Z M33,63 C28.7142857,63 25.2857143,59.5714286 25.2857143,55.2857143 C25.2857143,51 28.7142857,47.5714286 33,47.5714286 C37.2857143,47.5714286 40.7142857,51 40.7142857,55.2857143 C40.7142857,59.5714286 37.2857143,63 33,63 Z M63,63 C58.7142857,63 55.2857143,59.5714286 55.2857143,55.2857143 C55.2857143,51 58.7142857,47.5714286 63,47.5714286 C67.2857143,47.5714286 70.7142857,51 70.7142857,55.2857143 C70.7142857,59.5714286 67.2857143,63 63,63 Z M93,63 C88.7142857,63 85.2857143,59.5714286 85.2857143,55.2857143 C85.2857143,51 88.7142857,47.5714286 93,47.5714286 C97.2857143,47.5714286 100.714286,51 100.714286,55.2857143 C100.714286,59.5714286 97.2857143,63 93,63 Z" id="Shape" fill="#000000" fill-rule="nonzero"></path>
    </g>
</svg>