<?xml version="1.0" encoding="UTF-8"?>
<svg width="128px" height="128px" viewBox="0 0 128 128" version="1.1" xmlns="http://www.w3.org/2000/svg" xmlns:xlink="http://www.w3.org/1999/xlink">
    <!-- Generator: Sketch 49.1 (51147) - http://www.bohemiancoding.com/sketch -->
    <title>more</title>
    <desc>Created with Sketch.</desc>
    <defs></defs>
    <g id="more" stroke="none" stroke-width="1" fill="none" fill-rule="evenodd">
        <g transform="translate(0.000000, 46.000000)" fill="#000000" fill-rule="nonzero" id="Combined-Shape">
            <path d="M79.6444444,15.6444444 C79.6444444,24.1777778 72.5333333,31.2888889 64,31.2888889 C55.4666667,31.2888889 48.3555556,24.1777778 48.3555556,15.6444444 C48.3555556,7.11111111 55.4666667,0 64,0 C72.5333333,0 79.6444444,7.11111111 79.6444444,15.6444444 Z M128,15.6444444 C128,22.0444444 123.022222,27.0222222 116.622222,27.0222222 C110.222222,27.0222222 105.244444,22.0444444 105.244444,15.6444444 C105.244444,9.24444444 110.222222,4.26666667 116.622222,4.26666667 C123.022222,3.55555556 128,9.24444444 128,15.6444444 Z M23.4666667,15.6444444 C23.4666667,22.0444444 18.4888889,27.0222222 12.0888889,27.0222222 C5.68888889,27.0222222 0,22.0444444 0,15.6444444 C0,9.24444444 4.97777778,4.26666667 11.3777778,4.26666667 C17.7777778,4.26666667 23.4666667,9.24444444 23.4666667,15.6444444 Z"></path>
        </g>
    </g>
</svg>