<?xml version="1.0" encoding="UTF-8"?>
<svg width="128px" height="128px" viewBox="0 0 128 128" version="1.1" xmlns="http://www.w3.org/2000/svg" xmlns:xlink="http://www.w3.org/1999/xlink">
    <!-- Generator: Sketch 49.1 (51147) - http://www.bohemiancoding.com/sketch -->
    <title>nail</title>
    <desc>Created with Sketch.</desc>
    <defs></defs>
    <g id="nail" stroke="none" stroke-width="1" fill="none" fill-rule="evenodd">
        <path d="M110.5,4 L17.5,4 C8.975,4 2,10.2 2,17.95 C2,21.05 3.55,24.925 5.875,27.25 C5.875,27.25 39.975,62.9 39.975,62.9 C40.75,63.675 40.75,63.675 40.75,63.675 L40.75,101.65 L87.25,127.225 L87.25,65.225 C87.25,65.225 87.25,65.225 87.25,64.45 L122.125,27.25 C124.45,24.925 126,21.05 126,17.95 C126,10.2 119.025,4 110.5,4 Z M76.4,54.375 C73.3,56.7 71.75,60.575 71.75,65.225 L71.75,102.425 L56.25,93.9 L56.25,63.675 C56.25,59.8 54.7,55.15 50.825,52.05 L19.05,18.725 L109.725,18.725 L76.4,54.375 Z" id="Shape" fill="#000000" fill-rule="nonzero"></path>
    </g>
</svg>