<?xml version="1.0" encoding="UTF-8"?>
<svg width="128px" height="128px" viewBox="0 0 128 128" version="1.1" xmlns="http://www.w3.org/2000/svg" xmlns:xlink="http://www.w3.org/1999/xlink">
    <!-- Generator: Sketch 49.1 (51147) - http://www.bohemiancoding.com/sketch -->
    <title>notepad-complete</title>
    <desc>Created with Sketch.</desc>
    <defs></defs>
    <g id="notepad-complete" stroke="none" stroke-width="1" fill="none" fill-rule="evenodd">
        <path d="M86.0740741,24.962963 C83.5481481,24.962963 81.4814815,22.8962963 81.4814815,20.3703704 C81.4814815,17.8444444 83.5481481,15.7777778 86.0740741,15.7777778 L99.8518519,15.7777778 C104.903704,15.7777778 109.037037,19.9111111 109.037037,24.962963 L109.037037,57.1111111 C109.037037,59.637037 106.97037,61.7037037 104.444444,61.7037037 C101.918519,61.7037037 99.8518519,59.637037 99.8518519,57.1111111 C99.8518519,57.1111111 99.8518519,24.962963 99.8518519,24.962963 L86.0740741,24.962963 Z M63.1111111,116.814815 C65.637037,116.814815 67.7037037,118.881481 67.7037037,121.407407 C67.7037037,123.933333 65.637037,126 63.1111111,126 L17.1851852,126 C12.1333333,126 8,121.866667 8,116.814815 L8,24.962963 C8,19.9111111 12.1333333,15.7777778 17.1851852,15.7777778 L30.962963,15.7777778 C33.4888889,15.7777778 35.5555556,17.8444444 35.5555556,20.3703704 C35.5555556,22.8962963 33.4888889,24.962963 30.962963,24.962963 C30.962963,24.962963 17.1851852,24.962963 17.1851852,24.962963 C17.1851852,24.962963 17.1851852,116.814815 17.1851852,116.814815 L63.1111111,116.814815 Z M24.0740741,68.5925926 L60.8148148,68.5925926 L60.8148148,77.7777778 L24.0740741,77.7777778 L24.0740741,68.5925926 Z M24.0740741,98.4444444 L44.7407407,98.4444444 L44.7407407,107.62963 L24.0740741,107.62963 L24.0740741,98.4444444 Z M24.0740741,38.7407407 L92.962963,38.7407407 L92.962963,47.9259259 L24.0740741,47.9259259 L24.0740741,38.7407407 Z M44.7407407,24.962963 C42.2148148,24.962963 40.1481481,22.8962963 40.1481481,20.3703704 L40.1481481,6.59259259 C40.1481481,4.06666667 42.2148148,2 44.7407407,2 L72.2962963,2 C74.8222222,2 76.8888889,4.06666667 76.8888889,6.59259259 L76.8888889,20.3703704 C76.8888889,22.8962963 74.8222222,24.962963 72.2962963,24.962963 L44.7407407,24.962963 Z M49.3333333,11.1851852 L49.3333333,15.7777778 L67.7037037,15.7777778 L67.7037037,11.1851852 L49.3333333,11.1851852 Z M95.2592593,66.2962963 C111.792593,66.2962963 125.111111,79.6148148 125.111111,96.1481481 C125.111111,112.681481 111.792593,126 95.2592593,126 C78.7259259,126 65.4074074,112.681481 65.4074074,96.1481481 C65.4074074,79.6148148 78.7259259,66.2962963 95.2592593,66.2962963 Z M95.2592593,116.814815 C106.740741,116.814815 115.925926,107.62963 115.925926,96.1481481 C115.925926,84.6666667 106.740741,75.4814815 95.2592593,75.4814815 C83.7777778,75.4814815 74.5925926,84.6666667 74.5925926,96.1481481 C74.5925926,107.62963 83.7777778,116.814815 95.2592593,116.814815 Z M91.1259259,100.511111 L84.0074074,93.162963 L78.9555556,97.9851852 L91.1259259,110.155556 L111.562963,89.9481481 L106.740741,85.1259259 L91.1259259,100.511111 Z" id="Combined-Shape" fill="#000000" fill-rule="nonzero"></path>
    </g>
</svg>