<?xml version="1.0" encoding="UTF-8"?>
<svg width="128px" height="128px" viewBox="0 0 128 128" version="1.1" xmlns="http://www.w3.org/2000/svg" xmlns:xlink="http://www.w3.org/1999/xlink">
    <!-- Generator: Sketch 49.1 (51147) - http://www.bohemiancoding.com/sketch -->
    <title>notepad</title>
    <desc>Created with Sketch.</desc>
    <defs></defs>
    <g id="notepad" stroke="none" stroke-width="1" fill="none" fill-rule="evenodd">
        <path d="M87.0740741,23.962963 C84.5481481,23.962963 82.4814815,21.8962963 82.4814815,19.3703704 C82.4814815,16.8444444 84.5481481,14.7777778 87.0740741,14.7777778 L100.851852,14.7777778 C105.903704,14.7777778 110.037037,18.9111111 110.037037,23.962963 L110.037037,37.7407407 C110.037037,40.2666667 107.97037,42.3333333 105.444444,42.3333333 C102.918519,42.3333333 100.851852,40.2666667 100.851852,37.7407407 C100.851852,37.7407407 100.851852,23.962963 100.851852,23.962963 L87.0740741,23.962963 Z M64.1111111,115.814815 C66.637037,115.814815 68.7037037,117.881481 68.7037037,120.407407 C68.7037037,122.933333 66.637037,125 64.1111111,125 L18.1851852,125 C13.1333333,125 9,120.866667 9,115.814815 L9,23.962963 C9,18.9111111 13.1333333,14.7777778 18.1851852,14.7777778 L31.962963,14.7777778 C34.4888889,14.7777778 36.5555556,16.8444444 36.5555556,19.3703704 C36.5555556,21.8962963 34.4888889,23.962963 31.962963,23.962963 C31.962963,23.962963 18.1851852,23.962963 18.1851852,23.962963 C18.1851852,23.962963 18.1851852,115.814815 18.1851852,115.814815 L64.1111111,115.814815 Z M25.0740741,65.2962963 L52.6296296,65.2962963 L52.6296296,74.4814815 L25.0740741,74.4814815 L25.0740741,65.2962963 Z M25.0740741,97.4444444 L41.1481481,97.4444444 L41.1481481,106.62963 L25.0740741,106.62963 L25.0740741,97.4444444 Z M25.0740741,37.7407407 L80.1851852,37.7407407 L80.1851852,46.9259259 L25.0740741,46.9259259 L25.0740741,37.7407407 Z M120.82963,59.7851852 C123.585185,62.3111111 123.585185,66.6740741 121.059259,69.4296296 L82.2518519,108.925926 L61.8148148,108.925926 L61.8148148,88.7185185 L101.540741,50.1407407 C104.066667,47.3851852 108.42963,47.3851852 111.185185,50.1407407 L120.82963,59.7851852 Z M96.4888889,67.5925926 L79.9555556,83.6666667 L87.0740741,90.7851852 L103.148148,74.4814815 L96.4888889,67.5925926 Z M71,99.7407407 L78.3481481,99.7407407 L80.6444444,97.4444444 L73.5259259,90.3259259 L71,92.6222222 L71,99.7407407 Z M109.577778,67.8222222 L112.792593,64.6074074 L106.133333,57.9481481 L102.918519,61.162963 L109.577778,67.8222222 Z M45.7407407,23.962963 C43.2148148,23.962963 41.1481481,21.8962963 41.1481481,19.3703704 L41.1481481,5.59259259 C41.1481481,3.06666667 43.2148148,1 45.7407407,1 L73.2962963,1 C75.8222222,1 77.8888889,3.06666667 77.8888889,5.59259259 L77.8888889,19.3703704 C77.8888889,21.8962963 75.8222222,23.962963 73.2962963,23.962963 L45.7407407,23.962963 Z M50.3333333,10.1851852 L50.3333333,14.7777778 L68.7037037,14.7777778 L68.7037037,10.1851852 L50.3333333,10.1851852 Z" id="Combined-Shape" fill="#000000" fill-rule="nonzero"></path>
    </g>
</svg>