<?xml version="1.0" encoding="UTF-8"?>
<svg width="128px" height="128px" viewBox="0 0 128 128" version="1.1" xmlns="http://www.w3.org/2000/svg" xmlns:xlink="http://www.w3.org/1999/xlink">
    <!-- Generator: Sketch 49.1 (51147) - http://www.bohemiancoding.com/sketch -->
    <title>notepad-stop</title>
    <desc>Created with Sketch.</desc>
    <defs></defs>
    <g id="notepad-stop" stroke="none" stroke-width="1" fill="none" fill-rule="evenodd">
        <path d="M85.0740741,23.962963 C82.5481481,23.962963 80.4814815,21.8962963 80.4814815,19.3703704 C80.4814815,16.8444444 82.5481481,14.7777778 85.0740741,14.7777778 L98.8518519,14.7777778 C103.903704,14.7777778 108.037037,18.9111111 108.037037,23.962963 L108.037037,56.1111111 C108.037037,58.637037 105.97037,60.7037037 103.444444,60.7037037 C100.918519,60.7037037 98.8518519,58.637037 98.8518519,56.1111111 C98.8518519,56.1111111 98.8518519,23.962963 98.8518519,23.962963 L85.0740741,23.962963 Z M62.1111111,115.814815 C64.637037,115.814815 66.7037037,117.881481 66.7037037,120.407407 C66.7037037,122.933333 64.637037,125 62.1111111,125 L16.1851852,125 C11.1333333,125 7,120.866667 7,115.814815 L7,23.962963 C7,18.9111111 11.1333333,14.7777778 16.1851852,14.7777778 L29.962963,14.7777778 C32.4888889,14.7777778 34.5555556,16.8444444 34.5555556,19.3703704 C34.5555556,21.8962963 32.4888889,23.962963 29.962963,23.962963 C29.962963,23.962963 16.1851852,23.962963 16.1851852,23.962963 C16.1851852,23.962963 16.1851852,115.814815 16.1851852,115.814815 L62.1111111,115.814815 Z M23.0740741,67.5925926 L59.8148148,67.5925926 L59.8148148,76.7777778 L23.0740741,76.7777778 L23.0740741,67.5925926 Z M23.0740741,97.4444444 L46.037037,97.4444444 L46.037037,106.62963 L23.0740741,106.62963 L23.0740741,97.4444444 Z M23.0740741,37.7407407 L91.962963,37.7407407 L91.962963,46.9259259 L23.0740741,46.9259259 L23.0740741,37.7407407 Z M43.7407407,23.962963 C41.2148148,23.962963 39.1481481,21.8962963 39.1481481,19.3703704 L39.1481481,5.59259259 C39.1481481,3.06666667 41.2148148,1 43.7407407,1 L71.2962963,1 C73.8222222,1 75.8888889,3.06666667 75.8888889,5.59259259 L75.8888889,19.3703704 C75.8888889,21.8962963 73.8222222,23.962963 71.2962963,23.962963 L43.7407407,23.962963 Z M48.3333333,10.1851852 L48.3333333,14.7777778 L66.7037037,14.7777778 L66.7037037,10.1851852 L48.3333333,10.1851852 Z M94.2592593,65.2962963 C110.792593,65.2962963 124.111111,78.6148148 124.111111,95.1481481 C124.111111,111.681481 110.792593,125 94.2592593,125 C77.7259259,125 64.4074074,111.681481 64.4074074,95.1481481 C64.4074074,78.6148148 77.7259259,65.2962963 94.2592593,65.2962963 Z M94.2592593,115.814815 C105.740741,115.814815 114.925926,106.62963 114.925926,95.1481481 C114.925926,83.6666667 105.740741,74.4814815 94.2592593,74.4814815 C82.7777778,74.4814815 73.5925926,83.6666667 73.5925926,95.1481481 C73.5925926,106.62963 82.7777778,115.814815 94.2592593,115.814815 Z M80.4814815,92.8518519 L108.037037,92.8518519 L108.037037,99.7407407 L80.4814815,99.7407407 L80.4814815,92.8518519 Z" id="Combined-Shape" fill="#000000" fill-rule="nonzero"></path>
    </g>
</svg>