<?xml version="1.0" encoding="UTF-8"?>
<svg width="128px" height="128px" viewBox="0 0 128 128" version="1.1" xmlns="http://www.w3.org/2000/svg" xmlns:xlink="http://www.w3.org/1999/xlink">
    <!-- Generator: Sketch 49.1 (51147) - http://www.bohemiancoding.com/sketch -->
    <title>notepad-time</title>
    <desc>Created with Sketch.</desc>
    <defs></defs>
    <g id="notepad-time" stroke="none" stroke-width="1" fill="none" fill-rule="evenodd">
        <path d="M60.1111111,115.814815 C62.637037,115.814815 64.7037037,117.881481 64.7037037,120.407407 C64.7037037,122.933333 62.637037,125 60.1111111,125 L14.1851852,125 C9.13333333,125 5,120.866667 5,115.814815 L5,23.962963 C5,18.9111111 9.13333333,14.7777778 14.1851852,14.7777778 L27.962963,14.7777778 C30.4888889,14.7777778 32.5555556,16.8444444 32.5555556,19.3703704 C32.5555556,21.8962963 30.4888889,23.962963 27.962963,23.962963 C27.962963,23.962963 14.1851852,23.962963 14.1851852,23.962963 C14.1851852,23.962963 14.1851852,115.814815 14.1851852,115.814815 L60.1111111,115.814815 Z M83.0740741,23.962963 C80.5481481,23.962963 78.4814815,21.8962963 78.4814815,19.3703704 C78.4814815,16.8444444 80.5481481,14.7777778 83.0740741,14.7777778 L96.8518519,14.7777778 C101.903704,14.7777778 106.037037,18.9111111 106.037037,23.962963 L106.037037,56.1111111 C106.037037,58.637037 103.97037,60.7037037 101.444444,60.7037037 C98.9185185,60.7037037 96.8518519,58.637037 96.8518519,56.1111111 C96.8518519,56.1111111 96.8518519,23.962963 96.8518519,23.962963 L83.0740741,23.962963 Z M21.0740741,67.5925926 L57.8148148,67.5925926 L57.8148148,76.7777778 L21.0740741,76.7777778 L21.0740741,67.5925926 Z M21.0740741,97.4444444 L41.7407407,97.4444444 L41.7407407,106.62963 L21.0740741,106.62963 L21.0740741,97.4444444 Z M21.0740741,37.7407407 L89.962963,37.7407407 L89.962963,46.9259259 L21.0740741,46.9259259 L21.0740741,37.7407407 Z M41.7407407,23.962963 C39.2148148,23.962963 37.1481481,21.8962963 37.1481481,19.3703704 L37.1481481,5.59259259 C37.1481481,3.06666667 39.2148148,1 41.7407407,1 L69.2962963,1 C71.8222222,1 73.8888889,3.06666667 73.8888889,5.59259259 L73.8888889,19.3703704 C73.8888889,21.8962963 71.8222222,23.962963 69.2962963,23.962963 L41.7407407,23.962963 Z M46.3333333,10.1851852 L46.3333333,14.7777778 L64.7037037,14.7777778 L64.7037037,10.1851852 L46.3333333,10.1851852 Z M92.2592593,65.2962963 C108.792593,65.2962963 122.111111,78.6148148 122.111111,95.1481481 C122.111111,111.681481 108.792593,125 92.2592593,125 C75.7259259,125 62.4074074,111.681481 62.4074074,95.1481481 C62.4074074,78.6148148 75.7259259,65.2962963 92.2592593,65.2962963 Z M92.2592593,115.814815 C103.740741,115.814815 112.925926,106.62963 112.925926,95.1481481 C112.925926,83.6666667 103.740741,74.4814815 92.2592593,74.4814815 C80.7777778,74.4814815 71.5925926,83.6666667 71.5925926,95.1481481 C71.5925926,106.62963 80.7777778,115.814815 92.2592593,115.814815 Z M94.5555556,81.3703704 L87.6666667,81.3703704 L87.6666667,97.4444444 L96.8518519,106.859259 L101.674074,102.266667 L94.5555556,94.9185185 L94.5555556,81.3703704 Z" id="Combined-Shape" fill="#000000" fill-rule="nonzero"></path>
    </g>
</svg>