<?xml version="1.0" encoding="UTF-8"?>
<svg width="128px" height="128px" viewBox="0 0 128 128" version="1.1" xmlns="http://www.w3.org/2000/svg" xmlns:xlink="http://www.w3.org/1999/xlink">
    <!-- Generator: Sketch 49.1 (51147) - http://www.bohemiancoding.com/sketch -->
    <title>org-without-children</title>
    <desc>Created with Sketch.</desc>
    <defs></defs>
    <g id="org-without-children" stroke="none" stroke-width="1" fill="none" fill-rule="evenodd">
        <path d="M111.759667,62.0094866 C111.83895,62.0032021 111.919101,62 112,62 C113.656854,62 115,63.3431458 115,65 L115,96 L124,96 C126.209139,96 128,97.790861 128,100 L128,124 C128,126.209139 126.209139,128 124,128 L100,128 C97.790861,128 96,126.209139 96,124 L96,100 C96,97.790861 97.790861,96 100,96 L109,96 L109,69 L71,69 L71,96 L76,96 C78.209139,96 80,97.790861 80,100 L80,124 C80,126.209139 78.209139,128 76,128 L52,128 C49.790861,128 48,126.209139 48,124 L48,100 C48,97.790861 49.790861,96 52,96 L55,96 L55,69 L19,69 L19,96 L28,96 C30.209139,96 32,97.790861 32,100 L32,124 C32,126.209139 30.209139,128 28,128 L4,128 C1.790861,128 2.705415e-16,126.209139 0,124 L0,100 C-2.705415e-16,97.790861 1.790861,96 4,96 L13,96 L13,65 C13,63.3431458 14.3431458,62 16,62 C16.0808989,62 16.16105,62.0032021 16.2403333,62.0094866 C16.3260678,62.0031991 16.4126603,62 16.5,62 L55,62 L55,48 L44,48 C41.2385763,48 39,45.7614237 39,43 L39,5 C39,2.23857625 41.2385763,5.07265313e-16 44,0 L82,0 C84.7614237,-5.07265313e-16 87,2.23857625 87,5 L87,43 C87,45.7614237 84.7614237,48 82,48 L71,48 L71,62 L111.5,62 C111.58734,62 111.673932,62.0031991 111.759667,62.0094866 Z M8,104 L8,121 L25,121 L25,104 L8,104 Z M56,104 L56,121 L73,121 L73,104 L56,104 Z M104,104 L104,121 L121,121 L121,104 L104,104 Z" id="Combined-Shape" fill="#000000"></path>
    </g>
</svg>