<?xml version="1.0" encoding="UTF-8"?>
<svg width="128px" height="128px" viewBox="0 0 128 128" version="1.1" xmlns="http://www.w3.org/2000/svg" xmlns:xlink="http://www.w3.org/1999/xlink">
    <!-- Generator: Sketch 49.1 (51147) - http://www.bohemiancoding.com/sketch -->
    <title>page-setting</title>
    <desc>Created with Sketch.</desc>
    <defs></defs>
    <g id="page-setting" stroke="none" stroke-width="1" fill="none" fill-rule="evenodd">
        <path d="M77.2847065,66.6832211 C76.6184059,65.764311 75.5361395,65.1666667 74.3142857,65.1666667 L23.8190476,65.1666667 C21.7940035,65.1666667 20.152381,66.8082893 20.152381,68.8333333 C20.152381,70.8583774 21.7940035,72.5 23.8190476,72.5 L70.0205549,72.5 C65.9703689,76.6101614 62.8147733,81.6042687 60.869423,87.1666667 L23.8190476,87.1666667 C21.7940035,87.1666667 20.152381,88.8082893 20.152381,90.8333333 C20.152381,92.8583774 21.7940035,94.5 23.8190476,94.5 L59.0752497,94.5 C58.8060228,96.3611281 58.6666667,98.2642899 58.6666667,100.2 C58.6666667,106.737499 60.2561963,112.903744 63.0698597,118.333338 L7.00952381,118.333333 C3.14026667,118.333333 0,115.048 0,111 L0,30.5606667 L28.2553905,1 L91.1238095,1 C94.9930667,1 98.1333333,4.28533333 98.1333333,8.33333333 L98.1333333,60.7333333 C90.479459,60.7333333 83.3344597,62.9120863 77.2847065,66.6832211 Z M23.8190476,43.1666667 C21.7940035,43.1666667 20.152381,44.8082893 20.152381,46.8333333 C20.152381,48.8583774 21.7940035,50.5 23.8190476,50.5 L74.3142857,50.5 C76.3393298,50.5 77.9809524,48.8583774 77.9809524,46.8333333 C77.9809524,44.8082893 76.3393298,43.1666667 74.3142857,43.1666667 L23.8190476,43.1666667 Z M124.319434,90.7118273 C126.159717,90.7118273 128,92.5521103 128,94.3923932 L128,101.753525 C128,104.207235 126.159717,106.047518 123.706007,106.047518 L118.798585,106.047518 C118.185158,107.274374 117.57173,108.501229 116.958302,109.728084 C116.344875,110.95494 115.731447,112.181795 114.504592,112.795222 L116.958302,117.089216 C118.185158,118.929499 117.57173,121.383209 115.731447,122.610065 L109.597171,126.904058 C107.756888,128.130914 105.303177,127.517486 104.076322,125.677203 L101.622611,121.383209 C98.5554732,121.996637 96.1017626,121.996637 93.0346244,121.383209 L90.5809138,125.677203 C89.3540585,127.517486 86.900348,128.130914 85.0600651,126.904058 L78.312361,123.223492 C76.4720781,121.996637 75.8586504,119.542927 77.0855057,117.702644 L79.5392163,113.40865 C77.6989333,110.95494 76.4720781,108.501229 75.2452228,106.047518 L70.3378016,106.047518 C68.4975187,106.047518 66.6572358,104.207235 67.2706634,101.753525 L67.2706634,94.3923932 C67.2706634,92.5521103 69.1109464,90.7118273 70.9512293,90.7118273 L75.8586504,90.7118273 C76.4720781,89.484972 77.0855057,88.2581168 77.6989333,87.0312615 C78.312361,85.8044062 79.5392163,84.5775509 80.1526439,83.3506956 L77.6989333,79.0567021 C76.4720781,77.2164192 77.0855057,74.7627086 78.9257886,73.5358534 L85.0600651,69.8552875 C86.900348,68.6284322 89.3540585,69.2418599 90.5809138,71.0821428 L93.0346244,75.3761363 C96.1017626,75.3761363 98.5554732,75.3761363 101.622611,75.3761363 L104.076322,71.0821428 C105.303177,69.2418599 107.756888,68.6284322 109.597171,69.8552875 L116.344875,73.5358534 C118.185158,74.7627086 118.798585,77.2164192 117.57173,79.0567021 L115.11802,83.3506956 C116.958302,85.8044062 118.185158,88.2581168 119.412013,90.7118273 L124.319434,90.7118273 Z M97.8585573,116.234983 C106.828925,116.234983 114.168317,108.895592 114.168317,99.9252239 C114.168317,90.9548562 106.828925,83.6154644 97.8585573,83.6154644 C88.8881895,83.6154644 81.5487977,90.9548562 81.5487977,99.9252239 C81.5487977,108.895592 88.8881895,116.234983 97.8585573,116.234983 Z" id="Combined-Shape" fill="#000000" fill-rule="nonzero"></path>
    </g>
</svg>