<?xml version="1.0" encoding="UTF-8"?>
<svg width="128px" height="128px" viewBox="0 0 128 128" version="1.1" xmlns="http://www.w3.org/2000/svg" xmlns:xlink="http://www.w3.org/1999/xlink">
    <!-- Generator: Sketch 49.1 (51147) - http://www.bohemiancoding.com/sketch -->
    <title>payroll</title>
    <desc>Created with Sketch.</desc>
    <defs></defs>
    <g id="payroll" stroke="none" stroke-width="1" fill="none" fill-rule="evenodd">
        <path d="M76.625,126 C48.8025,126 26.25,103.4475 26.25,75.625 C26.25,47.8025 48.8025,25.25 76.625,25.25 C104.4475,25.25 127,47.8025 127,75.625 C127,103.4475 104.4475,126 76.625,126 Z M96,87.25 L80.5,87.25 L80.5,79.5 L96,79.5 L96,71.75 L88.25,71.75 L95.65125,47.91875 L88.25,48.5 L80.5,64 L72.75,64 C72.75,64 72.26175,61.768 65,48.5 L57.25,48.5 L65,71.75 L57.25,71.75 L57.25,79.5 L72.75,79.5 L72.75,87.25 L57.25,87.25 L57.25,95 L72.75,95 L72.75,110.5 L80.5,110.5 L80.5,95 L96,95 L96,87.25 Z M30.3885,40.75 L3,40.75 L3,2 L96,2 L96,21.05725 C89.91625,18.895 83.45275,17.5 76.625,17.5 C57.6685,17.5 40.99825,26.707 30.3885,40.75 Z M18.5,75.625 C18.5,79.6085 18.91075,83.49125 19.67025,87.25 L3,87.25 L3,48.5 L25.51375,48.5 C21.1815,56.62975 18.5,65.767 18.5,75.625 Z M48.136,126 L3,126 L3,95 L22.05725,95 C26.76925,108.24475 36.06925,119.15675 48.136,126 Z" id="Shape" fill="#000000" fill-rule="nonzero"></path>
    </g>
</svg>