<?xml version="1.0" encoding="UTF-8"?>
<svg width="128px" height="128px" viewBox="0 0 128 128" version="1.1" xmlns="http://www.w3.org/2000/svg" xmlns:xlink="http://www.w3.org/1999/xlink">
    <!-- Generator: Sketch 49.1 (51147) - http://www.bohemiancoding.com/sketch -->
    <title>pc</title>
    <desc>Created with Sketch.</desc>
    <defs></defs>
    <g id="pc" stroke="none" stroke-width="1" fill="none" fill-rule="evenodd">
        <path d="M21.6491565,21.3201981 L107.456715,21.3201981 L107.456715,81.3853721 L21.6491565,81.3853721 C21.6491565,81.3853721 21.6491565,21.3201981 21.6491565,21.3201981 Z M112.201774,4.04032258 L16.911101,4.04032258 C10.0878653,4.04032258 4.55604839,9.58459067 4.55604839,16.4241685 L4.55604839,86.0985253 C4.55604839,92.9381031 10.0874762,98.4823712 16.9107119,98.4823712 L46.8674247,98.4823712 L46.8674247,115.574701 L25.7471445,115.574701 C23.396599,115.574701 21.4911824,117.480118 21.4911824,119.830663 C21.4911824,122.181209 23.396599,124.086625 25.7471445,124.086625 L103.11126,124.086625 C105.461805,124.086625 107.367222,122.181209 107.367222,119.830663 C107.367222,117.480118 105.461805,115.574701 103.11126,115.574701 L81.7396219,115.574701 L81.7396219,98.4823712 L112.201385,98.4823712 C119.024621,98.4823712 124.556048,92.937714 124.556048,86.0985253 L124.556048,16.4241685 C124.556437,9.58497977 119.02501,4.04032258 112.201774,4.04032258 Z M116.203655,90.0385392 L13.0936532,90.0385392 L13.0936532,12.8261724 L116.203655,12.8261724 L116.203655,90.0385392 Z" id="Shape" fill="#000000" fill-rule="nonzero"></path>
    </g>
</svg>