<?xml version="1.0" encoding="UTF-8"?>
<svg width="128px" height="128px" viewBox="0 0 128 128" version="1.1" xmlns="http://www.w3.org/2000/svg" xmlns:xlink="http://www.w3.org/1999/xlink">
    <!-- Generator: Sketch 49.1 (51147) - http://www.bohemiancoding.com/sketch -->
    <title>pen</title>
    <desc>Created with Sketch.</desc>
    <defs></defs>
    <g id="pen" stroke="none" stroke-width="1" fill="none" fill-rule="evenodd">
        <path d="M121.316667,30.0208333 C118.733333,32.0875 116.666667,34.6708333 116.666667,36.7375 C116.666667,38.8041667 118.733333,40.8708333 120.8,42.9375 C123.9,46.5541667 127,49.6541667 127,52.7541667 C127,55.8541667 123.383333,59.4708333 120.283333,62.5708333 L92.9,89.9541667 L83.6,80.6541667 L111.5,52.7541667 L105.3,46.5541667 L96,55.8541667 L71.2,31.0541667 L97.0333333,5.7375 C99.6166667,3.15416667 103.75,3.15416667 106.333333,5.7375 L121.833333,21.2375 C123.9,23.3041667 123.9,27.4375 121.316667,30.0208333 Z M3,98.2208333 L66.55,34.1541667 L91.35,58.9541667 L27.8,123.020833 L3,123.020833 L3,98.2208333 Z" id="Shape" fill="#000000" fill-rule="nonzero"></path>
    </g>
</svg>