<?xml version="1.0" encoding="UTF-8"?>
<svg width="128px" height="128px" viewBox="0 0 128 128" version="1.1" xmlns="http://www.w3.org/2000/svg" xmlns:xlink="http://www.w3.org/1999/xlink">
    <!-- Generator: Sketch 49.1 (51147) - http://www.bohemiancoding.com/sketch -->
    <title>person-add</title>
    <desc>Created with Sketch.</desc>
    <defs></defs>
    <g id="person-add" stroke="none" stroke-width="1" fill="none" fill-rule="evenodd">
        <path d="M65.13879,65.6293193 C80.6263345,72.9175755 91.1032028,88.40512 91.1032028,106.398003 C91.1032028,125.074159 0,125.301917 0,106.398003 C0,88.40512 10.4768683,72.9175755 25.7366548,65.6293193 C31.202847,69.5012054 38.0355872,71.5510274 45.3238434,71.5510274 C52.6120996,71.5510274 59.4448399,69.2734474 65.13879,65.6293193 Z M74.4768683,107.992309 C77.8932384,106.853519 80.3985765,105.942487 81.9928826,104.803696 C81.5373665,93.1880381 75.1601423,82.4834118 65.366548,76.3339456 C59.2170819,79.2947997 52.6120996,80.8891057 45.5516014,80.8891057 C38.4911032,80.8891057 31.886121,79.2947997 25.7366548,76.3339456 C15.9430605,82.7111698 9.5658363,93.1880381 9.11032028,105.031454 C10.7046263,105.942487 13.2099644,107.081277 16.6263345,107.992309 C24.1423488,110.042131 34.6192171,111.180921 45.5516014,111.180921 C56.4839858,111.180921 66.9608541,110.042131 74.4768683,107.992309 Z M24.5868442,57.5622776 C21.8537481,54.8291815 19.5761681,51.4128114 17.981862,47.9964413 C16.387556,44.3523132 15.7042819,40.480427 15.7042819,36.6085409 C15.7042819,32.7366548 16.387556,28.8647687 17.981862,25.2206406 C19.5761681,21.8042705 21.8537481,18.3879004 24.5868442,15.6548043 C27.3199403,12.9217082 30.5085524,10.8718861 34.1526805,9.27758007 C37.7968086,7.68327402 41.6686948,7 45.5405809,7 C49.412467,7 53.2843531,7.68327402 56.9284812,9.27758007 C60.5726093,10.6441281 63.7612214,12.9217082 66.4943175,15.6548043 C69.2274136,18.3879004 71.2772357,21.5765125 72.8715417,25.2206406 C74.4658478,28.8647687 75.1491218,32.7366548 75.1491218,36.6085409 C75.1491218,40.480427 74.4658478,44.3523132 72.8715417,47.9964413 C71.5049937,51.6405694 69.2274136,54.8291815 66.4943175,57.5622776 C63.7612214,60.2953737 60.5726093,62.3451957 56.9284812,63.9395018 C53.2843531,65.5338078 49.412467,66.2170819 45.5405809,66.2170819 C41.6686948,66.2170819 37.7968086,65.5338078 34.1526805,63.9395018 C30.5085524,62.5729537 27.3199403,60.2953737 24.5868442,57.5622776 Z M26.1811503,28.8647687 C25.2701182,31.3701068 24.8146022,34.1032028 24.5868442,36.6085409 C24.5868442,39.341637 25.2701182,41.8469751 26.1811503,44.3523132 C27.0921823,46.8576512 28.6864883,49.1352313 30.5085524,50.9572954 C32.5583745,53.0071174 34.8359545,54.3736655 37.3412926,55.5124555 C39.8466307,56.6512456 42.5797268,57.1067616 45.3128229,57.1067616 C48.045919,57.1067616 50.779015,56.6512456 53.2843531,55.5124555 C55.7896912,54.3736655 58.2950293,52.7793594 60.1170933,50.9572954 C61.9391574,49.1352313 63.5334634,46.8576512 64.4444955,44.3523132 C65.5832855,41.8469751 66.0388015,39.113879 66.0388015,36.6085409 C66.0388015,33.8754448 65.3555275,31.3701068 64.4444955,28.8647687 C63.5334634,26.3594306 61.9391574,24.0818505 60.1170933,22.2597865 C58.0672713,20.2099644 55.7896912,18.8434164 53.2843531,17.7046263 C50.779015,16.5658363 48.045919,16.1103203 45.3128229,16.1103203 C42.5797268,16.1103203 39.8466307,16.5658363 37.3412926,17.7046263 C34.8359545,18.8434164 32.3306165,20.4377224 30.5085524,22.2597865 C28.6864883,24.0818505 27.0921823,26.3594306 26.1811503,28.8647687 Z M84.9537367,56.4234875 C83.3594306,54.6014235 81.9928826,52.5516014 81.0818505,50.5017794 C80.1708185,48.2241993 79.7153025,45.7188612 79.7153025,43.4412811 C79.7153025,40.9359431 80.1708185,38.658363 81.0818505,36.3807829 C81.9928826,34.1032028 83.3594306,32.0533808 84.9537367,30.4590747 C86.5480427,28.8647687 88.5978648,27.4982206 90.8754448,26.5871886 C93.1530249,25.6761566 95.430605,25.2206406 97.9359431,25.2206406 C100.441281,25.2206406 102.718861,25.6761566 104.996441,26.5871886 C107.274021,27.4982206 109.323843,28.8647687 110.918149,30.4590747 C112.512456,32.0533808 113.879004,34.1032028 114.790036,36.3807829 C115.701068,38.658363 116.156584,41.1637011 116.156584,43.4412811 C116.156584,45.9466192 115.701068,48.2241993 114.790036,50.5017794 C113.879004,52.7793594 112.512456,54.8291815 110.918149,56.4234875 C109.323843,58.0177936 107.274021,59.3843416 104.996441,60.2953737 C102.718861,61.2064057 100.441281,61.6619217 97.9359431,61.6619217 C95.430605,61.6619217 93.1530249,61.2064057 90.8754448,60.2953737 C88.5978648,59.3843416 86.5480427,58.0177936 84.9537367,56.4234875 Z M89.5088968,40.024911 C89.0533808,41.1637011 88.8256228,42.3024911 88.8256228,43.4412811 C88.8256228,44.5800712 89.0533808,45.7188612 89.5088968,46.8576512 C89.9644128,47.9964413 90.6476868,48.9074733 91.5587189,49.8185053 C92.4697509,50.7295374 93.3807829,51.4128114 94.519573,51.8683274 C95.658363,52.3238434 96.797153,52.5516014 97.9359431,52.5516014 C99.0747331,52.5516014 100.213523,52.3238434 101.352313,51.8683274 C102.491103,51.4128114 103.402135,50.7295374 104.313167,49.8185053 C105.224199,48.9074733 105.907473,47.9964413 106.362989,46.8576512 C106.818505,45.7188612 107.046263,44.5800712 107.046263,43.4412811 C107.046263,42.3024911 106.818505,41.1637011 106.362989,40.024911 C105.907473,38.886121 105.224199,37.975089 104.313167,37.0640569 C103.402135,36.1530249 102.491103,35.4697509 101.352313,35.0142349 C100.213523,34.5587189 99.0747331,34.3309609 97.9359431,34.3309609 C96.797153,34.3309609 95.658363,34.5587189 94.519573,35.0142349 C93.3807829,35.4697509 92.4697509,36.1530249 91.5587189,37.0640569 C90.6476868,37.975089 89.9644128,38.886121 89.5088968,40.024911 Z M110.690391,61.6619217 C120.711744,66.4448399 127.544484,76.6939502 128,88.5373665 C128,95.3701068 110.462633,98.5587189 94.519573,97.8754448 L94.747331,88.7651246 C102.035587,88.9928826 109.551601,88.5373665 115.017794,87.1708185 C116.384342,86.7153025 117.75089,86.4875445 118.661922,86.0320285 C117.978648,80.5658363 115.017794,75.5551601 110.690391,72.13879 C106.818505,73.7330961 102.491103,74.6441281 98.1637011,74.6441281 C93.8362989,74.6441281 89.5088968,73.7330961 85.6370107,72.13879 C84.9537367,72.594306 84.2704626,73.2775801 83.8149466,73.7330961 L77.4377224,67.1281139 C79.7153025,64.8505338 82.2206406,63.0284698 85.1814947,61.6619217 C88.8256228,64.1672598 93.1530249,65.5338078 97.9359431,65.5338078 C102.718861,65.5338078 107.046263,64.1672598 110.690391,61.6619217 Z M48.2149007,84.4744576 L43.6597406,84.4744576 L43.6597406,93.5847779 L34.5494203,93.5847779 L34.5494203,98.139938 L43.6597406,98.139938 L43.6597406,107.250258 L48.2149007,107.250258 L48.2149007,98.139938 L57.325221,98.139938 L57.325221,93.5847779 L48.2149007,93.5847779 L48.2149007,84.4744576 Z" id="Combined-Shape" fill="#000000" fill-rule="nonzero"></path>
    </g>
</svg>