<?xml version="1.0" encoding="UTF-8"?>
<svg width="128px" height="128px" viewBox="0 0 128 128" version="1.1" xmlns="http://www.w3.org/2000/svg" xmlns:xlink="http://www.w3.org/1999/xlink">
    <!-- Generator: Sketch 49.1 (51147) - http://www.bohemiancoding.com/sketch -->
    <title>person-add-circle</title>
    <desc>Created with Sketch.</desc>
    <defs></defs>
    <g id="person-add-circle" stroke="none" stroke-width="1" fill="none" fill-rule="evenodd">
        <path d="M39.7301771,57.026469 C42.8126889,60.1089809 46.4089527,62.6777407 50.5189685,64.2189967 C54.6289843,66.0171286 58.9958761,66.7877565 63.3627679,66.7877565 C67.7296596,66.7877565 72.0965514,66.0171286 76.2065672,64.2189967 C80.316583,62.4208648 83.9128468,60.1089809 86.9953586,57.026469 C90.0778705,53.9439572 92.6466303,50.3476934 94.1878863,46.2376776 C95.9860182,42.1276618 96.7566461,37.76077 96.7566461,33.3938783 C96.7566461,29.0269865 95.9860182,24.6600947 94.1878863,20.5500789 C92.3897543,16.4400631 90.0778705,12.8437993 86.9953586,9.76128749 C83.9128468,6.67877565 80.316583,4.11001579 76.2065672,2.56875987 C72.0965514,0.77062796 67.7296596,0 63.3627679,0 C58.9958761,0 54.6289843,0.77062796 50.5189685,2.56875987 C46.4089527,4.36689177 42.8126889,6.67877565 39.7301771,9.76128749 C36.6476652,12.8437993 34.0789054,16.6969391 32.2807735,20.5500789 C30.4826416,24.6600947 29.7120136,29.0269865 29.7120136,33.3938783 C29.7120136,37.76077 30.4826416,42.1276618 32.2807735,46.2376776 C34.0789054,50.0908174 36.6476652,53.9439572 39.7301771,57.026469 Z M41.528309,24.6600947 C42.5558129,21.8344589 44.3539448,19.265699 46.4089527,17.2106911 C48.4639606,15.1556832 51.2895965,13.3575513 54.1152323,12.0731714 C56.9408682,10.7887914 60.02338,10.2750395 63.1058919,10.2750395 C66.1884037,10.2750395 69.2709155,10.7887914 72.0965514,12.0731714 C74.9221873,13.3575513 77.4909471,14.8988072 79.802831,17.2106911 C81.8578389,19.265699 83.6559708,21.8344589 84.6834747,24.6600947 C85.7109787,27.4857306 86.4816067,30.3113664 86.4816067,33.3938783 C86.4816067,36.2195141 85.9678547,39.302026 84.6834747,42.1276618 C83.6559708,44.9532977 81.8578389,47.5220575 79.802831,49.5770654 C77.7478231,51.6320733 74.9221873,53.4302052 72.0965514,54.7145852 C69.2709155,55.9989651 66.1884037,56.5127171 63.1058919,56.5127171 C60.02338,56.5127171 56.9408682,55.9989651 54.1152323,54.7145852 C51.2895965,53.4302052 48.7208366,51.8889493 46.4089527,49.5770654 C44.3539448,47.5220575 42.5558129,44.9532977 41.528309,42.1276618 C40.500805,39.302026 39.7301771,36.4763901 39.7301771,33.3938783 C39.9870531,30.5682424 40.500805,27.4857306 41.528309,24.6600947 Z M85.4665322,66.1248508 C102.934099,74.3448823 114.750395,91.8124494 114.750395,112.105652 C114.750395,133.169483 12,133.426359 12,112.105652 C12,91.8124494 23.8162954,74.3448823 41.0269865,66.1248508 C47.1920102,70.4917425 54.8982898,72.8036264 63.1183213,72.8036264 C71.3383529,72.8036264 79.0446325,70.2348665 85.4665322,66.1248508 Z M95.9984476,113.903784 C99.8515874,112.619404 102.677223,111.5919 104.475355,110.30752 C103.961603,97.2068451 96.7690756,85.1336738 85.7234082,78.1980221 C78.7877565,81.53741 71.3383529,83.3355419 63.3751973,83.3355419 C55.4120417,83.3355419 47.9626381,81.53741 41.0269865,78.1980221 C29.9813191,85.3905498 22.7887914,97.2068451 22.2750395,110.564396 C24.0731714,111.5919 26.8988072,112.87628 30.751947,113.903784 C39.2288546,116.215668 51.04515,117.500048 63.3751973,117.500048 C75.7052447,117.500048 87.5215401,116.215668 95.9984476,113.903784 Z M66.3789891,87.3792671 L66.3789891,97.6543065 L76.6540286,97.6543065 L76.6540286,102.791826 L66.3789891,102.791826 L66.3789891,113.066866 L61.2414694,113.066866 L61.2414694,102.791826 L50.9664299,102.791826 L50.9664299,97.6543065 L61.2414694,97.6543065 L61.2414694,87.3792671 L66.3789891,87.3792671 Z" id="Combined-Shape" fill="#000000" fill-rule="nonzero"></path>
    </g>
</svg>