<?xml version="1.0" encoding="UTF-8"?>
<svg width="128px" height="128px" viewBox="0 0 128 128" version="1.1" xmlns="http://www.w3.org/2000/svg" xmlns:xlink="http://www.w3.org/1999/xlink">
    <!-- Generator: Sketch 49.1 (51147) - http://www.bohemiancoding.com/sketch -->
    <title>person-regular</title>
    <desc>Created with Sketch.</desc>
    <defs></defs>
    <g id="person-regular" stroke="none" stroke-width="1" fill="none" fill-rule="evenodd">
        <path d="M65.13879,65.3060498 C80.6263345,72.594306 91.1032028,88.0818505 91.1032028,106.074733 C91.1032028,124.75089 0,124.978648 0,106.074733 C0,88.0818505 10.4768683,72.594306 25.7366548,65.3060498 C31.202847,69.1779359 38.0355872,71.227758 45.3238434,71.227758 C52.6120996,71.227758 59.4448399,68.9501779 65.13879,65.3060498 Z M74.4768683,107.669039 C77.8932384,106.530249 80.3985765,105.619217 81.9928826,104.480427 C81.5373665,92.8647687 75.1601423,82.1601423 65.366548,76.0106762 C59.2170819,78.9715302 52.6120996,80.5658363 45.5516014,80.5658363 C38.4911032,80.5658363 31.886121,78.9715302 25.7366548,76.0106762 C15.9430605,82.3879004 9.5658363,92.8647687 9.11032028,104.708185 C10.7046263,105.619217 13.2099644,106.758007 16.6263345,107.669039 C24.1423488,109.718861 34.6192171,110.857651 45.5516014,110.857651 C56.4839858,110.857651 66.9608541,109.718861 74.4768683,107.669039 Z M25.0533808,57.5622776 C22.3202847,54.8291815 20.0427046,51.4128114 18.4483986,47.9964413 C16.8540925,44.3523132 16.1708185,40.480427 16.1708185,36.6085409 C16.1708185,32.7366548 16.8540925,28.8647687 18.4483986,25.2206406 C20.0427046,21.8042705 22.3202847,18.3879004 25.0533808,15.6548043 C27.7864769,12.9217082 30.975089,10.8718861 34.6192171,9.27758007 C38.2633452,7.68327402 42.1352313,7 46.0071174,7 C49.8790036,7 53.7508897,7.68327402 57.3950178,9.27758007 C61.0391459,10.6441281 64.227758,12.9217082 66.9608541,15.6548043 C69.6939502,18.3879004 71.7437722,21.5765125 73.3380783,25.2206406 C74.9323843,28.8647687 75.6156584,32.7366548 75.6156584,36.6085409 C75.6156584,40.480427 74.9323843,44.3523132 73.3380783,47.9964413 C71.9715302,51.6405694 69.6939502,54.8291815 66.9608541,57.5622776 C64.227758,60.2953737 61.0391459,62.3451957 57.3950178,63.9395018 C53.7508897,65.5338078 49.8790036,66.2170819 46.0071174,66.2170819 C42.1352313,66.2170819 38.2633452,65.5338078 34.6192171,63.9395018 C30.975089,62.5729537 27.7864769,60.2953737 25.0533808,57.5622776 Z M26.6476868,28.8647687 C25.7366548,31.3701068 25.2811388,34.1032028 25.0533808,36.6085409 C25.0533808,39.341637 25.7366548,41.8469751 26.6476868,44.3523132 C27.5587189,46.8576512 29.1530249,49.1352313 30.975089,50.9572954 C33.024911,53.0071174 35.3024911,54.3736655 37.8078292,55.5124555 C40.3131673,56.6512456 43.0462633,57.1067616 45.7793594,57.1067616 C48.5124555,57.1067616 51.2455516,56.6512456 53.7508897,55.5124555 C56.2562278,54.3736655 58.7615658,52.7793594 60.5836299,50.9572954 C62.405694,49.1352313 64,46.8576512 64.911032,44.3523132 C66.0498221,41.8469751 66.5053381,39.113879 66.5053381,36.6085409 C66.5053381,33.8754448 65.8220641,31.3701068 64.911032,28.8647687 C64,26.3594306 62.405694,24.0818505 60.5836299,22.2597865 C58.5338078,20.2099644 56.2562278,18.8434164 53.7508897,17.7046263 C51.2455516,16.5658363 48.5124555,16.1103203 45.7793594,16.1103203 C43.0462633,16.1103203 40.3131673,16.5658363 37.8078292,17.7046263 C35.3024911,18.8434164 32.797153,20.4377224 30.975089,22.2597865 C29.1530249,24.0818505 27.5587189,26.3594306 26.6476868,28.8647687 Z M84.9537367,56.4234875 C83.3594306,54.6014235 81.9928826,52.5516014 81.0818505,50.5017794 C80.1708185,48.2241993 79.7153025,45.7188612 79.7153025,43.4412811 C79.7153025,40.9359431 80.1708185,38.658363 81.0818505,36.3807829 C81.9928826,34.1032028 83.3594306,32.0533808 84.9537367,30.4590747 C86.5480427,28.8647687 88.5978648,27.4982206 90.8754448,26.5871886 C93.1530249,25.6761566 95.430605,25.2206406 97.9359431,25.2206406 C100.441281,25.2206406 102.718861,25.6761566 104.996441,26.5871886 C107.274021,27.4982206 109.323843,28.8647687 110.918149,30.4590747 C112.512456,32.0533808 113.879004,34.1032028 114.790036,36.3807829 C115.701068,38.658363 116.156584,41.1637011 116.156584,43.4412811 C116.156584,45.9466192 115.701068,48.2241993 114.790036,50.5017794 C113.879004,52.7793594 112.512456,54.8291815 110.918149,56.4234875 C109.323843,58.0177936 107.274021,59.3843416 104.996441,60.2953737 C102.718861,61.2064057 100.441281,61.6619217 97.9359431,61.6619217 C95.430605,61.6619217 93.1530249,61.2064057 90.8754448,60.2953737 C88.5978648,59.3843416 86.5480427,58.0177936 84.9537367,56.4234875 Z M89.5088968,40.024911 C89.0533808,41.1637011 88.8256228,42.3024911 88.8256228,43.4412811 C88.8256228,44.5800712 89.0533808,45.7188612 89.5088968,46.8576512 C89.9644128,47.9964413 90.6476868,48.9074733 91.5587189,49.8185053 C92.4697509,50.7295374 93.3807829,51.4128114 94.519573,51.8683274 C95.658363,52.3238434 96.797153,52.5516014 97.9359431,52.5516014 C99.0747331,52.5516014 100.213523,52.3238434 101.352313,51.8683274 C102.491103,51.4128114 103.402135,50.7295374 104.313167,49.8185053 C105.224199,48.9074733 105.907473,47.9964413 106.362989,46.8576512 C106.818505,45.7188612 107.046263,44.5800712 107.046263,43.4412811 C107.046263,42.3024911 106.818505,41.1637011 106.362989,40.024911 C105.907473,38.886121 105.224199,37.975089 104.313167,37.0640569 C103.402135,36.1530249 102.491103,35.4697509 101.352313,35.0142349 C100.213523,34.5587189 99.0747331,34.3309609 97.9359431,34.3309609 C96.797153,34.3309609 95.658363,34.5587189 94.519573,35.0142349 C93.3807829,35.4697509 92.4697509,36.1530249 91.5587189,37.0640569 C90.6476868,37.975089 89.9644128,38.886121 89.5088968,40.024911 Z M110.690391,61.6619217 C120.711744,66.4448399 127.544484,76.6939502 128,88.5373665 C128,95.3701068 110.462633,98.5587189 94.519573,97.8754448 L94.747331,88.7651246 C102.035587,88.9928826 109.551601,88.5373665 115.017794,87.1708185 C116.384342,86.7153025 117.75089,86.4875445 118.661922,86.0320285 C117.978648,80.5658363 115.017794,75.5551601 110.690391,72.13879 C106.818505,73.7330961 102.491103,74.6441281 98.1637011,74.6441281 C93.8362989,74.6441281 89.5088968,73.7330961 85.6370107,72.13879 C84.9537367,72.594306 84.2704626,73.2775801 83.8149466,73.7330961 L77.4377224,67.1281139 C79.7153025,64.8505338 82.2206406,63.0284698 85.1814947,61.6619217 C88.8256228,64.1672598 93.1530249,65.5338078 97.9359431,65.5338078 C102.718861,65.5338078 107.046263,64.1672598 110.690391,61.6619217 Z M42.1352313,96.9644128 L55.8007117,83.2989324 L60.8113879,88.0818505 L42.1352313,106.530249 L31.658363,96.0533808 L36.6690391,91.2704626 L42.1352313,96.9644128 Z" id="Combined-Shape" fill="#000000" fill-rule="nonzero"></path>
    </g>
</svg>