<?xml version="1.0" encoding="UTF-8"?>
<svg width="128px" height="128px" viewBox="0 0 128 128" version="1.1" xmlns="http://www.w3.org/2000/svg" xmlns:xlink="http://www.w3.org/1999/xlink">
    <!-- Generator: Sketch 49.1 (51147) - http://www.bohemiancoding.com/sketch -->
    <title>personnel</title>
    <desc>Created with Sketch.</desc>
    <defs></defs>
    <g id="personnel" stroke="none" stroke-width="1" fill="none" fill-rule="evenodd">
        <path d="M126,34 C126,21.15825 115.59175,10.75 102.75,10.75 C99.65,10.75 96.705,11.3855 94.00025,12.486 C99.39425,18.05825 102.75,25.63 102.75,34 C102.75,42.37 99.39425,49.94175 94.00025,55.514 C96.705,56.6145 99.65,57.25 102.75,57.25 C115.59175,57.25 126,46.84175 126,34 Z M102.75,57.25 C98.0845,57.25 93.67475,58.14125 89.42775,59.42 C86.21925,61.65975 82.56125,63.2795 78.62425,64.17075 C77.89575,64.62025 77.113,64.9845 76.4155,65.47275 C98.85175,67.418 117.2115,82.856 123.48125,103.75 L126,103.75 L126,63.698 C119.1335,59.70675 111.26725,57.25 102.75,57.25 Z M51.5845,65.47275 C50.87925,64.9845 50.10425,64.62025 49.37575,64.1785 C45.43875,63.2795 41.7885,61.65975 38.57225,59.42 C34.32525,58.14125 29.9155,57.25 25.25,57.25 C16.7405,57.25 8.8665,59.70675 2,63.698 L2,103.75 L4.51875,103.75 C10.7885,82.84825 29.14825,67.41025 51.5845,65.47275 Z M25.25,34 C25.25,25.63 28.60575,18.05825 33.99975,12.486 C31.295,11.3855 28.35,10.75 25.25,10.75 C12.40825,10.75 2,21.15825 2,34 C2,34 2,34 2,34 L2,34.00775 C2.00775,46.8495 12.416,57.25 25.25,57.25 C28.35,57.25 31.295,56.6145 33.99975,55.514 C28.60575,49.94175 25.25,42.37 25.25,34 Z M95,34 C95,16.88025 81.11975,3 64,3 C46.88025,3 33,16.88025 33,34 C33,51.11975 46.88025,65 64,65 C81.11975,65 95,51.11975 95,34 Z M64,65 C34.0385,65 9.75,89.2885 9.75,119.25 L118.25,119.25 C118.25,89.2885 93.9615,65 64,65 Z" id="Shape" fill="#000000"></path>
    </g>
</svg>