<?xml version="1.0" encoding="UTF-8"?>
<svg width="128px" height="128px" viewBox="0 0 128 128" version="1.1" xmlns="http://www.w3.org/2000/svg" xmlns:xlink="http://www.w3.org/1999/xlink">
    <!-- Generator: Sketch 49.1 (51147) - http://www.bohemiancoding.com/sketch -->
    <title>print</title>
    <desc>Created with Sketch.</desc>
    <defs></defs>
    <g id="print" stroke="none" stroke-width="1" fill="none" fill-rule="evenodd">
        <path d="M25.5,10.5 L100.5,10.5 L100.5,33 L25.5,33 L25.5,10.5 Z M100.5,40.5 C113,40.5 123,50.5 123,63 L123,93 L100.5,93 L100.5,115.5 L25.5,115.5 L25.5,93 L3,93 L3,63 C3,50.5 12.5,40.5 25.5,40.5 L100.5,40.5 Z M85.5,100.5 L85.5,70.5 L40.5,70.5 L40.5,100.5 L85.5,100.5 Z M100.5,70.5 C105,70.5 108,67.5 108,63 C108,58.5 105,55.5 100.5,55.5 C96,55.5 93,58.5 93,63 C93,67.5 96,70.5 100.5,70.5 Z" id="Combined-Shape" fill="#000000" fill-rule="nonzero"></path>
    </g>
</svg>