<?xml version="1.0" encoding="UTF-8"?>
<svg width="128px" height="128px" viewBox="0 0 128 128" version="1.1" xmlns="http://www.w3.org/2000/svg" xmlns:xlink="http://www.w3.org/1999/xlink">
    <!-- Generator: Sketch 49.1 (51147) - http://www.bohemiancoding.com/sketch -->
    <title>qrcode</title>
    <desc>Created with Sketch.</desc>
    <defs></defs>
    <g id="qrcode" stroke="none" stroke-width="1" fill="none" fill-rule="evenodd">
        <path d="M68.3180142,115.460746 L76.8895265,115.460746 L76.8895265,124.032258 L68.3180142,124.032258 L68.3180142,115.460746 Z M51.1749896,51.1749896 L51.1749896,4.03225806 L4.03225806,4.03225806 L4.03225806,51.1749896 L12.6037703,51.1749896 L12.6037703,59.7465019 L21.1752826,59.7465019 L21.1752826,51.1749896 L51.1749896,51.1749896 Z M12.6037703,42.603868 L12.6037703,12.6037703 L42.603868,12.6037703 L42.603868,42.603868 L12.6037703,42.603868 Z M21.1752826,21.1752826 L34.0323557,21.1752826 L34.0323557,34.0323557 L21.1752826,34.0323557 L21.1752826,21.1752826 Z M76.8895265,4.03225806 L76.8895265,51.1749896 L124.032258,51.1749896 L124.032258,4.03225806 L76.8895265,4.03225806 Z M115.460746,42.603868 L85.4606481,42.603868 L85.4606481,12.6037703 L115.460746,12.6037703 L115.460746,42.603868 Z M94.0321604,21.1752826 L106.889234,21.1752826 L106.889234,34.0323557 L94.0321604,34.0323557 L94.0321604,21.1752826 Z M21.1752826,94.0321604 L34.0323557,94.0321604 L34.0323557,106.889234 L21.1752826,106.889234 L21.1752826,94.0321604 Z M4.03225806,59.7465019 L12.6037703,59.7465019 L12.6037703,68.3180142 L4.03225806,68.3180142 L4.03225806,59.7465019 Z M21.1752826,59.7465019 L29.7467949,59.7465019 L29.7467949,68.3180142 L21.1752826,68.3180142 L21.1752826,59.7465019 Z M29.7464043,76.8895265 L4.03225806,76.8895265 L4.03225806,124.032258 L51.1749896,124.032258 L51.1749896,76.8895265 L38.3179165,76.8895265 L38.3179165,68.3180142 L29.7464043,68.3180142 L29.7464043,76.8895265 Z M42.603868,85.4610388 L42.603868,115.461136 L12.6037703,115.461136 L12.6037703,85.4610388 L42.603868,85.4610388 Z M59.7465019,8.31781889 L68.3180142,8.31781889 L68.3180142,21.174892 L59.7465019,21.174892 L59.7465019,8.31781889 Z M59.7465019,29.7464043 L68.3180142,29.7464043 L68.3180142,38.3179165 L59.7465019,38.3179165 L59.7465019,29.7464043 Z M85.4610388,59.7465019 L76.8895265,59.7465019 L68.3180142,59.7465019 L68.3180142,46.8894288 L59.7465019,46.8894288 L59.7465019,59.7465019 L38.3179165,59.7465019 L38.3179165,68.3180142 L59.7465019,68.3180142 L68.3180142,68.3180142 L76.8895265,68.3180142 L76.8895265,76.8895265 L85.4610388,76.8895265 L85.4610388,68.3180142 L85.4610388,59.7465019 Z M85.4610388,76.8895265 L94.032551,76.8895265 L94.032551,85.4610388 L85.4610388,85.4610388 L85.4610388,76.8895265 Z M59.7465019,76.8895265 L68.3180142,76.8895265 L68.3180142,89.7465996 L59.7465019,89.7465996 L59.7465019,76.8895265 Z M59.7465019,98.3181119 L68.3180142,98.3181119 L68.3180142,115.461136 L59.7465019,115.461136 L59.7465019,98.3181119 Z M76.8895265,89.7465996 L85.4610388,89.7465996 L85.4610388,115.460746 L76.8895265,115.460746 L76.8895265,89.7465996 Z M102.603673,76.8895265 L124.032258,76.8895265 L124.032258,85.4610388 L102.603673,85.4610388 L102.603673,76.8895265 Z M115.460746,59.7465019 L124.032258,59.7465019 L124.032258,68.3180142 L115.460746,68.3180142 L115.460746,59.7465019 Z M94.0321604,59.7465019 L111.175185,59.7465019 L111.175185,68.3180142 L94.0321604,68.3180142 L94.0321604,59.7465019 Z M94.0321604,89.7465996 L102.603673,89.7465996 L102.603673,98.3181119 L94.0321604,98.3181119 L94.0321604,89.7465996 Z M115.460746,98.3181119 L111.175185,98.3181119 L111.175185,106.889624 L119.746697,106.889624 L119.746697,98.3181119 L124.032258,98.3181119 L124.032258,89.7465996 L115.460746,89.7465996 L115.460746,98.3181119 Z M94.0321604,106.889624 L102.603673,106.889624 L102.603673,115.461136 L94.0321604,115.461136 L94.0321604,106.889624 Z M102.603673,115.460746 L124.032258,115.460746 L124.032258,124.032258 L102.603673,124.032258 L102.603673,115.460746 Z" id="Shape" fill="#000000" fill-rule="nonzero"></path>
    </g>
</svg>