<?xml version="1.0" encoding="UTF-8"?>
<svg width="128px" height="128px" viewBox="0 0 128 128" version="1.1" xmlns="http://www.w3.org/2000/svg" xmlns:xlink="http://www.w3.org/1999/xlink">
    <!-- Generator: Sketch 49.1 (51147) - http://www.bohemiancoding.com/sketch -->
    <title>rect</title>
    <desc>Created with Sketch.</desc>
    <defs></defs>
    <g id="rect" stroke="none" stroke-width="1" fill="none" fill-rule="evenodd">
        <path d="M4,11.7368421 C4,8.36842105 7.36842105,5 10.7368421,5 L47.7894737,5 C51.1578947,5 54.5263158,8.36842105 54.5263158,11.7368421 L54.5263158,48.7894737 C54.5263158,52.1578947 51.1578947,55.5263158 47.7894737,55.5263158 L10.7368421,55.5263158 C7.36842105,55.5263158 4,52.1578947 4,48.7894737 L4,11.7368421 Z M73.4736842,11.7368421 C73.4736842,8.36842105 76.8421053,5 80.2105263,5 L117.263158,5 C120.631579,5 124,8.36842105 124,11.7368421 L124,48.7894737 C124,52.1578947 120.631579,55.5263158 117.263158,55.5263158 L80.2105263,55.5263158 C76.8421053,55.5263158 73.4736842,52.1578947 73.4736842,48.7894737 L73.4736842,11.7368421 Z M4,81.2105263 C4,77.8421053 7.36842105,74.4736842 10.7368421,74.4736842 L47.7894737,74.4736842 C51.1578947,74.4736842 54.5263158,77.8421053 54.5263158,81.2105263 L54.5263158,118.263158 C54.5263158,121.631579 51.1578947,125 47.7894737,125 L10.7368421,125 C7.36842105,125 4,121.631579 4,118.263158 L4,81.2105263 Z M73.4736842,81.2105263 C73.4736842,77.8421053 76.8421053,74.4736842 80.2105263,74.4736842 L117.263158,74.4736842 C120.631579,74.4736842 124,77.8421053 124,81.2105263 L124,118.263158 C124,121.631579 120.631579,125 117.263158,125 L80.2105263,125 C76.8421053,125 73.4736842,121.631579 73.4736842,118.263158 L73.4736842,81.2105263 Z" id="举证查看" fill="#000000" fill-rule="nonzero"></path>
    </g>
</svg>