<?xml version="1.0" encoding="UTF-8"?>
<svg width="128px" height="128px" viewBox="0 0 128 128" version="1.1" xmlns="http://www.w3.org/2000/svg" xmlns:xlink="http://www.w3.org/1999/xlink">
    <!-- Generator: Sketch 49.1 (51147) - http://www.bohemiancoding.com/sketch -->
    <title>refresh</title>
    <desc>Created with Sketch.</desc>
    <defs></defs>
    <g id="refresh" stroke="none" stroke-width="1" fill="none" fill-rule="evenodd">
        <path d="M16.5325714,43.2 C14.5577143,45.1636364 11.9245714,47.7818182 10.608,50.4 C9.29142857,51.7090909 7.97485714,53.6727273 7.31657143,55.6363636 C6.65828571,56.2909091 6,56.9454545 6,57.6 C7.31657143,49.7454545 9.94971429,41.8909091 13.8994286,34.6909091 C22.4571429,17.6727273 41.5474286,7.2 60.6377143,8.50909091 C69.8537143,8.50909091 78.4114286,10.4727273 86.9691429,13.7454545 L90.9188571,3.92727273 C91.5771429,2.61818182 92.2354286,1.96363636 92.8937143,1.30909091 C93.552,0.654545455 94.2102857,0 94.8685714,0 C95.5268571,0 96.1851429,0 96.8434286,0 C97.5017143,0 98.16,0 98.16,0.654545455 C98.8182857,0.654545455 98.8182857,1.30909091 99.4765714,1.30909091 C99.4765714,1.96363636 100.134857,1.96363636 100.134857,1.96363636 L100.793143,2.61818182 L120.541714,37.9636364 C120.541714,38.6181818 121.2,39.2727273 121.2,40.5818182 C121.2,41.2363636 121.2,41.8909091 121.2,42.5454545 C121.2,43.2 121.2,43.8545455 121.2,44.5090909 C120.541714,45.1636364 120.541714,45.1636364 119.883429,45.8181818 C119.225143,45.8181818 119.225143,46.4727273 118.566857,46.4727273 L117.250286,47.1272727 C116.592,47.1272727 116.592,47.1272727 116.592,47.1272727 L81.0445714,55.6363636 C79.0697143,56.2909091 77.0948571,56.2909091 75.12,55.6363636 C73.8034286,55.6363636 72.4868571,54.9818182 71.8285714,54.3272727 C71.1702857,53.6727273 71.1702857,52.3636364 71.1702857,51.7090909 C71.1702857,51.0545455 71.1702857,50.4 71.1702857,49.7454545 C71.1702857,49.0909091 71.8285714,48.4363636 71.8285714,48.4363636 L75.7782857,37.9636364 C69.1954286,35.3454545 62.6125714,33.3818182 55.3714286,32.7272727 C50.1051429,31.4181818 44.1805714,31.4181818 38.9142857,32.7272727 C34.3062857,33.3818182 30.3565714,34.6909091 25.7485714,36.6545455 C22.4571429,38.6181818 19.1657143,40.5818182 16.5325714,43.2 Z M119.890909,72.2989011 C120.545455,71.6659341 120.545455,71.032967 121.2,70.4 C119.890909,76.7296703 117.927273,83.0593407 115.309091,89.389011 C108.109091,107.112088 90.4363636,119.138462 70.1454545,119.138462 C60.3272727,119.138462 50.5090909,117.872527 41.3454545,114.707692 L37.4181818,124.835165 C36.7636364,125.468132 36.1090909,126.734066 34.8,127.367033 C34.1454545,128 32.8363636,128 32.1818182,128 C30.8727273,128 30.2181818,128 28.9090909,127.367033 C28.9090909,127.367033 28.2545455,127.367033 27.6,126.734066 C27.6,126.734066 26.9454545,126.101099 26.9454545,126.101099 L6.65454545,91.9208791 C6.65454545,91.2879121 6,90.021978 6,89.389011 C6,88.756044 6,88.1230769 6,87.4901099 C6.65454545,86.8571429 6.65454545,86.2241758 6,85.5912088 C6.65454545,84.9582418 6.65454545,84.9582418 7.30909091,84.3252747 C7.30909091,84.3252747 7.96363636,83.6923077 8.61818182,83.6923077 C9.27272727,83.0593407 9.27272727,83.0593407 9.92727273,83.0593407 C10.5818182,83.0593407 10.5818182,83.0593407 10.5818182,83.0593407 L45.9272727,73.5648352 C47.2363636,72.9318681 49.2,72.9318681 50.5090909,72.9318681 C51.1636364,72.9318681 52.4727273,72.9318681 53.1272727,73.5648352 C53.7818182,73.5648352 54.4363636,74.1978022 54.4363636,74.8307692 C55.0909091,75.4637363 55.0909091,76.0967033 55.0909091,76.7296703 C55.0909091,77.3626374 55.0909091,77.9956044 55.0909091,78.6285714 C55.0909091,79.2615385 55.0909091,79.8945055 55.0909091,79.8945055 C55.0909091,80.5274725 55.0909091,80.5274725 55.0909091,80.5274725 L51.1636364,90.6549451 C58.3636364,93.1868132 64.9090909,95.0857143 72.1090909,95.7186813 C77.3454545,96.3516484 83.2363636,96.3516484 89.1272727,95.0857143 C93.0545455,94.4527473 97.6363636,92.5538462 101.563636,90.6549451 C104.836364,88.756044 108.109091,86.8571429 110.727273,84.3252747 C112.690909,82.4263736 114.654545,79.8945055 116.618182,77.3626374 C117.927273,76.0967033 118.581818,74.1978022 119.890909,72.2989011 Z" id="Combined-Shape" fill="#000000" fill-rule="nonzero"></path>
    </g>
</svg>