<?xml version="1.0" encoding="UTF-8"?>
<svg width="128px" height="128px" viewBox="0 0 128 128" version="1.1" xmlns="http://www.w3.org/2000/svg" xmlns:xlink="http://www.w3.org/1999/xlink">
    <!-- Generator: Sketch 49.1 (51147) - http://www.bohemiancoding.com/sketch -->
    <title>report-warning</title>
    <desc>Created with Sketch.</desc>
    <defs></defs>
    <g id="report-warning" stroke="none" stroke-width="1" fill="none" fill-rule="evenodd">
        <path d="M58.8113208,114.301887 L14.3584906,114.301887 C14.3584906,114.301887 14.3584906,11.3584906 14.3584906,11.3584906 C14.3584906,11.3584906 49.9207547,11.3584906 63.490566,11.3584906 L63.490566,46.4528302 L98.5849057,46.4528302 L98.5849057,55.8113208 C98.5849057,58.3849057 100.690566,60.490566 103.264151,60.490566 C105.837736,60.490566 107.943396,58.3849057 107.943396,55.8113208 L107.943396,37.5622642 L72.3811321,2 L14.3584906,2 C9.21132075,2 5,6.21132075 5,11.3584906 L5,114.301887 C5,119.449057 9.21132075,123.660377 14.3584906,123.660377 L58.8113208,123.660377 C61.3849057,123.660377 63.490566,121.554717 63.490566,118.981132 C63.490566,116.407547 61.3849057,114.301887 58.8113208,114.301887 Z M72.8490566,15.5698113 L94.3735849,37.0943396 L72.8490566,37.0943396 L72.8490566,15.5698113 Z M21.3773585,37.0943396 L44.7735849,37.0943396 L44.7735849,46.4528302 L21.3773585,46.4528302 L21.3773585,37.0943396 Z M21.3773585,62.8301887 L58.8113208,62.8301887 L58.8113208,72.1886792 L21.3773585,72.1886792 L21.3773585,62.8301887 Z M21.3773585,88.5660377 L44.7735849,88.5660377 L44.7735849,97.9245283 L21.3773585,97.9245283 L21.3773585,88.5660377 Z M93.9056604,65.1698113 C110.750943,65.1698113 124.320755,78.7396226 124.320755,95.5849057 C124.320755,112.430189 110.750943,126 93.9056604,126 C77.0603774,126 63.490566,112.430189 63.490566,95.5849057 C63.490566,78.7396226 77.0603774,65.1698113 93.9056604,65.1698113 Z M93.9056604,116.641509 C105.603774,116.641509 114.962264,107.283019 114.962264,95.5849057 C114.962264,83.8867925 105.603774,74.5283019 93.9056604,74.5283019 C82.2075472,74.5283019 72.8490566,83.8867925 72.8490566,95.5849057 C72.8490566,107.283019 82.2075472,116.641509 93.9056604,116.641509 Z M91,82 L98,82 L98,100 L91,100 L91,82 Z M94.5,110 C96.4329966,110 98,108.432997 98,106.5 C98,104.567003 96.4329966,103 94.5,103 C92.5670034,103 91,104.567003 91,106.5 C91,108.432997 92.5670034,110 94.5,110 Z" id="Combined-Shape" fill="#000000" fill-rule="nonzero"></path>
    </g>
</svg>