<?xml version="1.0" encoding="UTF-8"?>
<svg width="128px" height="128px" viewBox="0 0 128 128" version="1.1" xmlns="http://www.w3.org/2000/svg" xmlns:xlink="http://www.w3.org/1999/xlink">
    <!-- Generator: Sketch 49.1 (51147) - http://www.bohemiancoding.com/sketch -->
    <title>report-form</title>
    <desc>Created with Sketch.</desc>
    <defs></defs>
    <g id="report-form" stroke="none" stroke-width="1" fill="none" fill-rule="evenodd">
        <path d="M78.6769231,2 L19.5384615,2 C14.2923077,2 10,6.29230769 10,11.5384615 L10,116.461538 C10,121.707692 14.2923077,126 19.5384615,126 L105.384615,126 C110.630769,126 114.923077,121.707692 114.923077,116.461538 L114.923077,38.2461538 L78.6769231,2 Z M79.1538462,15.8307692 L101.092308,37.7692308 L79.1538462,37.7692308 L79.1538462,15.8307692 Z M19.5384615,116.461538 C19.5384615,116.461538 19.5384615,11.5384615 19.5384615,11.5384615 C19.5384615,11.5384615 55.7846154,11.5384615 69.6153846,11.5384615 L69.6153846,47.3076923 L105.384615,47.3076923 L105.384615,116.461538 L19.5384615,116.461538 Z M26.6923077,37.7692308 L50.5384615,37.7692308 L50.5384615,47.3076923 L26.6923077,47.3076923 L26.6923077,37.7692308 Z M26.6923077,64 L74.3846154,64 L74.3846154,73.5384615 L26.6923077,73.5384615 L26.6923077,64 Z M26.6923077,90.2307692 L98.2307692,90.2307692 L98.2307692,99.7692308 L26.6923077,99.7692308 L26.6923077,90.2307692 Z" id="Combined-Shape" fill="#000000" fill-rule="nonzero"></path>
    </g>
</svg>