<?xml version="1.0" encoding="UTF-8"?>
<svg width="128px" height="128px" viewBox="0 0 128 128" version="1.1" xmlns="http://www.w3.org/2000/svg" xmlns:xlink="http://www.w3.org/1999/xlink">
    <!-- Generator: Sketch 49.1 (51147) - http://www.bohemiancoding.com/sketch -->
    <title>revert</title>
    <desc>Created with Sketch.</desc>
    <defs></defs>
    <g id="revert" stroke="none" stroke-width="1" fill="none" fill-rule="evenodd">
        <path d="M53.6,37 L53.6,17 C53.6,16.2 53.6,13 52,11.4 C50.4,9 46.4,8.2 43.2,9.8 L42.4,9.8 L4,50.6 C3.2,51.4 0,55.4 0,60.2 C0,65 4,69 4.8,69.8 L43.2,113 C44,113.8 46.4,116.2 49.6,116.2 C52,116.2 54.4,114.6 55.2,113 C55.2,111.4 56,109 56,106.6 L56,82.6 C67.2,82.6 99.2,84.2 117.6,117.8 C119.2,120.2 120.8,121 123.2,121 L124.8,121 L126.4,119.4 C128,117.8 128,115.4 128,114.6 C127.2,102.6 121.6,39.4 53.6,37 Z M57.6,73 C53.6,73 50.4,73 50.4,73 L46.4,73.8 L46.4,102.6 L12,63.4 C10.4,62.6 9.6,61 9.6,60.2 C9.6,59.4 10.4,57.8 11.2,57 L44.8,21 L44.8,45.8 L49.6,45.8 C97.6,45.8 112.8,77.8 116.8,100.2 C96.8,76.2 69.6,73 57.6,73 Z" id="Shape" fill="#000000" fill-rule="nonzero"></path>
    </g>
</svg>