<?xml version="1.0" encoding="UTF-8"?>
<svg width="128px" height="128px" viewBox="0 0 128 128" version="1.1" xmlns="http://www.w3.org/2000/svg" xmlns:xlink="http://www.w3.org/1999/xlink">
    <!-- Generator: Sketch 49.1 (51147) - http://www.bohemiancoding.com/sketch -->
    <title>safe</title>
    <desc>Created with Sketch.</desc>
    <defs></defs>
    <g id="safe" stroke="none" stroke-width="1" fill="none" fill-rule="evenodd">
        <path d="M114.455808,18.4096386 C105.652595,18.4096386 96.849382,16.0160643 88.8654462,12.8192771 C80.8815105,9.62248996 73.6686591,6.40963855 67.2590205,1.62248996 L64.0622334,0 L60.8654462,2.3935743 C53.6686591,7.19678715 46.4718719,10.37751 39.2590205,13.5903614 C31.2750848,15.9839357 22.4718719,18.3935743 13.6686591,18.3935743 L8.06223338,18.3935743 L8.06223338,72 C8.06223338,99.1967871 44.849382,128 64.0622334,128 C83.2750848,128 120.062233,99.1967871 120.062233,72.8032129 L120.062233,18.4096386 L114.455808,18.4096386 Z M104.062233,72.8032129 C104.062233,90.4096386 75.2590205,112 64.0622334,112 C52.8654462,112 24.0622334,90.3935743 24.0622334,72.8032129 L24.0622334,33.6064257 C31.2590205,32.8192771 37.6686591,31.2128514 44.8654462,28.0160643 C51.2750848,25.62249 57.6686591,22.4257028 64.0782976,19.2128514 C70.4879362,23.2128514 76.8815105,25.62249 83.291149,28.8032129 C89.7007876,31.1967871 96.8975747,32.8032129 104.094362,34.3935743 L104.094362,72.8032129 L104.062233,72.8032129 Z M58.0907402,88.7964762 L94.7294182,49.1240692 L88.2377892,43.3657209 L57.6643106,76.4733839 L39.8875271,59.6715762 L33.8109055,65.846373 L58.0907402,88.7964762 Z" id="Combined-Shape" fill="#000000" fill-rule="nonzero"></path>
    </g>
</svg>