<?xml version="1.0" encoding="UTF-8"?>
<svg width="128px" height="128px" viewBox="0 0 128 128" version="1.1" xmlns="http://www.w3.org/2000/svg" xmlns:xlink="http://www.w3.org/1999/xlink">
    <!-- Generator: Sketch 49.1 (51147) - http://www.bohemiancoding.com/sketch -->
    <title>schedule</title>
    <desc>Created with Sketch.</desc>
    <defs></defs>
    <g id="schedule" stroke="none" stroke-width="1" fill="none" fill-rule="evenodd">
        <path d="M43.4150943,22.0566038 C47.3924528,22.0566038 50.4339623,19.0150943 50.4339623,15.0377358 L50.4339623,8.01886792 C50.4339623,4.04150943 47.3924528,1 43.4150943,1 C39.4377358,1 36.3962264,4.04150943 36.3962264,8.01886792 L36.3962264,15.0377358 C36.3962264,19.0150943 39.4377358,22.0566038 43.4150943,22.0566038 Z M41.0754717,8.01886792 C41.0754717,6.61509434 42.0113208,5.67924528 43.4150943,5.67924528 C44.8188679,5.67924528 45.754717,6.61509434 45.754717,8.01886792 L45.754717,15.0377358 C45.754717,16.4415094 44.8188679,17.3773585 43.4150943,17.3773585 C42.0113208,17.3773585 41.0754717,16.4415094 41.0754717,15.0377358 L41.0754717,8.01886792 Z M85.5283019,22.0566038 C81.5509434,22.0566038 78.509434,19.0150943 78.509434,15.0377358 L78.509434,8.01886792 C78.509434,4.04150943 81.5509434,1 85.5283019,1 C89.5056604,1 92.5471698,4.04150943 92.5471698,8.01886792 L92.5471698,15.0377358 C92.5471698,19.0150943 89.5056604,22.0566038 85.5283019,22.0566038 Z M83.1886792,8.01886792 L83.1886792,15.0377358 C83.1886792,16.4415094 84.1245283,17.3773585 85.5283019,17.3773585 C86.9320755,17.3773585 87.8679245,16.4415094 87.8679245,15.0377358 L87.8679245,8.01886792 C87.8679245,6.61509434 86.9320755,5.67924528 85.5283019,5.67924528 C84.1245283,5.67924528 83.1886792,6.61509434 83.1886792,8.01886792 Z M59.7924528,19.7169811 C57.2188679,19.7169811 55.1132075,17.6113208 55.1132075,15.0377358 C55.1132075,12.4641509 57.2188679,10.3584906 59.7924528,10.3584906 L69.1509434,10.3584906 C71.7245283,10.3584906 73.8301887,12.4641509 73.8301887,15.0377358 C73.8301887,17.6113208 71.7245283,19.7169811 69.1509434,19.7169811 L59.7924528,19.7169811 Z M106.584906,10.3584906 C111.732075,10.3584906 115.943396,14.5698113 115.943396,19.7169811 L115.943396,115.641509 C115.943396,120.788679 111.732075,125 106.584906,125 L22.3584906,125 C17.2113208,125 13,120.788679 13,115.641509 L13,19.7169811 C13,14.5698113 17.2113208,10.3584906 22.3584906,10.3584906 L27.0377358,10.3584906 C29.6113208,10.3584906 31.7169811,12.4641509 31.7169811,15.0377358 C31.7169811,17.6113208 29.6113208,19.7169811 27.0377358,19.7169811 C27.0377358,19.7169811 22.3584906,19.7169811 22.3584906,19.7169811 C22.3584906,19.7169811 22.3584906,23.2264151 22.3584906,29.0754717 L106.584906,29.0754717 C106.584906,23.2264151 106.584906,19.7169811 106.584906,19.7169811 L101.90566,19.7169811 C99.3320755,19.7169811 97.2264151,17.6113208 97.2264151,15.0377358 C97.2264151,12.4641509 99.3320755,10.3584906 101.90566,10.3584906 L106.584906,10.3584906 Z M22.3584906,115.641509 C22.3584906,115.641509 106.584906,115.641509 106.584906,115.641509 C106.584906,115.641509 106.584906,60.4264151 106.584906,33.754717 L22.3584906,33.754717 C22.3584906,60.4264151 22.3584906,115.641509 22.3584906,115.641509 Z M34.0566038,43.1132075 L48.0943396,43.1132075 L48.0943396,57.1509434 L34.0566038,57.1509434 L34.0566038,43.1132075 Z M57.4528302,43.1132075 L71.490566,43.1132075 L71.490566,57.1509434 L57.4528302,57.1509434 L57.4528302,43.1132075 Z M80.8490566,43.1132075 L94.8867925,43.1132075 L94.8867925,57.1509434 L80.8490566,57.1509434 L80.8490566,43.1132075 Z M34.0566038,66.509434 L48.0943396,66.509434 L48.0943396,80.5471698 L34.0566038,80.5471698 L34.0566038,66.509434 Z M57.4528302,66.509434 L71.490566,66.509434 L71.490566,80.5471698 L57.4528302,80.5471698 L57.4528302,66.509434 Z M80.8490566,66.509434 L94.8867925,66.509434 L94.8867925,80.5471698 L80.8490566,80.5471698 L80.8490566,66.509434 Z M34.0566038,89.9056604 L48.0943396,89.9056604 L48.0943396,103.943396 L34.0566038,103.943396 L34.0566038,89.9056604 Z M57.4528302,89.9056604 L71.490566,89.9056604 L71.490566,103.943396 L57.4528302,103.943396 L57.4528302,89.9056604 Z M80.8490566,89.9056604 L94.8867925,89.9056604 L94.8867925,103.943396 L80.8490566,103.943396 L80.8490566,89.9056604 Z" id="Combined-Shape" fill="#000000" fill-rule="nonzero"></path>
    </g>
</svg>