<?xml version="1.0" encoding="UTF-8"?>
<svg width="128px" height="128px" viewBox="0 0 128 128" version="1.1" xmlns="http://www.w3.org/2000/svg" xmlns:xlink="http://www.w3.org/1999/xlink">
    <!-- Generator: Sketch 49.1 (51147) - http://www.bohemiancoding.com/sketch -->
    <title>schedule-close</title>
    <desc>Created with Sketch.</desc>
    <defs></defs>
    <g id="schedule-close" stroke="none" stroke-width="1" fill="none" fill-rule="evenodd">
        <path d="M37.3090909,21.2909091 C41.1418182,21.2909091 44.0727273,18.36 44.0727273,14.5272727 L44.0727273,7.76363636 C44.0727273,3.93090909 41.1418182,1 37.3090909,1 C33.4763636,1 30.5454545,3.93090909 30.5454545,7.76363636 L30.5454545,14.5272727 C30.5454545,18.36 33.4763636,21.2909091 37.3090909,21.2909091 Z M35.0545455,7.76363636 C35.0545455,6.41090909 35.9563636,5.50909091 37.3090909,5.50909091 C38.6618182,5.50909091 39.5636364,6.41090909 39.5636364,7.76363636 L39.5636364,14.5272727 C39.5636364,15.88 38.6618182,16.7818182 37.3090909,16.7818182 C35.9563636,16.7818182 35.0545455,15.88 35.0545455,14.5272727 L35.0545455,7.76363636 Z M77.8909091,21.2909091 C74.0581818,21.2909091 71.1272727,18.36 71.1272727,14.5272727 L71.1272727,7.76363636 C71.1272727,3.93090909 74.0581818,1 77.8909091,1 C81.7236364,1 84.6545455,3.93090909 84.6545455,7.76363636 L84.6545455,14.5272727 C84.6545455,18.36 81.7236364,21.2909091 77.8909091,21.2909091 Z M75.6363636,7.76363636 L75.6363636,14.5272727 C75.6363636,15.88 76.5381818,16.7818182 77.8909091,16.7818182 C79.2436364,16.7818182 80.1454545,15.88 80.1454545,14.5272727 L80.1454545,7.76363636 C80.1454545,6.41090909 79.2436364,5.50909091 77.8909091,5.50909091 C76.5381818,5.50909091 75.6363636,6.41090909 75.6363636,7.76363636 Z M53.0909091,19.0363636 C50.6109091,19.0363636 48.5818182,17.0072727 48.5818182,14.5272727 C48.5818182,12.0472727 50.6109091,10.0181818 53.0909091,10.0181818 L62.1090909,10.0181818 C64.5890909,10.0181818 66.6181818,12.0472727 66.6181818,14.5272727 C66.6181818,17.0072727 64.5890909,19.0363636 62.1090909,19.0363636 L53.0909091,19.0363636 Z M55.3454545,111.472727 C57.8254545,111.472727 59.8545455,113.501818 59.8545455,115.981818 C59.8545455,118.461818 57.8254545,120.490909 55.3454545,120.490909 L17.0181818,120.490909 C12.0581818,120.490909 8,116.432727 8,111.472727 L8,19.0363636 C8,14.0763636 12.0581818,10.0181818 17.0181818,10.0181818 L21.5272727,10.0181818 C24.0072727,10.0181818 26.0363636,12.0472727 26.0363636,14.5272727 C26.0363636,17.0072727 24.0072727,19.0363636 21.5272727,19.0363636 C21.5272727,19.0363636 17.0181818,19.0363636 17.0181818,19.0363636 C17.0181818,19.0363636 17.0181818,22.4181818 17.0181818,28.0545455 L98.1818182,28.0545455 C98.1818182,22.8690909 98.1818182,19.0363636 98.1818182,19.0363636 L93.6727273,19.0363636 C91.1927273,19.0363636 89.1636364,17.0072727 89.1636364,14.5272727 C89.1636364,12.0472727 91.1927273,10.0181818 93.6727273,10.0181818 L98.1818182,10.0181818 C103.141818,10.0181818 107.2,14.0763636 107.2,19.0363636 L107.2,57.3636364 C107.2,59.8436364 105.170909,61.8727273 102.690909,61.8727273 C100.210909,61.8727273 98.1818182,59.8436364 98.1818182,57.3636364 C98.1818182,57.3636364 98.1818182,43.6109091 98.1818182,32.5636364 L17.0181818,32.5636364 C17.0181818,58.2654545 17.0181818,111.472727 17.0181818,111.472727 L55.3454545,111.472727 Z M28.2909091,41.5818182 L41.8181818,41.5818182 L41.8181818,55.1090909 L28.2909091,55.1090909 L28.2909091,41.5818182 Z M50.8363636,41.5818182 L64.3636364,41.5818182 L64.3636364,55.1090909 L50.8363636,55.1090909 L50.8363636,41.5818182 Z M73.3818182,41.5818182 L86.9090909,41.5818182 L86.9090909,55.1090909 L73.3818182,55.1090909 L73.3818182,41.5818182 Z M28.2909091,64.1272727 L41.8181818,64.1272727 L41.8181818,77.6545455 L28.2909091,77.6545455 L28.2909091,64.1272727 Z M50.8363636,64.1272727 L64.3636364,64.1272727 L64.3636364,77.6545455 L50.8363636,77.6545455 L50.8363636,64.1272727 Z M28.2909091,86.6727273 L41.8181818,86.6727273 L41.8181818,100.2 L28.2909091,100.2 L28.2909091,86.6727273 Z M91.4181818,66.3818182 C107.650909,66.3818182 120.727273,79.4581818 120.727273,95.6909091 C120.727273,111.923636 107.650909,125 91.4181818,125 C75.1854545,125 62.1090909,111.923636 62.1090909,95.6909091 C62.1090909,79.4581818 75.1854545,66.3818182 91.4181818,66.3818182 Z M91.4181818,115.981818 C102.690909,115.981818 111.709091,106.963636 111.709091,95.6909091 C111.709091,84.4181818 102.690909,75.4 91.4181818,75.4 C80.1454545,75.4 71.1272727,84.4181818 71.1272727,95.6909091 C71.1272727,106.963636 80.1454545,115.981818 91.4181818,115.981818 Z M97.9563636,86.2218182 L91.6436364,92.76 L85.1054545,86.2218182 L81.9490909,89.3781818 L88.4872727,95.9163636 L81.9490909,102.229091 L85.1054545,105.385455 L91.6436364,99.0727273 L97.9563636,105.385455 L101.112727,102.229091 L94.8,95.9163636 L101.112727,89.3781818 L97.9563636,86.2218182 Z" id="Combined-Shape" fill="#000000" fill-rule="nonzero"></path>
    </g>
</svg>