<?xml version="1.0" encoding="UTF-8"?>
<svg width="128px" height="128px" viewBox="0 0 128 128" version="1.1" xmlns="http://www.w3.org/2000/svg" xmlns:xlink="http://www.w3.org/1999/xlink">
    <!-- Generator: Sketch 49.1 (51147) - http://www.bohemiancoding.com/sketch -->
    <title>schedule-mine</title>
    <desc>Created with Sketch.</desc>
    <defs></defs>
    <g id="schedule-mine" stroke="none" stroke-width="1" fill="none" fill-rule="evenodd">
        <path d="M38.03125,21.6666667 C41.9349537,21.6666667 44.9201389,18.6814815 44.9201389,14.7777778 L44.9201389,7.88888889 C44.9201389,3.98518519 41.9349537,1 38.03125,1 C34.1275463,1 31.1423611,3.98518519 31.1423611,7.88888889 L31.1423611,14.7777778 C31.1423611,18.6814815 34.1275463,21.6666667 38.03125,21.6666667 Z M35.7349537,7.88888889 C35.7349537,6.51111111 36.6534722,5.59259259 38.03125,5.59259259 C39.4090278,5.59259259 40.3275463,6.51111111 40.3275463,7.88888889 L40.3275463,14.7777778 C40.3275463,16.1555556 39.4090278,17.0740741 38.03125,17.0740741 C36.6534722,17.0740741 35.7349537,16.1555556 35.7349537,14.7777778 L35.7349537,7.88888889 Z M79.3645833,21.6666667 C75.4608796,21.6666667 72.4756944,18.6814815 72.4756944,14.7777778 L72.4756944,7.88888889 C72.4756944,3.98518519 75.4608796,1 79.3645833,1 C83.268287,1 86.2534722,3.98518519 86.2534722,7.88888889 L86.2534722,14.7777778 C86.2534722,18.6814815 83.268287,21.6666667 79.3645833,21.6666667 Z M77.068287,7.88888889 L77.068287,14.7777778 C77.068287,16.1555556 77.9868056,17.0740741 79.3645833,17.0740741 C80.7423611,17.0740741 81.6608796,16.1555556 81.6608796,14.7777778 L81.6608796,7.88888889 C81.6608796,6.51111111 80.7423611,5.59259259 79.3645833,5.59259259 C77.9868056,5.59259259 77.068287,6.51111111 77.068287,7.88888889 Z M56.4016204,113.518519 C58.9275463,113.518519 60.994213,115.585185 60.994213,118.111111 C60.994213,120.637037 58.9275463,122.703704 56.4016204,122.703704 L17.3645833,122.703704 C12.3127315,122.703704 8.17939815,118.57037 8.17939815,113.518519 L8.17939815,19.3703704 C8.17939815,14.3185185 12.3127315,10.1851852 17.3645833,10.1851852 L21.9571759,10.1851852 C24.4831019,10.1851852 26.5497685,12.2518519 26.5497685,14.7777778 C26.5497685,17.3037037 24.4831019,19.3703704 21.9571759,19.3703704 C21.9571759,19.3703704 17.3645833,19.3703704 17.3645833,19.3703704 C17.3645833,19.3703704 17.3645833,22.8148148 17.3645833,28.5555556 L100.03125,28.5555556 C100.03125,23.5037037 100.03125,19.3703704 100.03125,19.3703704 L95.4386574,19.3703704 C92.9127315,19.3703704 90.8460648,17.3037037 90.8460648,14.7777778 C90.8460648,12.2518519 92.9127315,10.1851852 95.4386574,10.1851852 L100.03125,10.1851852 C105.083102,10.1851852 109.216435,14.3185185 109.216435,19.3703704 L109.216435,49.2222222 C109.216435,51.7481481 107.149769,53.8148148 104.623843,53.8148148 C102.097917,53.8148148 100.03125,51.7481481 100.03125,49.2222222 C100.03125,49.2222222 100.03125,40.9555556 100.03125,33.1481481 L17.3645833,33.1481481 C17.3645833,59.3259259 17.3645833,113.518519 17.3645833,113.518519 L56.4016204,113.518519 Z M54.1053241,19.3703704 C51.5793981,19.3703704 49.5127315,17.3037037 49.5127315,14.7777778 C49.5127315,12.2518519 51.5793981,10.1851852 54.1053241,10.1851852 L63.2905093,10.1851852 C65.8164352,10.1851852 67.8831019,12.2518519 67.8831019,14.7777778 C67.8831019,17.3037037 65.8164352,19.3703704 63.2905093,19.3703704 L54.1053241,19.3703704 Z M28.8460648,42.3333333 L42.6238426,42.3333333 L42.6238426,56.1111111 L28.8460648,56.1111111 L28.8460648,42.3333333 Z M51.8090278,42.3333333 L65.5868056,42.3333333 L65.5868056,56.1111111 L51.8090278,56.1111111 L51.8090278,42.3333333 Z M74.7719907,42.3333333 L88.5497685,42.3333333 L88.5497685,56.1111111 L74.7719907,56.1111111 L74.7719907,42.3333333 Z M28.8460648,65.2962963 L42.6238426,65.2962963 L42.6238426,79.0740741 L28.8460648,79.0740741 L28.8460648,65.2962963 Z M51.8090278,65.2962963 L65.5868056,65.2962963 L65.5868056,79.0740741 L51.8090278,79.0740741 L51.8090278,65.2962963 Z M28.8460648,88.2592593 L42.6238426,88.2592593 L42.6238426,102.037037 L28.8460648,102.037037 L28.8460648,88.2592593 Z M100.949769,59.7851852 C103.016435,60.4740741 104.853472,61.8518519 106.46088,63.4592593 C108.068287,65.0666667 109.216435,66.9037037 110.134954,68.9703704 C111.053472,71.037037 111.512731,73.3333333 111.512731,75.6296296 C111.512731,77.9259259 111.053472,80.2222222 110.134954,82.2888889 C109.216435,84.3555556 108.068287,86.1925926 106.46088,87.8 C104.853472,89.4074074 103.016435,90.5555556 100.949769,91.4740741 C98.8831019,92.3925926 96.5868056,92.8518519 94.2905093,92.8518519 C91.994213,92.8518519 89.6979167,92.3925926 87.63125,91.4740741 C85.5645833,90.7851852 83.7275463,89.4074074 82.1201389,87.8 C80.5127315,86.1925926 79.3645833,84.3555556 78.4460648,82.2888889 C77.5275463,80.2222222 77.068287,77.9259259 77.068287,75.6296296 C77.068287,73.3333333 77.5275463,71.037037 78.4460648,68.9703704 C79.1349537,66.9037037 80.5127315,65.0666667 82.1201389,63.4592593 C83.7275463,61.8518519 85.5645833,60.7037037 87.63125,59.7851852 C89.6979167,58.8666667 91.994213,58.4074074 94.2905093,58.4074074 C96.5868056,58.4074074 98.8831019,58.8666667 100.949769,59.7851852 Z M101.638657,78.6148148 C102.097917,77.6962963 102.327546,76.5481481 102.097917,75.6296296 C102.097917,74.4814815 102.097917,73.562963 101.638657,72.6444444 C101.409028,71.7259259 100.720139,70.8074074 100.03125,70.1185185 C99.3423611,69.4296296 98.4238426,68.7407407 97.5053241,68.2814815 C96.5868056,67.8222222 95.4386574,67.5925926 94.2905093,67.5925926 C93.1423611,67.5925926 91.994213,67.8222222 91.0756944,68.2814815 C90.1571759,68.7407407 89.2386574,69.4296296 88.5497685,70.1185185 C87.8608796,70.8074074 87.4016204,71.7259259 86.9423611,72.6444444 C86.7127315,73.562963 86.4831019,74.7111111 86.4831019,75.6296296 C86.4831019,76.7777778 86.4831019,77.6962963 86.9423611,78.6148148 C87.1719907,79.5333333 87.8608796,80.4518519 88.5497685,81.1407407 C89.2386574,81.8296296 90.1571759,82.5185185 91.0756944,82.9777778 C91.994213,83.437037 93.1423611,83.6666667 94.2905093,83.6666667 C95.4386574,83.6666667 96.3571759,83.437037 97.5053241,82.9777778 C98.4238426,82.5185185 99.3423611,81.8296296 100.03125,81.1407407 C100.720139,80.4518519 101.179398,79.5333333 101.638657,78.6148148 Z M105.771991,91.9333333 C114.497917,96.0666667 120.697917,105.251852 120.697917,115.814815 C120.697917,126.837037 67.8831019,126.837037 67.8831019,115.814815 C67.8831019,105.251852 73.8534722,96.2962963 82.8090278,91.9333333 C86.2534722,94.2296296 90.1571759,95.3777778 94.2905093,95.3777778 C98.6534722,95.3777778 102.557176,94 105.771991,91.9333333 Z M110.134954,112.82963 C110.364583,112.6 110.823843,112.6 111.283102,112.6 C110.364583,108.696296 108.297917,105.251852 105.312731,102.725926 C101.868287,104.103704 98.194213,104.792593 94.2905093,104.792593 C90.3868056,104.792593 86.7127315,104.103704 83.268287,102.725926 C80.0534722,105.251852 77.9868056,108.696296 77.2979167,112.6 C77.7571759,112.82963 77.9868056,113.059259 78.4460648,113.059259 C82.5793981,113.977778 88.3201389,114.666667 94.2905093,114.666667 C100.490509,114.666667 106.23125,113.977778 110.134954,112.82963 Z" id="Combined-Shape" fill="#000000" fill-rule="nonzero"></path>
    </g>
</svg>