<?xml version="1.0" encoding="UTF-8"?>
<svg width="128px" height="128px" viewBox="0 0 128 128" version="1.1" xmlns="http://www.w3.org/2000/svg" xmlns:xlink="http://www.w3.org/1999/xlink">
    <!-- Generator: Sketch 49.1 (51147) - http://www.bohemiancoding.com/sketch -->
    <title>search</title>
    <desc>Created with Sketch.</desc>
    <defs></defs>
    <g id="search" stroke="none" stroke-width="1" fill="none" fill-rule="evenodd">
        <g fill="#000000" fill-rule="nonzero" id="Shape">
            <path d="M55.184,110.376 C24.76,110.376 0,85.616 0,55.192 C0.008,24.76 24.76,0 55.184,0 C85.608,0 110.36,24.76 110.36,55.184 C110.368,85.616 85.616,110.376 55.184,110.376 M55.184,13.584 C32.248,13.584 13.584,32.248 13.584,55.184 C13.584,78.12 32.24,96.784 55.184,96.784 C78.12,96.784 96.784,78.12 96.784,55.184 C96.784,32.248 78.128,13.584 55.184,13.584 M119.632,128 C117.488,128 115.352,127.184 113.72,125.552 L84.888,96.72 C81.624,93.456 81.624,88.16 84.888,84.896 C88.152,81.632 93.44,81.632 96.712,84.896 L125.544,113.728 C128.808,116.992 128.808,122.288 125.544,125.552 C123.912,127.184 121.776,128 119.632,128"></path>
        </g>
    </g>
</svg>