<?xml version="1.0" encoding="UTF-8"?>
<svg width="128px" height="128px" viewBox="0 0 128 128" version="1.1" xmlns="http://www.w3.org/2000/svg" xmlns:xlink="http://www.w3.org/1999/xlink">
    <!-- Generator: Sketch 49.1 (51147) - http://www.bohemiancoding.com/sketch -->
    <title>service</title>
    <desc>Created with Sketch.</desc>
    <defs></defs>
    <g id="service" stroke="none" stroke-width="1" fill="none" fill-rule="evenodd">
        <path d="M121.624433,24.7136004 L117.123678,24.7136004 C115.998489,22.4632227 114.8733,20.212845 113.185517,17.9624673 L115.435895,14.0243063 C116.561084,12.336523 115.998489,10.0861453 114.310706,8.9609564 L108.122167,5.58538983 C106.434384,4.46020097 104.184006,5.0227954 103.058817,6.71057869 L100.80844,10.6487397 C97.9954674,10.6487397 95.7450897,10.6487397 92.9321176,10.6487397 L90.6817398,6.71057869 C89.556551,5.0227954 87.3061733,4.46020097 85.61839,5.58538983 L79.9924457,8.9609564 C78.3046624,10.0861453 77.742068,12.336523 78.8672568,14.0243063 L81.1176345,17.9624673 C80.5550401,19.0876561 79.4298513,20.212845 78.8672568,21.3380338 C78.3046624,22.4632227 77.742068,23.5884116 77.1794735,24.7136004 L72.6787181,24.7136004 C70.9909348,24.7136004 69.3031515,26.4013837 69.3031515,28.089167 L69.3031515,34.8403001 C68.7405571,37.0906778 70.4283404,38.7784611 72.1161237,38.7784611 L76.6168791,38.7784611 C77.742068,41.0288389 78.8672568,43.2792166 80.5550401,45.5295943 L78.3046624,49.4677553 C77.1794735,51.1555386 77.742068,53.4059163 79.4298513,54.5311051 L85.61839,57.9066717 C87.3061733,59.0318606 89.556551,58.4692661 90.6817398,56.7814829 L92.9321176,52.8433219 C95.7450897,53.4059163 97.9954674,53.4059163 100.80844,52.8433219 L103.058817,56.7814829 C104.184006,58.4692661 106.434384,59.0318606 108.122167,57.9066717 L113.748111,53.9685107 C115.435895,52.8433219 115.998489,50.5929441 114.8733,48.9051609 L112.622923,44.9669999 C113.748111,44.4044054 114.310706,43.2792166 114.8733,42.1540277 C115.435895,41.0288389 115.998489,39.90365 116.561084,38.7784611 L121.061839,38.7784611 C123.312217,38.7784611 125,37.0906778 125,34.8403001 L125,28.089167 C125,26.4013837 123.312217,24.7136004 121.624433,24.7136004 Z M108.684762,38.7784611 C104.746601,44.9669999 96.8702786,47.2173776 90.6817398,43.841811 C84.4932011,39.90365 82.2428234,32.027328 85.61839,25.8387893 C89.556551,19.6502506 97.432873,17.3998728 103.621412,20.7754394 C109.80995,24.151006 112.060328,32.027328 108.684762,38.7784611 Z M73.9773992,103.486569 C73.9773992,105.091161 73.289717,106.466525 72.1435801,106.695752 C71.2266705,107.841889 69.6220788,109.675708 67.5590324,111.738755 C64.349849,114.947938 62.5160299,116.323303 59.9945286,116.323303 C58.6191643,116.323303 57.4730274,115.864848 56.3268905,115.177166 L56.0976631,114.947938 L52.6592523,112.426437 C52.4300249,114.718711 52.2007975,116.55253 51.7423427,117.927894 C51.0546606,120.678623 48.7623867,122.512442 45.7824307,122.512442 L35.6964257,122.512442 C34.3210614,122.512442 32.9456971,122.053987 31.7995602,121.137078 C30.6534232,120.220168 29.9657411,118.844804 29.7365137,117.469439 L29.0488315,112.655664 L25.6104208,115.177166 C24.6935112,116.094075 23.0889195,116.55253 21.7135552,116.55253 C20.3381909,116.55253 18.9628266,116.094075 17.8166896,115.177166 L17.5874622,114.947938 C10.7106407,108.529571 8.41836681,106.00807 8.41836681,103.028114 C8.41836681,101.65275 8.87682158,100.506613 9.56450374,99.3604759 C10.0229585,98.9020212 10.7106407,97.7558842 11.8567776,96.3805199 C12.086005,96.1512925 12.3152324,95.9220652 12.5444598,95.6928378 L7.27222988,94.7759282 C5.66763817,94.5467008 4.29227386,93.8590187 3.37536432,92.7128818 C2.45845477,91.5667448 2,90.1913805 2,88.8160162 L2,78.9592386 C2,77.5838743 2.45845477,76.4377374 3.37536432,75.2916004 C4.29227386,74.1454635 5.66763817,73.228554 7.27222988,72.9993266 L12.3152324,72.3116444 C11.3983228,71.3947349 10.4814133,70.2485979 9.56450374,69.102461 L9.33527635,68.8732336 L9.10604896,68.6440062 C8.41836681,67.7270967 7.95991203,66.5809598 7.95991203,65.2055954 C7.95991203,63.8302311 8.41836681,62.4548668 9.33527635,61.3087299 C10.2521859,59.9333656 11.8567776,58.3287739 14.1490515,56.0365 C17.3582349,52.8273166 19.1920539,51.4519523 21.7135552,51.4519523 C23.0889195,51.4519523 24.2350564,51.9104071 25.3811934,52.5980892 L25.6104208,52.8273166 L29.0488315,55.3488178 C29.2780589,53.056544 29.5072863,51.2227249 29.9657411,49.8473606 C30.6534232,47.096632 32.9456971,45.2628129 35.9256531,45.2628129 L46.0116581,45.2628129 C47.3870224,45.2628129 48.7623867,45.7212676 50.3669784,47.5550867 C51.5131154,48.4719963 52.2007975,49.8473606 52.4300249,51.2227249 L53.1177071,56.0365 L56.5561178,53.5149988 C57.7022548,52.5980892 59.0776191,52.1396344 60.4529834,52.1396344 C61.8283477,52.1396344 63.203712,52.5980892 64.349849,53.5149988 L64.5790764,53.7442261 C71.4558979,60.162593 73.7481718,62.6840942 73.7481718,65.6640502 C73.7481718,66.8101871 73.289717,68.1855515 72.3728075,69.3316884 C71.9143527,70.0193705 71.2266705,70.9362801 70.0805336,72.3116444 C70.0805336,72.5408718 69.8513062,72.7700992 69.6220788,72.9993266 L75.1235361,73.9162361 C76.7281278,74.1454635 77.8742647,74.8331457 78.7911743,75.9792826 C79.7080838,77.1254195 80.1665386,78.5007838 80.1665386,79.8761481 L80.1665386,89.7329257 C80.1665386,91.1082901 79.7080838,92.254427 78.7911743,93.4005639 C77.8742647,94.5467008 76.4989004,95.4636104 74.8943087,95.6928378 L69.8513062,96.3805199 C70.7682158,97.2974295 71.6851253,98.4435664 72.6020349,99.5897033 L72.8312623,99.8189307 C73.5189444,100.965068 73.9773992,102.111205 73.9773992,103.486569 Z M62.974154,108.178567 C64.2294862,107.174301 65.233752,106.170035 65.7358849,105.667903 C64.2294862,103.659371 62.974154,102.152972 61.9698883,100.646574 L60.2124232,98.1359095 L61.7188219,95.3741786 C62.4720212,93.86778 62.974154,92.6124478 63.2252205,91.6081821 L64.2294862,88.5953848 L67.2422835,88.093252 L73.5189444,87.0889862 L73.5189444,81.816591 L64.4805527,80.5612588 L63.4762869,77.5484616 C63.2252205,76.2931294 62.4720212,75.0377972 61.7188219,73.2803322 L60.4634897,70.7696678 L61.9698883,68.2590034 C62.4720212,67.2547377 63.4762869,65.9994055 64.7316191,64.4930068 C64.9826855,64.2419404 65.233752,63.7398075 65.4848184,63.4887411 C64.4805527,62.4844753 63.2252205,60.9780767 61.4677554,59.4716781 L54.1868287,64.9951397 L51.4250979,63.4887411 C50.1697657,62.7355418 48.9144335,62.2334089 47.9101678,61.9823425 L44.8973705,60.9780767 L44.3952377,57.714213 L43.3909719,51.4375521 L37.8675103,51.4375521 C37.6164439,52.9439507 37.3653774,54.9524822 37.114311,57.4631466 L36.8632446,60.7270103 L33.8504473,61.731276 C32.3440487,62.2334089 31.0887165,62.7355418 30.0844507,63.2376747 L27.3227199,64.7440733 L20.0417933,58.9695452 C19.5396604,59.4716781 19.2885939,59.7227445 18.7864611,60.2248774 C17.7821953,61.2291432 16.7779296,62.2334089 16.0247303,62.9866082 C17.5311289,64.7440733 18.7864611,66.5015383 19.7907268,68.007937 L21.5481919,70.5186013 L20.0417933,73.2803322 C19.2885939,74.7867308 18.7864611,76.042063 18.5353946,77.0463287 L17.5311289,80.059126 L14.5183316,80.5612588 L8.2416707,81.5655246 L8.2416707,86.8379198 L17.2800624,88.3443184 L18.2843282,91.3571156 C18.7864611,92.6124478 19.2885939,93.86778 20.0417933,95.3741786 L21.5481919,98.1359095 L19.7907268,100.646574 C19.0375275,101.65084 18.0332618,102.906172 16.7779296,104.41257 C16.5268631,104.663637 16.2757967,105.16577 16.0247303,105.416836 C17.028996,106.421102 18.2843282,107.927501 20.0417933,109.433899 L27.3227199,103.408305 L30.0844507,104.914703 C31.3397829,105.667903 32.5951151,106.170035 33.5993809,106.421102 L36.6121781,107.425368 L37.114311,110.689231 L38.1185767,116.965892 L43.6420384,116.965892 C43.8931048,115.459494 44.1441712,113.450962 44.3952377,110.940298 L44.6463041,107.676434 L47.9101678,106.672168 C49.1655,106.170035 50.4208322,105.667903 51.6761644,105.16577 L54.4378952,103.659371 L61.7188219,109.433899 C62.2209547,108.931766 62.4720212,108.6807 62.974154,108.178567 Z M40.8922465,68.1091423 C36.5369261,68.1091423 32.6400606,69.713734 29.6601046,72.9229174 C26.4509212,76.1321008 24.8463295,79.799739 24.8463295,84.1550593 C24.8463295,88.5103797 26.4509212,92.4072452 29.6601046,95.3872013 C32.869288,98.5963847 36.5369261,100.200976 40.8922465,100.200976 C45.2475668,100.200976 49.1444324,98.5963847 52.1243884,95.3872013 C55.3335718,92.1780179 56.9381635,88.5103797 56.9381635,84.1550593 C56.9381635,79.799739 55.3335718,75.9028735 52.1243884,72.9229174 C49.1444324,69.713734 45.2475668,68.1091423 40.8922465,68.1091423 Z M46.4832457,89.7460586 C44.8858173,91.3434869 43.0221509,92.1422011 40.8922465,92.1422011 C38.762342,92.1422011 36.8986756,91.3434869 35.3012473,89.7460586 C33.7038189,88.1486302 32.9051048,86.2849638 32.9051048,84.1550593 C32.9051048,82.0251549 33.7038189,80.1614885 35.3012473,78.5640601 C36.8986756,76.9666318 38.762342,76.1679176 40.8922465,76.1679176 C43.0221509,76.1679176 44.8858173,76.9666318 46.4832457,78.5640601 C48.080674,80.1614885 48.8793882,82.0251549 48.8793882,84.1550593 C48.8793882,86.2849638 48.080674,88.1486302 46.4832457,89.7460586 Z" id="Combined-Shape" fill="#000000" fill-rule="nonzero"></path>
    </g>
</svg>