<?xml version="1.0" encoding="UTF-8"?>
<svg width="128px" height="128px" viewBox="0 0 128 128" version="1.1" xmlns="http://www.w3.org/2000/svg" xmlns:xlink="http://www.w3.org/1999/xlink">
    <!-- Generator: Sketch 49.1 (51147) - http://www.bohemiancoding.com/sketch -->
    <title>setting</title>
    <desc>Created with Sketch.</desc>
    <defs></defs>
    <g id="setting" stroke="none" stroke-width="1" fill="none" fill-rule="evenodd">
        <path d="M107.748438,58.1526654 C107.410938,55.6339154 106.890625,53.1792279 106.142188,50.8057904 L119.210938,31.2386029 L108.532813,17.8229779 L86.5375,26.2370404 C84.4203125,24.9964154 82.184375,23.9104779 79.875,23.0245404 L72.7015625,0.482352941 L55.54375,0.482352941 L48.3703125,23.0339154 C46.0984375,23.9011029 43.9078125,24.9589154 41.8265625,26.1729779 L19.640625,17.6948529 L8.94375,31.0932904 L22.1140625,50.7886029 C21.39375,53.0432904 20.890625,55.3979779 20.5359375,57.7886029 L0,69.8979779 L3.815625,86.6354779 L27.4171875,88.5979779 C28.75,90.6151654 30.2734375,92.4854779 31.925,94.2479779 L28.59375,117.81204 L44.0359375,125.241728 L60.253125,108.07454 C61.521875,108.202665 62.8078125,108.266728 64.1234375,108.266728 C65.2921875,108.266728 66.4421875,108.202665 67.5828125,108.09329 L83.8640625,125.333915 L99.296875,117.88704 L96.0015625,94.5870404 C97.7171875,92.7714154 99.3140625,90.8448529 100.710938,88.7557904 L124.184375,86.8026654 L128,70.0729779 L107.748438,58.1526654 Z M64.1234375,93.5807904 C47.8875,93.5807904 34.7265625,80.4104779 34.7265625,64.1667279 C34.7265625,47.9401654 47.8875,34.7698529 64.1234375,34.7698529 C80.35,34.7698529 93.5109375,47.9307904 93.5109375,64.1667279 C93.5015625,80.4120404 80.35,93.5807904 64.1234375,93.5807904 Z" id="Shape" fill="#000000" fill-rule="nonzero"></path>
    </g>
</svg>