<?xml version="1.0" encoding="UTF-8"?>
<svg width="128px" height="128px" viewBox="0 0 128 128" version="1.1" xmlns="http://www.w3.org/2000/svg" xmlns:xlink="http://www.w3.org/1999/xlink">
    <!-- Generator: Sketch 49.1 (51147) - http://www.bohemiancoding.com/sketch -->
    <title>share-cancel-o</title>
    <desc>Created with Sketch.</desc>
    <defs></defs>
    <g id="share-cancel-o" stroke="none" stroke-width="1" fill="none" fill-rule="evenodd">
        <path d="M75.9845772,35.541282 C75.3434084,33.3048273 75,30.9425173 75,28.5 C75,14.4167389 86.4167389,3 100.5,3 C114.583261,3 126,14.4167389 126,28.5 C126,42.5832611 114.583261,54 100.5,54 C93.1766183,54 86.574281,50.9128413 81.9233822,45.9689178 L57.7091069,59.9490361 C57.9007805,61.2716732 58,62.6242496 58,64 C58,67.807247 57.240129,71.4370166 55.863773,74.7459228 L71.1650635,83.580127 C73.5565266,84.9608389 74.3759024,88.0187909 72.9951905,90.410254 L71.9951905,92.1423048 C70.6144787,94.533768 67.5565266,95.3531437 65.1650635,93.9724319 L49.5766062,84.9724319 C49.3690367,84.8525915 49.1733105,84.7201156 48.9898384,84.5765366 C43.9991667,89.1846545 37.328363,92 30,92 C14.536027,92 2,79.463973 2,64 C2,48.536027 14.536027,36 30,36 C39.7709158,36 48.3728937,41.0048181 53.3822317,48.5907522 L75.9845772,35.541282 Z M103.384776,88.8994949 L116.819805,75.4644661 C118.772427,73.5118446 121.938252,73.5118446 123.890873,75.4644661 L125.305087,76.8786797 C127.257708,78.8313011 127.257708,81.997126 125.305087,83.9497475 L111.870058,97.3847763 L125.305087,110.819805 C127.257708,112.772427 127.257708,115.938252 125.305087,117.890873 L123.890873,119.305087 C121.938252,121.257708 118.772427,121.257708 116.819805,119.305087 L103.384776,105.870058 L89.9497475,119.305087 C87.997126,121.257708 84.8313011,121.257708 82.8786797,119.305087 L81.4644661,117.890873 C79.5118446,115.938252 79.5118446,112.772427 81.4644661,110.819805 L94.8994949,97.3847763 L81.4644661,83.9497475 C79.5118446,81.997126 79.5118446,78.8313011 81.4644661,76.8786797 L82.8786797,75.4644661 C84.8313011,73.5118446 87.997126,73.5118446 89.9497475,75.4644661 L103.384776,88.8994949 Z M30,81 C39.3888407,81 47,73.3888407 47,64 C47,54.6111593 39.3888407,47 30,47 C20.6111593,47 13,54.6111593 13,64 C13,73.3888407 20.6111593,81 30,81 Z M100.5,44 C109.060414,44 116,37.0604136 116,28.5 C116,19.9395864 109.060414,13 100.5,13 C91.9395864,13 85,19.9395864 85,28.5 C85,37.0604136 91.9395864,44 100.5,44 Z" id="Combined-Shape" fill="#000000"></path>
    </g>
</svg>