<?xml version="1.0" encoding="UTF-8"?>
<svg width="128px" height="128px" viewBox="0 0 128 128" version="1.1" xmlns="http://www.w3.org/2000/svg" xmlns:xlink="http://www.w3.org/1999/xlink">
    <!-- Generator: Sketch 49.1 (51147) - http://www.bohemiancoding.com/sketch -->
    <title>share-o</title>
    <desc>Created with Sketch.</desc>
    <defs></defs>
    <g id="share-o" stroke="none" stroke-width="1" fill="none" fill-rule="evenodd">
        <path d="M58.6271011,59.419032 C58.8724119,60.9096446 59,62.4399224 59,64 C59,66.4029266 58.6973095,68.7351561 58.1279777,70.9606393 L79.3679568,83.2235469 C83.9521538,76.4512665 91.7062524,72 100.5,72 C114.583261,72 126,83.4167389 126,97.5 C126,111.583261 114.583261,123 100.5,123 C86.4167389,123 75,111.583261 75,97.5 C75,96.5362759 75.0534615,95.5850385 75.1575805,94.6490915 L52.7072571,81.6873912 C47.5728522,87.9811199 39.755756,92 31,92 C15.536027,92 3,79.463973 3,64 C3,48.536027 15.536027,36 31,36 C40.5912869,36 49.0562205,40.8224921 54.1023286,48.1750041 L75.9845772,35.541282 C75.3434084,33.3048273 75,30.9425173 75,28.5 C75,14.4167389 86.4167389,3 100.5,3 C114.583261,3 126,14.4167389 126,28.5 C126,42.5832611 114.583261,54 100.5,54 C93.1766183,54 86.574281,50.9128413 81.9233822,45.9689178 L58.6271011,59.419032 Z M44.5277564,53.7028859 C41.4220639,49.6290512 36.5180559,47 31,47 C21.6111593,47 14,54.6111593 14,64 C14,73.3888407 21.6111593,81 31,81 C40.3888407,81 48,73.3888407 48,64 C48,61.7654654 47.5688772,59.631625 46.7852732,57.6771204 L44.5,53.7189111 L44.5277564,53.7028859 Z M100.5,44 C109.060414,44 116,37.0604136 116,28.5 C116,19.9395864 109.060414,13 100.5,13 C91.9395864,13 85,19.9395864 85,28.5 C85,37.0604136 91.9395864,44 100.5,44 Z M100.5,113 C109.060414,113 116,106.060414 116,97.5 C116,88.9395864 109.060414,82 100.5,82 C91.9395864,82 85,88.9395864 85,97.5 C85,106.060414 91.9395864,113 100.5,113 Z" id="Combined-Shape" fill="#000000"></path>
    </g>
</svg>