<?xml version="1.0" encoding="UTF-8"?>
<svg width="128px" height="128px" viewBox="0 0 128 128" version="1.1" xmlns="http://www.w3.org/2000/svg" xmlns:xlink="http://www.w3.org/1999/xlink">
    <!-- Generator: Sketch 49.1 (51147) - http://www.bohemiancoding.com/sketch -->
    <title>system</title>
    <desc>Created with Sketch.</desc>
    <defs></defs>
    <g id="system" stroke="none" stroke-width="1" fill="none" fill-rule="evenodd">
        <path d="M119.447059,100.129412 C120.952941,99.3764706 123.211765,99.3764706 125.470588,98.6235294 L125.470588,86.5764706 C123.964706,85.8235294 121.705882,85.8235294 120.2,85.0705882 C116.435294,84.3176471 115.682353,82.8117647 118.694118,79.8 C119.447059,79.0470588 120.952941,78.2941176 122.458824,76.7882353 C119.447059,72.2705882 116.435294,68.5058824 113.423529,64.7411765 C112.670588,65.4941176 111.164706,66.2470588 110.411765,67 C104.388235,72.2705882 103.635294,71.5176471 101.376471,64.7411765 C101.376471,63.9882353 99.8705882,62.4823529 99.1176471,62.4823529 C95.3529412,62.4823529 92.3411765,62.4823529 88.5764706,62.4823529 C87.8235294,63.2352941 87.8235294,65.4941176 87.0705882,67 C85.5647059,70.0117647 84.0588235,70.7647059 81.0470588,68.5058824 C79.5411765,67 77.2823529,66.2470588 75.7764706,64.7411765 C74.2705882,67 72.7647059,68.5058824 71.2588235,70.7647059 C69.7529412,73.0235294 68.2470588,74.5294118 66.7411765,76.7882353 C68.2470588,78.2941176 69,79.8 70.5058824,81.3058824 C72.0117647,83.5647059 72.0117647,85.0705882 69,85.8235294 C66.7411765,85.8235294 65.2352941,85.8235294 63.7294118,86.5764706 L63.7294118,98.6235294 C65.9882353,99.3764706 67.4941176,99.3764706 69,100.129412 C72.0117647,100.882353 72.7647059,103.141176 69.7529412,105.4 C69,106.152941 67.4941176,107.658824 65.9882353,108.411765 C69,112.176471 72.0117647,116.694118 75.0235294,120.458824 C77.2823529,118.952941 79.5411765,117.447059 81.8,116.694118 C84.0588235,115.188235 85.5647059,115.941176 86.3176471,118.952941 C87.0705882,120.458824 87.0705882,122.717647 87.8235294,124.223529 L99.8705882,124.223529 C99.8705882,123.470588 99.8705882,122.717647 99.8705882,121.964706 C99.8705882,121.211765 99.8705882,120.458824 99.8705882,119.705882 C100.623529,116.694118 102.882353,115.941176 105.141176,117.447059 C106.647059,118.952941 108.152941,119.705882 108.905882,120.458824 C113.423529,116.694118 117.188235,112.929412 120.952941,108.411765 C120.2,107.658824 118.694118,106.905882 117.941176,105.4 C116.435294,103.141176 116.435294,100.882353 119.447059,100.129412 Z M109.658824,92.6 C109.658824,101.635294 102.882353,108.411765 94.6,108.411765 C85.5647059,108.411765 78.7882353,101.635294 78.7882353,92.6 C78.7882353,83.5647059 85.5647059,76.7882353 94.6,76.7882353 C102.882353,76.7882353 109.658824,83.5647059 109.658824,92.6 Z M60.7176471,80.5529412 C59.2117647,83.5647059 57.7058824,87.3294118 56.9529412,90.3411765 C56.9529412,95.6117647 57.7058824,100.129412 58.4588235,105.4 C59.2117647,107.658824 57.7058824,110.670588 54.6941176,110.670588 C51.6823529,111.423529 47.9176471,110.670588 44.1529412,110.670588 C36.6235294,110.670588 29.8470588,109.917647 22.3176471,109.164706 C19.3058824,109.164706 16.2941176,109.164706 13.2823529,108.411765 C11.7764706,108.411765 9.51764706,107.658824 8.01176471,107.658824 C5.75294118,106.905882 5,105.4 5,103.141176 C5,100.882353 5.75294118,99.3764706 6.50588235,97.1176471 C8.01176471,91.8470588 9.51764706,85.8235294 11.7764706,80.5529412 C14.7882353,72.2705882 21.5647059,67.7529412 30.6,67 C37.3764706,67 43.4,67 50.1764706,67 C53.1882353,67 56.9529412,67 59.9647059,67 C61.4705882,67 65.2352941,66.2470588 65.9882353,68.5058824 C65.9882353,70.0117647 64.4823529,72.2705882 63.7294118,73.7764706 C62.9764706,76.0352941 61.4705882,78.2941176 60.7176471,80.5529412 Z M64.4823529,57.2117647 C49.5121875,57.2117647 37.3764706,45.0760478 37.3764706,30.1058824 C37.3764706,15.1357169 49.5121875,3 64.4823529,3 C79.4525184,3 91.5882353,15.1357169 91.5882353,30.1058824 C91.5882353,45.0760478 79.4525184,57.2117647 64.4823529,57.2117647 Z" id="Combined-Shape" fill="#000000" fill-rule="nonzero"></path>
    </g>
</svg>