<?xml version="1.0" encoding="UTF-8"?>
<svg width="128px" height="128px" viewBox="0 0 128 128" version="1.1" xmlns="http://www.w3.org/2000/svg" xmlns:xlink="http://www.w3.org/1999/xlink">
    <!-- Generator: Sketch 49.1 (51147) - http://www.bohemiancoding.com/sketch -->
    <title>text-area</title>
    <desc>Created with Sketch.</desc>
    <defs></defs>
    <g id="text-area" stroke="none" stroke-width="1" fill="none" fill-rule="evenodd">
        <path d="M107.12381,3.26666667 L21.4095238,3.26666667 C11.9809524,3.26666667 4.26666667,10.9809524 4.26666667,20.4095238 L4.26666667,106.12381 C4.26666667,115.552381 11.9809524,123.266667 21.4095238,123.266667 L107.12381,123.266667 C116.552381,123.266667 124.266667,115.552381 124.266667,106.12381 L124.266667,20.4095238 C124.266667,10.9809524 116.552381,3.26666667 107.12381,3.26666667 Z M115.695238,106.12381 C115.695238,111.266667 112.266667,114.695238 107.12381,114.695238 L21.4095238,114.695238 C16.2666667,114.695238 12.8380952,111.266667 12.8380952,106.12381 L12.8380952,20.4095238 C12.8380952,15.2666667 16.2666667,11.8380952 21.4095238,11.8380952 L107.12381,11.8380952 C112.266667,11.8380952 115.695238,15.2666667 115.695238,20.4095238 L115.695238,106.12381 Z M29.9809524,28.9809524 L98.552381,28.9809524 L98.552381,37.552381 L29.9809524,37.552381 L29.9809524,28.9809524 Z M29.9809524,54.6952381 L98.552381,54.6952381 L98.552381,63.2666667 L29.9809524,63.2666667 L29.9809524,54.6952381 Z M29.9809524,80.4095238 L98.552381,80.4095238 L98.552381,88.9809524 L29.9809524,88.9809524 L29.9809524,80.4095238 Z" id="Combined-Shape" fill="#000000" fill-rule="nonzero"></path>
    </g>
</svg>