<?xml version="1.0" encoding="UTF-8"?>
<svg width="128px" height="128px" viewBox="0 0 128 128" version="1.1" xmlns="http://www.w3.org/2000/svg" xmlns:xlink="http://www.w3.org/1999/xlink">
    <!-- Generator: Sketch 49.1 (51147) - http://www.bohemiancoding.com/sketch -->
    <title>tick-circle-o</title>
    <desc>Created with Sketch.</desc>
    <defs></defs>
    <g id="tick-circle-o" stroke="none" stroke-width="1" fill="none" fill-rule="evenodd">
        <path d="M64.1297297,0.12972973 C28.9227958,0.12972973 0.12972973,28.9227958 0.12972973,64.1297297 C0.12972973,99.3366636 28.9227958,128.12973 64.1297297,128.12973 C99.3366636,128.12973 128.12973,99.3366636 128.12973,64.1297297 C128.12973,28.9227958 99.3366636,0.12972973 64.1297297,0.12972973 Z M64.1297297,117.468841 C34.7992855,117.468841 10.7906181,93.4601739 10.7906181,64.1297297 C10.7906181,34.7992855 34.7992855,10.7906181 64.1297297,10.7906181 C93.4601739,10.7906181 117.468841,34.7992855 117.468841,64.1297297 C117.468841,93.4601739 93.4601739,117.468841 64.1297297,117.468841 Z M56.1210623,74.7906181 L39.0636409,57.7331967 L31.5923516,65.204486 L56.1210623,90.2705748 L99.8740418,46.5349302 L92.4027525,39.0636409 L56.1210623,74.7906181 Z" id="Combined-Shape" fill="#000000" fill-rule="nonzero"></path>
    </g>
</svg>