<?xml version="1.0" encoding="UTF-8"?>
<svg width="128px" height="128px" viewBox="0 0 128 128" version="1.1" xmlns="http://www.w3.org/2000/svg" xmlns:xlink="http://www.w3.org/1999/xlink">
    <!-- Generator: Sketch 49.1 (51147) - http://www.bohemiancoding.com/sketch -->
    <title>time-circle-o</title>
    <desc>Created with Sketch.</desc>
    <defs></defs>
    <g id="time-circle-o" stroke="none" stroke-width="1" fill="none" fill-rule="evenodd">
        <path d="M64,0 C28.4444444,0 0,28.4444444 0,64 C0,99.5555556 28.4444444,128 64,128 C99.5555556,128 128,99.5555556 128,64 C128,28.4444444 99.5555556,0 64,0 Z M68.2666667,64 L68.2666667,36.8666667 C68.2666667,33.0006734 65.1326599,29.8666667 61.2666667,29.8666667 L60.3333333,29.8666667 C56.4673401,29.8666667 53.3333333,33.0006734 53.3333333,36.8666667 L53.3333333,71 L53.3333333,71.9333333 C53.3333333,75.7993266 56.4673401,78.9333333 60.3333333,78.9333333 L82.6,78.9333333 C86.4659932,78.9333333 89.6,75.7993266 89.6,71.9333333 L89.6,71 C89.6,67.1340068 86.4659932,64 82.6,64 L68.2666667,64 Z M64.5,118 C34.6928571,118 11,94.3071429 11,64.5 C11,34.6928571 34.6928571,11 64.5,11 C94.3071429,11 118,34.6928571 118,64.5 C118,94.3071429 94.3071429,118 64.5,118 Z" id="Combined-Shape" fill="#000000" fill-rule="nonzero"></path>
    </g>
</svg>