<?xml version="1.0" encoding="UTF-8"?>
<svg width="128px" height="128px" viewBox="0 0 128 128" version="1.1" xmlns="http://www.w3.org/2000/svg" xmlns:xlink="http://www.w3.org/1999/xlink">
    <!-- Generator: Sketch 49.1 (51147) - http://www.bohemiancoding.com/sketch -->
    <title>track</title>
    <desc>Created with Sketch.</desc>
    <defs></defs>
    <g id="track" stroke="none" stroke-width="1" fill="none" fill-rule="evenodd">
        <path d="M121.6,10 L6.4,10 C3.2,10 0,12.5507246 0,16.3768116 L0,86.5217391 C0,90.3478261 2.56,92.8985507 6.4,92.8985507 L121.6,92.8985507 C124.8,92.8985507 128,90.3478261 128,86.5217391 L128,16.3768116 C128,12.5507246 125.44,10 121.6,10 Z M6.4,86.5217391 C6.4,86.5217391 6.4,16.3768116 6.4,16.3768116 L121.6,16.3768116 C121.6,16.3768116 121.6,86.5217391 121.6,86.5217391 L6.4,86.5217391 Z M35.9855072,112.028986 L92.0144928,112.028986 C94.2156276,112.028986 96,113.813358 96,116.014493 C96,118.215628 94.2156276,120 92.0144928,120 L35.9855072,120 C33.7843724,120 32,118.215628 32,116.014493 C32,113.813358 33.7843724,112.028986 35.9855072,112.028986 Z M36,48.2608696 L36,48.2608696 C38.209139,48.2608696 40,50.0517306 40,52.2608696 L40,69.7681159 C40,71.9772549 38.209139,73.7681159 36,73.7681159 L36,73.7681159 C33.790861,73.7681159 32,71.9772549 32,69.7681159 L32,52.2608696 C32,50.0517306 33.790861,48.2608696 36,48.2608696 Z M55.2,35.5072464 L55.2,35.5072464 C57.409139,35.5072464 59.2,37.2981074 59.2,39.5072464 L59.2,69.7681159 C59.2,71.9772549 57.409139,73.7681159 55.2,73.7681159 L55.2,73.7681159 C52.990861,73.7681159 51.2,71.9772549 51.2,69.7681159 L51.2,39.5072464 C51.2,37.2981074 52.990861,35.5072464 55.2,35.5072464 Z M74.4,54.6376812 L74.4,54.6376812 C76.609139,54.6376812 78.4,56.4285422 78.4,58.6376812 L78.4,69.7681159 C78.4,71.9772549 76.609139,73.7681159 74.4,73.7681159 L74.4,73.7681159 C72.190861,73.7681159 70.4,71.9772549 70.4,69.7681159 L70.4,58.6376812 C70.4,56.4285422 72.190861,54.6376812 74.4,54.6376812 Z M93.6,29.1304348 L93.6,29.1304348 C95.809139,29.1304348 97.6,30.9212958 97.6,33.1304348 L97.6,69.7681159 C97.6,71.9772549 95.809139,73.7681159 93.6,73.7681159 L93.6,73.7681159 C91.390861,73.7681159 89.6,71.9772549 89.6,69.7681159 L89.6,33.1304348 C89.6,30.9212958 91.390861,29.1304348 93.6,29.1304348 Z" id="Combined-Shape" fill="#000000" fill-rule="nonzero"></path>
    </g>
</svg>