<?xml version="1.0" encoding="UTF-8"?>
<svg width="128px" height="128px" viewBox="0 0 128 128" version="1.1" xmlns="http://www.w3.org/2000/svg" xmlns:xlink="http://www.w3.org/1999/xlink">
    <!-- Generator: Sketch 54.1 (76490) - https://sketchapp.com -->
    <title>translation</title>
    <desc>Created with Sketch.</desc>
    <g id="translation" stroke="none" stroke-width="1" fill="none" fill-rule="evenodd">
        <path d="M62,47.2307692 L71.8461538,47.2307692 L71.8461538,17.6923077 C71.8461538,14.9733674 69.6420172,12.7692308 66.9230769,12.7692308 L17.6923077,12.7692308 C14.9733674,12.7692308 12.7692308,14.9733674 12.7692308,17.6923077 L12.7692308,66.9230769 C12.7692308,69.6420172 14.9733674,71.8461538 17.6923077,71.8461538 L22.6153846,71.8461538 L22.6153846,72.0655864 L18.1714317,77.7538462 L15.3461928,81.5069958 C8.30434718,80.3830158 2.92307692,74.2814779 2.92307692,66.9230769 L2.92307692,17.6923077 C2.92307692,9.53548682 9.53548682,2.92307692 17.6923077,2.92307692 L66.9230769,2.92307692 C75.0798978,2.92307692 81.6923077,9.53548682 81.6923077,17.6923077 L81.6923077,47.2307692 L111.230769,47.2307692 C119.38759,47.2307692 126,53.8431791 126,62 L126,111.230769 C126,119.38759 119.38759,126 111.230769,126 L62,126 C56.2496599,126 51.2668722,122.713717 48.8272748,117.916788 L51.1692308,116.153846 L57.0859142,111.531437 C57.2413072,114.110346 59.382011,116.153846 62,116.153846 L111.230769,116.153846 C113.94971,116.153846 116.153846,113.94971 116.153846,111.230769 L116.153846,62 C116.153846,59.2810597 113.94971,57.0769231 111.230769,57.0769231 L62,57.0769231 C59.2810597,57.0769231 57.0769231,59.2810597 57.0769231,62 L57.0769231,89.0769231 L47.2307692,81.3846154 L47.2307692,62 C47.2307692,60.0121817 47.6234786,58.1160856 48.3355468,56.3850622 C46.9876726,55.5737606 45.7141505,54.7173743 44.5174825,53.8321679 C43.9615392,54.2517482 43.3951042,54.7027979 42.8391608,55.090909 C35.0349651,60.4720273 27.2307692,63.0629371 27.2307692,63.0629371 L25.5524475,57.9440559 C25.5524475,57.9440559 32.6433567,55.5314699 39.7342657,50.6433567 C39.9125867,50.5174825 40.0594412,50.3496503 40.2377623,50.2237762 C33.1783223,43.7727266 29.6643357,37.3006993 29.6643357,37.3006993 L34.3636364,34.7832167 C34.3636364,34.7832167 37.7832181,40.9615378 44.5174825,46.8671328 C48.9125881,42.9020992 52.4160832,37.9930083 53.2447552,32.013986 L21.2727272,32.013986 L21.2727272,26.6433567 L42.7552448,26.6433567 L42.7552448,21.2727272 L48.1258741,21.2727272 L48.1258741,26.6433567 L66.9230769,26.6433567 L66.9230769,32.013986 L58.6993007,32.013986 C57.8916091,39.5139867 53.7902098,45.5769224 48.8811189,50.2237762 C49.6619642,50.7653838 50.4722806,51.2954135 51.3130683,51.8058632 C54.0026997,48.9870406 57.7962503,47.2307692 62,47.2307692 Z M84.2293707,64.4265733 L90.9293706,64.4265733 L107.629371,108.426573 L99.6293706,108.426573 L96.0293707,98.2497028 L79.1293707,98.2497028 L75.6293706,108.426573 L67.6293706,108.426573 L84.2293707,64.4265733 Z M87.6293706,74.4265733 L81.6293706,92.4265733 L93.6293706,92.4265733 L87.6293706,74.4265733 Z M37.3846154,95.7902098 L50.2741259,95.7902098 L50.2741259,88.4055944 L66.027972,100.713287 L50.2741259,113.020979 L50.2741259,106 L34.6433567,106 C30.2250787,106 26.6433567,102.418278 26.6433567,98 L26.6433567,83.0349651 L18.5874126,83.0349651 L32.013986,66.9230769 L45.4405595,83.0349651 L37.3846154,83.0349651 L37.3846154,95.7902098 Z" id="形状" fill="#000000" fill-rule="nonzero"></path>
    </g>
</svg>