<?xml version="1.0" encoding="UTF-8"?>
<svg width="128px" height="128px" viewBox="0 0 128 128" version="1.1" xmlns="http://www.w3.org/2000/svg" xmlns:xlink="http://www.w3.org/1999/xlink">
    <!-- Generator: Sketch 49.1 (51147) - http://www.bohemiancoding.com/sketch -->
    <title>unlock</title>
    <desc>Created with Sketch.</desc>
    <defs></defs>
    <g id="unlock" stroke="none" stroke-width="1" fill="none" fill-rule="evenodd">
        <path d="M44,58 L44,42 C44,18.8040405 62.8040405,4.26102863e-15 86,0 C109.195959,-4.26102863e-15 128,18.8040405 128,42 L128,58 L111,58 L111,43 C111,29.1928813 99.8071187,18 86,18 C72.1928813,18 61,29.1928813 61,43 L61,58 L94.8195556,58 L97.7848889,58 C100.252444,58 102.350222,58.8484416 104.078222,60.5524547 C105.799111,62.249338 106.666667,64.3169688 106.666667,66.7482176 L106.666667,119.244653 C106.666667,121.675901 105.799111,123.743532 104.071111,125.440416 C102.343111,127.144429 100.245333,128 97.7777778,128 L8.88888889,128 C6.42133333,128 4.32355556,127.151558 2.59555556,125.447545 C0.867555556,123.743532 0,121.675901 0,119.244653 L0,66.7482176 C0,64.3169688 0.867555556,62.249338 2.59555556,60.5524547 C4.32355556,58.8484416 6.42133333,58 8.88888889,58 L11.8542222,58 L44,58 Z M47.6,92.9082043 L47.6,107.345972 C47.6,110.554364 50,113.762757 54,113.762757 C57.2,113.762757 59.6,110.554364 59.6,107.345972 L59.6,92.9082043 C63.6,90.5019098 66,86.4914188 66,81.6788297 C66,74.459946 60.4,68.8452587 54,68.8452587 C47.6,68.8452587 42,74.459946 42,81.6788297 C42,86.4914188 44.4,90.5019098 47.6,92.9082043 Z" id="Combined-Shape" fill="#000000" fill-rule="nonzero"></path>
    </g>
</svg>