<?xml version="1.0" encoding="UTF-8"?>
<svg width="128px" height="128px" viewBox="0 0 128 128" version="1.1" xmlns="http://www.w3.org/2000/svg" xmlns:xlink="http://www.w3.org/1999/xlink">
    <!-- Generator: Sketch 49.1 (51147) - http://www.bohemiancoding.com/sketch -->
    <title>upload</title>
    <desc>Created with Sketch.</desc>
    <defs></defs>
    <g id="upload" stroke="none" stroke-width="1" fill="none" fill-rule="evenodd">
        <path d="M69.2459016,16.6885246 L69.2459016,95.3770492 C69.2459016,98.5245902 67.147541,100.622951 64,100.622951 C60.852459,100.622951 58.7540984,98.5245902 58.7540984,95.3770492 L58.7540984,18.7868852 L38.8196721,38.7213115 C36.7213115,40.8196721 33.5737705,40.8196721 31.4754098,38.7213115 C29.3770492,36.6229508 29.3770492,33.4754098 31.4754098,31.3770492 L57.704918,5.14754098 C61.9016393,0.950819672 68.1967213,0.950819672 72.3934426,5.14754098 L98.6229508,31.3770492 C100.721311,33.4754098 100.721311,36.6229508 98.6229508,38.7213115 C96.5245902,40.8196721 93.3770492,40.8196721 91.2786885,38.7213115 L69.2459016,16.6885246 Z M117.508197,84.8852459 C117.508197,81.7377049 119.606557,79.6393443 122.754098,79.6393443 C125.901639,79.6393443 128,81.7377049 128,84.8852459 L128,111.114754 C128,120.557377 120.655738,126.852459 112.262295,126.852459 L15.7377049,126.852459 C7.3442623,127.901639 0,120.557377 0,112.163934 L0,84.8852459 C0,81.7377049 2.09836066,79.6393443 5.24590164,79.6393443 C8.39344262,79.6393443 10.4918033,81.7377049 10.4918033,84.8852459 L10.4918033,111.114754 C10.4918033,115.311475 12.5901639,117.409836 15.7377049,117.409836 L112.262295,117.409836 C115.409836,117.409836 117.508197,115.311475 117.508197,112.163934 L117.508197,84.8852459 Z" id="Fill-1" fill="#000000" fill-rule="nonzero"></path>
    </g>
</svg>