<?xml version="1.0" encoding="UTF-8"?>
<svg width="128px" height="128px" viewBox="0 0 128 128" version="1.1" xmlns="http://www.w3.org/2000/svg" xmlns:xlink="http://www.w3.org/1999/xlink">
    <!-- Generator: Sketch 49.1 (51147) - http://www.bohemiancoding.com/sketch -->
    <title>view</title>
    <desc>Created with Sketch.</desc>
    <defs></defs>
    <g id="view" stroke="none" stroke-width="1" fill="none" fill-rule="evenodd">
        <path d="M64.3470197,18.1090426 C18.6279457,18.1090426 0.353723404,63.8281166 0.353723404,63.8281166 C0.353723404,63.8281166 18.641353,109.547191 64.3470197,109.547191 C110.066094,109.547191 128.353723,63.8281166 128.353723,63.8281166 C128.353723,63.8281166 110.066094,18.1090426 64.3470197,18.1090426 Z M64.3470197,91.2461537 C49.2101181,91.2461537 36.9155753,78.9650183 36.9155753,63.8147093 C36.9155753,48.6644003 49.1967107,36.3832648 64.3470197,36.3832648 C79.4839214,36.3832648 91.7784642,48.6644003 91.7784642,63.8147093 C91.7784642,78.9650183 79.4973287,91.2461537 64.3470197,91.2461537 Z M78.0627419,63.8147093 C78.0627419,71.3898638 71.9221742,77.5304315 64.3470197,77.5304315 C56.7718652,77.5304315 50.6312975,71.3898638 50.6312975,63.8147093 C50.6312975,56.2395548 56.7718652,50.098987 64.3470197,50.098987 C71.9221742,50.1123944 78.0627419,56.2529621 78.0627419,63.8147093 Z" id="Shape" fill="#000000" fill-rule="nonzero"></path>
    </g>
</svg>