<?xml version="1.0" encoding="UTF-8"?>
<svg width="128px" height="128px" viewBox="0 0 128 128" version="1.1" xmlns="http://www.w3.org/2000/svg" xmlns:xlink="http://www.w3.org/1999/xlink">
    <!-- Generator: Sketch 49.1 (51147) - http://www.bohemiancoding.com/sketch -->
    <title>warning-triangle-o</title>
    <desc>Created with Sketch.</desc>
    <defs></defs>
    <g id="warning-triangle-o" stroke="none" stroke-width="1" fill="none" fill-rule="evenodd">
        <path d="M124.674598,100.517328 L75.0968621,13.9737356 C68.5734758,2.66653259 58.1360577,2.66653259 51.8301175,13.9737356 L2.25238138,100.517328 C-4.27100495,111.824531 1.16515033,120.957271 13.9944768,120.957271 L112.932503,120.957271 C125.979276,120.957271 131.197985,111.824531 124.674598,100.517328 Z M112.932503,113.129208 L13.9944768,113.129208 C7.03619803,113.129208 5.51407455,110.519853 8.99321393,104.431359 L58.5709501,17.8877674 C62.0500895,11.7992735 64.8768902,11.7992735 68.3560296,17.8877674 L117.933766,104.431359 C121.412905,110.519853 119.890782,113.129208 112.932503,113.129208 Z M63.3547667,40.5021733 C59.0058425,40.5021733 55.5267031,43.9813127 55.5267031,48.1127907 C55.5267031,52.2442687 59.2232887,85.9484315 63.3547667,86.6007701 C67.9211372,85.9484315 71.1828303,52.2442687 71.1828303,48.1127907 C71.1828303,43.9813127 67.7036909,40.5021733 63.3547667,40.5021733 Z M63.3547667,105.736037 C66.5972568,105.736037 69.2258144,103.107479 69.2258144,99.864989 C69.2258144,96.6224989 66.5972568,93.9939413 63.3547667,93.9939413 C60.1122766,93.9939413 57.483719,96.6224989 57.483719,99.864989 C57.483719,103.107479 60.1122766,105.736037 63.3547667,105.736037 Z" id="Combined-Shape" fill="#000000" fill-rule="nonzero"></path>
    </g>
</svg>