<?xml version="1.0" encoding="UTF-8"?>
<svg width="128px" height="128px" viewBox="0 0 128 128" version="1.1" xmlns="http://www.w3.org/2000/svg" xmlns:xlink="http://www.w3.org/1999/xlink">
    <!-- Generator: Sketch 49.1 (51147) - http://www.bohemiancoding.com/sketch -->
    <title>warning-circle-o</title>
    <desc>Created with Sketch.</desc>
    <defs></defs>
    <g id="warning-circle-o" stroke="none" stroke-width="1" fill="none" fill-rule="evenodd">
        <path d="M64,0 C28.8,0 0,28.8 0,64 C0,99.2 28.8,128 64,128 C99.2,128 128,99.2 128,64 C128,28.8 99.2,0 64,0 Z M64,117.333333 C34.6666667,117.333333 10.6666667,93.3333333 10.6666667,64 C10.6666667,34.6666667 34.6666667,10.6666667 64,10.6666667 C93.3333333,10.6666667 117.333333,34.6666667 117.333333,64 C117.333333,93.3333333 93.3333333,117.333333 64,117.333333 Z M63.1466667,34.84 C58.88,34.84 55.4666667,38.2533333 55.4666667,42.3066667 C55.4666667,46.36 59.0933333,79.4266667 63.1466667,80.0666667 C67.6266667,79.4266667 70.8266667,46.36 70.8266667,42.3066667 C70.8266667,38.2533333 67.4133333,34.84 63.1466667,34.84 Z M63.1466667,98.84 C66.3278268,98.84 68.9066667,96.2611602 68.9066667,93.08 C68.9066667,89.8988398 66.3278268,87.32 63.1466667,87.32 C59.9655065,87.32 57.3866667,89.8988398 57.3866667,93.08 C57.3866667,96.2611602 59.9655065,98.84 63.1466667,98.84 Z" id="Combined-Shape" fill="#000000" fill-rule="nonzero"></path>
    </g>
</svg>