<?xml version="1.0" encoding="UTF-8"?>
<svg width="128px" height="128px" viewBox="0 0 128 128" version="1.1" xmlns="http://www.w3.org/2000/svg" xmlns:xlink="http://www.w3.org/1999/xlink">
    <!-- Generator: Sketch 49.1 (51147) - http://www.bohemiancoding.com/sketch -->
    <title>workflow</title>
    <desc>Created with Sketch.</desc>
    <defs></defs>
    <g id="workflow" stroke="none" stroke-width="1" fill="none" fill-rule="evenodd">
        <path d="M79.6672961,78.2809705 C81.0299269,78.4108458 82.4238918,77.8374553 83.2867107,76.649887 L104.44698,47.5252752 C105.745479,45.7380442 105.349284,43.2365656 103.562053,41.9380662 C101.774822,40.6395669 99.2733431,41.0357622 97.9748438,42.8229932 L78.5058313,69.61979 L44.1834765,57.8016555 C42.0946945,57.0824302 39.8183549,58.1926752 39.0991296,60.2814572 C39.019269,60.513389 38.9619644,60.7476333 38.9260507,60.9818015 L21.4634337,91.2279414 C20.3588642,93.1411119 21.0143648,95.5874735 22.9275353,96.692043 C24.8407058,97.7966125 27.2870674,97.1411119 28.3916369,95.2279414 L44.9603349,66.5301148 L78.4541557,78.0629621 C78.8557359,78.2012373 79.2642487,78.2718911 79.6672961,78.2809705 Z M110,122 L20,122 C11.7125,122 5,115.2875 5,107 L5,39.5 C5,31.2125 11.7125,24.5 20,24.5 L42.5,24.5 C42.5,12.0725 52.5725,2 65,2 C77.4275,2 87.5,12.0725 87.5,24.5 L110,24.5 C118.2875,24.5 125,31.2125 125,39.5 L125,107 C125,115.2875 118.2875,122 110,122 Z M65,17 C60.86,17 57.5,20.36 57.5,24.5 C57.5,28.64 60.86,32 65,32 C69.14,32 72.5,28.64 72.5,24.5 C72.5,20.36 69.14,17 65,17 Z" id="Shape" fill="#000000" fill-rule="nonzero"></path>
    </g>
</svg>