<?xml version="1.0" encoding="UTF-8"?>
<svg width="128px" height="128px" viewBox="0 0 128 128" version="1.1" xmlns="http://www.w3.org/2000/svg" xmlns:xlink="http://www.w3.org/1999/xlink">
    <!-- Generator: Sketch 49.1 (51147) - http://www.bohemiancoding.com/sketch -->
    <title>zoom-in-square-o</title>
    <desc>Created with Sketch.</desc>
    <defs></defs>
    <g id="zoom-in-square-o" stroke="none" stroke-width="1" fill="none" fill-rule="evenodd">
        <path d="M19,4 L109,4 C117.284271,4 124,10.7157288 124,19 L124,109 C124,117.284271 117.284271,124 109,124 L19,124 C10.7157288,124 4,117.284271 4,109 L4,19 C4,10.7157288 10.7157288,4 19,4 Z M24,12 C17.372583,12 12,17.372583 12,24 L12,104 C12,110.627417 17.372583,116 24,116 L104,116 C110.627417,116 116,110.627417 116,104 L116,24 C116,17.372583 110.627417,12 104,12 L24,12 Z M105.142857,18.5714286 L70,18.5714286 C67.4285714,18.5714286 65.7142857,20.2857143 65.7142857,22.8571429 C65.7142857,22.8571429 65.7142857,26.2857143 70,26.2857143 L96.5714286,26.2857143 L69.1428571,53.7142857 L75.1428571,59.7142857 L102.571429,32.2857143 L102.571429,58 C102.571429,61.4285714 106,62.2857143 106,62.2857143 C108.571429,62.2857143 109.428571,60.5714286 109.428571,58 L109.428571,22.8571429 C109.428571,20.2857143 107.714286,18.5714286 105.142857,18.5714286 Z M22.8571429,109.428571 L58,109.428571 C60.5714286,109.428571 62.2857143,107.714286 62.2857143,105.142857 C62.2857143,105.142857 62.2857143,101.714286 58,101.714286 L31.4285714,101.714286 L58.8571429,73.4285714 L52.8571429,68.2857143 L25.4285714,95.7142857 L25.4285714,70 C25.4285714,66.5714286 22,65.7142857 22,65.7142857 C19.4285714,65.7142857 18.5714286,67.4285714 18.5714286,70 L18.5714286,105.142857 C18.5714286,107.714286 20.2857143,109.428571 22.8571429,109.428571 Z" id="Combined-Shape" fill="#000000" fill-rule="nonzero"></path>
    </g>
</svg>