<?xml version="1.0" encoding="UTF-8"?>
<svg width="128px" height="128px" viewBox="0 0 128 128" version="1.1" xmlns="http://www.w3.org/2000/svg" xmlns:xlink="http://www.w3.org/1999/xlink">
    <!-- Generator: Sketch 49.1 (51147) - http://www.bohemiancoding.com/sketch -->
    <title>zoom-out-square-o</title>
    <desc>Created with Sketch.</desc>
    <defs></defs>
    <g id="zoom-out-square-o" stroke="none" stroke-width="1" fill="none" fill-rule="evenodd">
        <path d="M19,4 L109,4 C117.284271,4 124,10.7157288 124,19 L124,109 C124,117.284271 117.284271,124 109,124 L19,124 C10.7157288,124 4,117.284271 4,109 L4,19 C4,10.7157288 10.7157288,4 19,4 Z M24,12 C17.372583,12 12,17.372583 12,24 L12,104 C12,110.627417 17.372583,116 24,116 L104,116 C110.627417,116 116,110.627417 116,104 L116,24 C116,17.372583 110.627417,12 104,12 L24,12 Z M57.1428571,69.8571429 L21.1428571,69.8571429 C19.4285714,69.8571429 17.7142857,71.5714286 17.7142857,73.2857143 C17.7142857,73.2857143 17.7142857,76.7142857 22,76.7142857 L48.5714286,76.7142857 L21.1428571,105 L27.1428571,111 L54.5714286,83.5714286 L54.5714286,109.285714 C54.5714286,112.714286 58,113.571429 58,113.571429 C60.5714286,113.571429 61.4285714,111.857143 61.4285714,109.285714 L61.4285714,74.1428571 C60.5714286,71.5714286 58.8571429,69.8571429 57.1428571,69.8571429 Z M68.2857143,59.5714286 L103.428571,59.5714286 C106,59.5714286 107.714286,57.8571429 107.714286,55.2857143 C107.714286,55.2857143 107.714286,51.8571429 103.428571,51.8571429 L77.7142857,51.8571429 L105.142857,23.5714286 L98.2857143,18.4285714 L71.7142857,46.7142857 L71.7142857,20.1428571 C71.7142857,16.7142857 68.2857143,15.8571429 68.2857143,15.8571429 C65.7142857,16.7142857 64,18.4285714 64,21 L64,56.1428571 C64,57.8571429 65.7142857,59.5714286 68.2857143,59.5714286 Z" id="Combined-Shape" fill="#000000"></path>
    </g>
</svg>