<svg width="48" height="49" viewBox="0 0 48 49" fill="none" xmlns="http://www.w3.org/2000/svg">
<rect y="0.504395" width="48" height="48" rx="12" fill="black"/>
<g clip-path="url(#clip0_573_2495)">
<path d="M24 40.9956C32.8366 40.9956 40 33.8322 40 24.9956C40 16.159 32.8366 8.99561 24 8.99561C15.1634 8.99561 8 16.159 8 24.9956C8 33.8322 15.1634 40.9956 24 40.9956Z" fill="#2775C9"/>
<path d="M23.75 36.4956C17.26 36.4956 12 31.2356 12 24.7456C12 18.2556 17.26 12.9956 23.75 12.9956C30.24 12.9956 35.5 18.2556 35.5 24.7456C35.5 27.8619 34.2621 30.8506 32.0585 33.0541C29.855 35.2577 26.8663 36.4956 23.75 36.4956ZM23.05 20.3856C22.4071 20.4175 21.7994 20.6885 21.3461 21.1455C20.8928 21.6025 20.6267 22.2125 20.6 22.8556C20.6 24.0656 21.34 24.8556 22.91 25.1856L24.01 25.4456C25.08 25.6956 25.52 26.0556 25.52 26.6656C25.52 27.2756 24.75 27.8756 23.75 27.8756C23.3948 27.9082 23.0376 27.8401 22.7193 27.6792C22.401 27.5182 22.1344 27.271 21.95 26.9656C21.8954 26.8497 21.8091 26.7517 21.7012 26.6827C21.5933 26.6137 21.4681 26.5766 21.34 26.5756H20.75C20.7046 26.584 20.6614 26.6013 20.6227 26.6265C20.584 26.6517 20.5507 26.6843 20.5247 26.7224C20.4987 26.7605 20.4805 26.8033 20.4711 26.8485C20.4617 26.8937 20.4613 26.9403 20.47 26.9856C20.6137 27.5722 20.9479 28.0945 21.4201 28.4709C21.8924 28.8473 22.4762 29.0564 23.08 29.0656V29.9056C23.08 30.0926 23.1543 30.2719 23.2865 30.4041C23.4187 30.5363 23.598 30.6106 23.785 30.6106C23.972 30.6106 24.1513 30.5363 24.2835 30.4041C24.4157 30.2719 24.49 30.0926 24.49 29.9056V29.0556C25.1728 29.0479 25.8256 28.7739 26.3093 28.292C26.7931 27.8101 27.0696 27.1584 27.08 26.4756C27.08 25.2056 26.35 24.4756 24.62 24.1056L23.62 23.8856C22.62 23.6356 22.15 23.3056 22.15 22.7456C22.15 22.1856 22.75 21.5656 23.75 21.5656C24.0649 21.5327 24.3827 21.5917 24.6648 21.7354C24.947 21.8792 25.1815 22.1015 25.34 22.3756C25.4043 22.5125 25.506 22.6284 25.6334 22.7098C25.7609 22.7912 25.9088 22.8348 26.06 22.8356H26.53C26.6369 22.8095 26.7292 22.7424 26.7872 22.6489C26.8451 22.5555 26.8641 22.4429 26.84 22.3356C26.7045 21.794 26.4015 21.3091 25.9741 20.9499C25.5467 20.5908 25.0168 20.3758 24.46 20.3356V19.6456C24.46 19.4586 24.3857 19.2793 24.2535 19.1471C24.1213 19.0149 23.942 18.9406 23.755 18.9406C23.568 18.9406 23.3887 19.0149 23.2565 19.1471C23.1243 19.2793 23.05 19.4586 23.05 19.6456V20.3856ZM14.94 24.7456C14.9411 26.5877 15.521 28.3828 16.5976 29.8775C17.6742 31.3722 19.1932 32.4909 20.94 33.0756H21.08C21.1993 33.0756 21.3138 33.0282 21.3982 32.9438C21.4826 32.8594 21.53 32.745 21.53 32.6256V32.4156C21.5303 32.2295 21.4754 32.0474 21.3721 31.8925C21.2689 31.7376 21.122 31.6169 20.95 31.5456C19.5896 30.9965 18.4243 30.0534 17.6038 28.8373C16.7832 27.6212 16.3448 26.1876 16.3448 24.7206C16.3448 23.2536 16.7832 21.82 17.6038 20.6039C18.4243 19.3878 19.5896 18.4447 20.95 17.8956C21.1212 17.8261 21.2677 17.7071 21.371 17.554C21.4743 17.4008 21.5297 17.2204 21.53 17.0356V16.8056C21.5306 16.7381 21.515 16.6714 21.4844 16.6112C21.4538 16.551 21.4091 16.4991 21.3541 16.4598C21.2992 16.4206 21.2356 16.3951 21.1687 16.3857C21.1018 16.3763 21.0337 16.3831 20.97 16.4056C19.216 16.9857 17.6893 18.1037 16.6068 19.6009C15.5244 21.098 14.9411 22.8981 14.94 24.7456ZM32.56 24.7456C32.5568 22.9052 31.976 21.1123 30.8995 19.6196C29.823 18.1269 28.3052 17.0097 26.56 16.4256H26.41C26.2853 16.4256 26.1658 16.4751 26.0777 16.5633C25.9895 16.6514 25.94 16.771 25.94 16.8956V17.0456C25.944 17.2385 26.0038 17.4261 26.112 17.5857C26.2202 17.7454 26.3723 17.8704 26.55 17.9456C27.9073 18.4963 29.0694 19.4395 29.8876 20.6544C30.7058 21.8694 31.1428 23.3008 31.1428 24.7656C31.1428 26.2304 30.7058 27.6618 29.8876 28.8768C29.0694 30.0917 27.9073 31.0349 26.55 31.5856C26.3757 31.6616 26.2267 31.7857 26.1205 31.9433C26.0142 32.1009 25.9551 32.2856 25.95 32.4756V32.6456C25.9509 32.7197 25.9692 32.7926 26.0036 32.8583C26.038 32.924 26.0875 32.9806 26.148 33.0235C26.2084 33.0664 26.2782 33.0944 26.3515 33.1052C26.4249 33.116 26.4997 33.1093 26.57 33.0856C28.3166 32.4987 29.8345 31.3777 30.9094 29.8812C31.9843 28.3846 32.5617 26.5882 32.56 24.7456Z" fill="white"/>
</g>
<defs>
<clipPath id="clip0_573_2495">
<rect width="32" height="32" fill="white" transform="translate(8 8.99561)"/>
</clipPath>
</defs>
</svg>
